<svg xmlns="http://www.w3.org/2000/svg" width="1000" height="128" viewBox="0 0 1000 128"><defs><style>.a{fill:#fff;}</style></defs><path class="a" d="M-465.791-61.026H-456q16.26,0,16.26-14.139T-456-89.3h-9.786Zm0,61.368H-495.3v-113.41h46.974q19.121,0,29.283,9.927t10.163,27.977q0,18.049-10.163,27.976t-29.283,9.927h-17.465Zm88.979-38.806a17.914,17.914,0,0,0,1.355,6.994,18.014,18.014,0,0,0,3.689,5.64,16.559,16.559,0,0,0,5.571,3.76,17.962,17.962,0,0,0,7,1.354,17.576,17.576,0,0,0,6.85-1.354,16.56,16.56,0,0,0,5.571-3.76,19.44,19.44,0,0,0,3.764-5.565,16.215,16.215,0,0,0,1.43-6.769,16.732,16.732,0,0,0-1.43-6.844,19.138,19.138,0,0,0-3.764-5.64,16.56,16.56,0,0,0-5.571-3.76,17.576,17.576,0,0,0-6.85-1.354,17.962,17.962,0,0,0-7,1.354,16.559,16.559,0,0,0-5.571,3.76,18.533,18.533,0,0,0-3.689,5.49A16.451,16.451,0,0,0-376.812-38.465Zm34.327-38.355h27.4V.341h-27.4V-8.232q-8.732,10.98-23.637,10.98A38.4,38.4,0,0,1-381.629-.335a37.4,37.4,0,0,1-12.346-8.649A39.921,39.921,0,0,1-402.18-22.07a44.7,44.7,0,0,1-2.936-16.395,43.445,43.445,0,0,1,2.861-15.718,40.408,40.408,0,0,1,7.98-13.011,37.623,37.623,0,0,1,12.2-8.8,37.228,37.228,0,0,1,15.658-3.234q14.454,0,23.939,10.078Zm41.4,0h27.251v12.635a31.285,31.285,0,0,1,10.69-10.6,28.773,28.773,0,0,1,14.755-3.685h2.334a16.647,16.647,0,0,1,2.936.3v26.021A25.912,25.912,0,0,0-254.86-54.86q-9.485,0-14.228,5.64t-4.743,16.47V.341h-27.251ZM-241.16.341l19.271-113.41h29.208L-169.946-52.6l22.584-60.465h29.208L-98.883.341h-29.359l-9.786-65.278L-164.827.341h-11.743l-25.444-65.278L-211.8.341ZM-34.9-49.445a16.376,16.376,0,0,0-5.571-9.175A15.615,15.615,0,0,0-50.7-62.079,15.619,15.619,0,0,0-61.018-58.77a14.976,14.976,0,0,0-5.044,9.326ZM-66.815-33.652q0,17.6,16.561,17.6,8.883,0,13.4-7.22h26.347Q-18.486,3.2-50.4,3.2A52.46,52.46,0,0,1-68.32.266,40,40,0,0,1-82.247-8.082,37.206,37.206,0,0,1-91.2-21.017a43.076,43.076,0,0,1-3.162-16.846,47.618,47.618,0,0,1,3.011-17.373A36.535,36.535,0,0,1-82.774-68.4,38.029,38.029,0,0,1-69.3-76.744a51.014,51.014,0,0,1,17.841-2.933,49.922,49.922,0,0,1,17.615,2.933,35.658,35.658,0,0,1,13.249,8.5,36.924,36.924,0,0,1,8.281,13.612A53.872,53.872,0,0,1-9.452-36.509v2.858ZM-2.828-14.1a17.53,17.53,0,0,1,1.355-6.844,17.377,17.377,0,0,1,3.764-5.64,17.4,17.4,0,0,1,5.646-3.76,17.576,17.576,0,0,1,6.85-1.354,17.576,17.576,0,0,1,6.85,1.354,17.4,17.4,0,0,1,5.646,3.76,17.377,17.377,0,0,1,3.764,5.64A17.529,17.529,0,0,1,32.4-14.1a17.529,17.529,0,0,1-1.355,6.844,17.377,17.377,0,0,1-3.764,5.64,17.4,17.4,0,0,1-5.646,3.76A17.576,17.576,0,0,1,14.787,3.5a17.576,17.576,0,0,1-6.85-1.354,17.4,17.4,0,0,1-5.646-3.76,17.377,17.377,0,0,1-3.764-5.64A17.53,17.53,0,0,1-2.828-14.1ZM66.428-38.615a17.47,17.47,0,0,0,1.43,7.145,19.139,19.139,0,0,0,3.764,5.64,16.559,16.559,0,0,0,5.571,3.76,17.576,17.576,0,0,0,6.85,1.354,17.576,17.576,0,0,0,6.85-1.354,16.559,16.559,0,0,0,5.571-3.76,19.139,19.139,0,0,0,3.764-5.64,17.1,17.1,0,0,0,1.43-6.994,16.732,16.732,0,0,0-1.43-6.844,19.139,19.139,0,0,0-3.764-5.64,16.559,16.559,0,0,0-5.571-3.76,17.576,17.576,0,0,0-6.85-1.354,17.576,17.576,0,0,0-6.85,1.354,16.559,16.559,0,0,0-5.571,3.76,19.442,19.442,0,0,0-3.764,5.565A16.216,16.216,0,0,0,66.428-38.615Zm-28.756-.3a37.516,37.516,0,0,1,3.463-16.019A39.349,39.349,0,0,1,50.77-67.87,45.825,45.825,0,0,1,65.45-76.519a53.022,53.022,0,0,1,18.594-3.159,53.728,53.728,0,0,1,18.443,3.083,45.663,45.663,0,0,1,14.755,8.573,38.462,38.462,0,0,1,9.711,13.086,39.956,39.956,0,0,1,3.463,16.771,39.231,39.231,0,0,1-3.538,16.771,39.81,39.81,0,0,1-9.711,13.086,43.5,43.5,0,0,1-14.83,8.5A56.734,56.734,0,0,1,83.592,3.2,54.291,54.291,0,0,1,65.224.191,42.4,42.4,0,0,1,50.7-8.382a39.782,39.782,0,0,1-9.56-13.311A41.735,41.735,0,0,1,37.672-38.916Zm105.39-37.9h27.251v9.777q5.571-6.768,11.292-9.1A35.357,35.357,0,0,1,195-78.474a33.505,33.505,0,0,1,13.927,2.632,27.771,27.771,0,0,1,9.861,7.445,21.386,21.386,0,0,1,4.517,8.724,45.393,45.393,0,0,1,1.2,10.98V.341H197.262V-38.615a41.9,41.9,0,0,0-.828-9.25,11.457,11.457,0,0,0-2.936-5.64,10.327,10.327,0,0,0-4.065-2.557,15.152,15.152,0,0,0-4.818-.752q-6.926,0-10.614,4.136t-3.689,11.807V.341H143.062Zm124.21-47.68V.341H240.021V-124.5ZM310.18-76.82V.341H282.929V-76.82Zm-29.058-29.631a14.794,14.794,0,0,1,1.2-5.941,15.6,15.6,0,0,1,3.312-4.888,15.619,15.619,0,0,1,4.893-3.309,14.833,14.833,0,0,1,5.947-1.2,14.834,14.834,0,0,1,5.947,1.2,15.619,15.619,0,0,1,4.893,3.309,15.6,15.6,0,0,1,3.312,4.888,14.794,14.794,0,0,1,1.2,5.941,14.794,14.794,0,0,1-1.2,5.941,15.6,15.6,0,0,1-3.312,4.888,15.619,15.619,0,0,1-4.893,3.309,14.833,14.833,0,0,1-5.947,1.2,14.833,14.833,0,0,1-5.947-1.2,15.619,15.619,0,0,1-4.893-3.309,15.6,15.6,0,0,1-3.312-4.888A14.794,14.794,0,0,1,281.123-106.451ZM325.838-76.82h27.251v9.777q5.571-6.768,11.292-9.1a35.357,35.357,0,0,1,13.4-2.331,33.506,33.506,0,0,1,13.927,2.632,27.771,27.771,0,0,1,9.861,7.445,21.386,21.386,0,0,1,4.517,8.724,45.4,45.4,0,0,1,1.2,10.98V.341H380.039V-38.615a41.9,41.9,0,0,0-.828-9.25,11.458,11.458,0,0,0-2.936-5.64,10.328,10.328,0,0,0-4.065-2.557,15.152,15.152,0,0,0-4.818-.752q-6.926,0-10.614,4.136t-3.689,11.807V.341H325.838ZM479.256-49.445a16.376,16.376,0,0,0-5.571-9.175,15.615,15.615,0,0,0-10.238-3.459,15.619,15.619,0,0,0-10.313,3.309,14.975,14.975,0,0,0-5.044,9.326ZM447.338-33.652q0,17.6,16.561,17.6,8.883,0,13.4-7.22h26.347Q495.667,3.2,463.749,3.2A52.461,52.461,0,0,1,445.832.266a40,40,0,0,1-13.927-8.348,37.206,37.206,0,0,1-8.958-12.935,43.076,43.076,0,0,1-3.162-16.846A47.618,47.618,0,0,1,422.8-55.236,36.534,36.534,0,0,1,431.379-68.4a38.028,38.028,0,0,1,13.475-8.348,51.014,51.014,0,0,1,17.841-2.933,49.922,49.922,0,0,1,17.615,2.933,35.658,35.658,0,0,1,13.249,8.5,36.924,36.924,0,0,1,8.281,13.612A53.873,53.873,0,0,1,504.7-36.509v2.858Z" transform="translate(495.3 124.5)"/></svg>