<svg xmlns="http://www.w3.org/2000/svg" width="458" height="500" viewBox="0 0 458 500"><defs><style>.a,.c{fill:#d6d8e5;}.a{opacity:0.4;}.b{fill:#b1b4c4;}.d{fill:#9ea1af;}.e{fill:#e4e7f2;}.f{fill:#fff;}.g{fill:#e9eaf2;}.h{fill:#dadce5;}.i{fill:#232733;}.j{fill:#8c50ff;}.k{fill:#353c4c;}.l{fill:#2b303f;}.m{fill:#e7e9f2;}.n{fill:#f7dc6b;}.o{fill:#7c4cf2;}.p{fill:#b1b6c4;}.q{fill:#c4c7d6;}.r{fill:#38226d;}.s{fill:#9c73ff;}.t{fill:#ffcea9;}.u{fill:#ededed;}.v{fill:#e5e5e5;}.w{fill:#f4f4f4;}.x{fill:#bfbfbf;}.y{fill:#3a2c6d;}.z{fill:#dceeff;}.aa{fill:#dbdbdb;}.ab{fill:#1e3779;}.ac{fill:#031f60;}.ad{fill:#edf0f9;}.ae{fill:#e2e5f2;}.af{fill:#6e48e5;}</style></defs><path class="a" d="M310.52,385.65,262.7,358c-3.45-2-3-5.47,1-7.77l31-17.89L355,367.21,324,385.1C320,387.39,314,387.64,310.52,385.65Z"/><path class="b" d="M314.84,383.12,267,355.51c-3.44-2-3-5.47,1-7.77l31-17.89,60.32,34.83-31,17.89C324.31,384.86,318.29,385.11,314.84,383.12Z"/><path class="b" d="M359.28,364.68v-1.83l-2.79,1.61Z"/><path class="b" d="M264.69,352.22v-1.86l2.86,1.19Z"/><path class="c" d="M314.84,381.3,267,353.68c-3.44-2-3-5.46,1-7.76L299,328l60.32,34.82-31,17.89C324.31,383,318.29,383.29,314.84,381.3Z"/><path class="d" d="M299.13,328.11l-7.47-24.76,60.97,34.97,6.65,24.53Z"/><path class="d" d="M357.51,363.87l1.77-1-2.63-2.1Z"/><path class="b" d="M297.2,329.04l-7.46-24.76,60.97,34.97,6.8,24.62Z"/><path class="b" d="M452,405.61,216,269.35c-3.31-1.91-6-7-6-11.46V75.33c0-4.41,2.68-6.44,6-4.53L452,207.06c3.31,1.91,6,7,6,11.45V401.08C458,405.49,455.29,407.52,452,405.61Z"/><path class="b" d="M453.19,407.49l2.62-1.51-1.13-7.75Z"/><path class="b" d="M209.55,71.93l2.58-1.49,3.7,2.11s-3.94.6-4,.58S209.55,71.93,209.55,71.93Z"/><path class="e" d="M449.82,406.86l-236-136.26c-3.31-1.91-6-7-6-11.46V76.58c0-4.41,2.69-6.44,6-4.53l236,136.26c3.31,1.91,6,7,6,11.45V402.33C455.81,406.74,453.13,408.77,449.82,406.86Z"/><path class="c" d="M449.4,407.09l-236-136.26c-3.31-1.91-6-7-6-11.45V76.82c0-4.41,2.68-6.44,6-4.53l236,136.26c3.31,1.91,6,7,6,11.45V402.56C455.4,407,452.71,409,449.4,407.09Z"/><path class="f" d="M452.15,396,210.39,256.42l.13-178.87c0-1.83,1.29-2.57,2.87-1.66l236,136.26a6.35,6.35,0,0,1,2.87,5Z"/><path class="g" d="M437.18,240.5,222.88,116.78a5.85,5.85,0,0,1-2.44-4.66V96.65c0-1.79,1.09-2.62,2.44-1.84l214.3,123.72a5.85,5.85,0,0,1,2.44,4.67v15.46C439.62,240.46,438.53,241.28,437.18,240.5Z"/><path class="g" d="M426,281.91l-50.37-29.08a5.85,5.85,0,0,1-2.44-4.66V215.66c0-1.8,1.09-2.62,2.44-1.84L426,242.9a5.83,5.83,0,0,1,2.44,4.66v32.51C428.4,281.86,427.31,282.69,426,281.91Z"/><path class="g" d="M359.61,292.47l-126.36-73a2.9,2.9,0,0,1-1.22-2.33v-5.59c0-.9.54-1.32,1.22-.93l126.36,73a2.93,2.93,0,0,1,1.22,2.33v5.6C360.83,292.44,360.28,292.86,359.61,292.47Z"/><path class="g" d="M347.17,298.53,233.61,233a2.94,2.94,0,0,1-1.22-2.33v-2.79c0-.9.55-1.31,1.22-.92l113.56,65.56a2.93,2.93,0,0,1,1.22,2.33v2.78C348.39,298.5,347.84,298.92,347.17,298.53Z"/><path class="g" d="M347.17,309.09,233.61,243.53a2.93,2.93,0,0,1-1.22-2.33v-2.79c0-.89.55-1.31,1.22-.92l113.56,65.56a2.93,2.93,0,0,1,1.22,2.33v2.79C348.39,309.07,347.84,309.48,347.17,309.09Z"/><path class="g" d="M318.14,302.89l-84.53-48.8a2.93,2.93,0,0,1-1.22-2.33V249c0-.9.55-1.31,1.22-.93l84.53,48.8a3,3,0,0,1,1.22,2.34V302C319.36,302.87,318.81,303.28,318.14,302.89Z"/><path class="g" d="M427.18,295.43l-52.81-30.49a2.9,2.9,0,0,1-1.22-2.33v-2.79c0-.9.54-1.31,1.22-.92l52.81,30.49a2.93,2.93,0,0,1,1.22,2.33v2.79C428.4,295.41,427.85,295.82,427.18,295.43Z"/><path class="g" d="M427.18,306l-52.81-30.5a2.9,2.9,0,0,1-1.22-2.33v-2.78c0-.9.54-1.32,1.22-.93L427.18,300a2.91,2.91,0,0,1,1.22,2.33v2.78C428.4,306,427.85,306.38,427.18,306Z"/><path class="g" d="M413.35,308.57l-39-22.51a2.9,2.9,0,0,1-1.22-2.33V281c0-.9.54-1.31,1.22-.92l39,22.5a2.92,2.92,0,0,1,1.22,2.33v2.79C414.57,308.55,414,309,413.35,308.57Z"/><path class="g" d="M426,363.31l-50.37-29.08a5.85,5.85,0,0,1-2.44-4.66V297.06c0-1.79,1.09-2.62,2.44-1.84L426,324.3a5.85,5.85,0,0,1,2.4,4.7v32.51C428.4,363.26,427.31,364.09,426,363.31Z"/><path class="g" d="M427.18,376.83l-52.81-30.49a2.9,2.9,0,0,1-1.22-2.33v-2.78c0-.9.54-1.32,1.22-.93l52.81,30.49a3,3,0,0,1,1.22,2.34v2.78C428.4,376.81,427.85,377.22,427.18,376.83Z"/><ellipse class="h" cx="3.83" cy="6.64" rx="3.83" ry="6.64" transform="translate(223.625 106.151) rotate(-30)"/><path class="h" d="M341.68,176.35l-18.54-10.7a1.47,1.47,0,0,1-.61-1.17V162c0-.45.27-.66.61-.46l18.54,10.7a1.43,1.43,0,0,1,.61,1.16v2.46C342.29,176.34,342,176.55,341.68,176.35Z"/><path class="h" d="M371.68,193.68,353.14,183a1.46,1.46,0,0,1-.61-1.16v-2.46c0-.45.28-.66.61-.46l18.54,10.7a1.47,1.47,0,0,1,.61,1.17v2.46C372.29,193.66,372,193.87,371.68,193.68Z"/><path class="h" d="M401.2,210.72,382.66,200a1.43,1.43,0,0,1-.61-1.16v-2.46c0-.45.27-.65.61-.46l18.54,10.7a1.47,1.47,0,0,1,.61,1.17v2.46C401.81,210.71,401.54,210.91,401.2,210.72Z"/><path class="h" d="M431.2,228l-18.53-10.7a1.47,1.47,0,0,1-.61-1.17v-2.46c0-.45.27-.65.61-.46L431.2,224a1.43,1.43,0,0,1,.61,1.16v2.46C431.81,228,431.54,228.24,431.2,228Z"/><path class="h" d="M390.28,246.91l-3.54-9.11-6.43,9.16,7.06,4.08,5.81,3.35,12.95,7.48-9.38-24.17Z"/><ellipse class="h" cx="3.462" cy="5.991" rx="3.462" ry="5.991" transform="translate(412.04 244.853) rotate(-29.887)"/><path class="h" d="M390.64,329.51l-3.53-9.11-6.44,9.16,7.07,4.08,5.81,3.35,12.95,7.48-9.38-24.17Z"/><ellipse class="h" cx="3.45" cy="5.97" rx="3.45" ry="5.97" transform="translate(410.772 326.504) rotate(-30)"/><path class="i" d="M271.68,205.33,267,224.07V208.03Z"/><path class="i" d="M217.17,173.56l-4.68,18.75V176.27Z"/><path class="g" d="M294.14,289.83,182.72,225.5a5.23,5.23,0,0,1-2.18-4.18v-57c0-1.61,1-2.35,2.18-1.65L294.14,227a5.21,5.21,0,0,1,2.19,4.17v57.05C296.33,289.79,295.35,290.53,294.14,289.83Z"/><path class="j" d="M213.73,223l-6.04-15.57-11,15.65,12.08,6.98,9.92,5.73,22.15,12.79L224.8,207.25Z"/><ellipse class="j" cx="5.89" cy="10.21" rx="5.89" ry="10.21" transform="translate(260.643 225.05) rotate(-30)"/><path class="k" d="M264.95,201.44l-.01-21.38-6.06-4.55v25.93l-6.74,3.89,9.77,5.64,9.77-5.64Z"/><path class="i" d="M261.91,210.97l5.09,13.1V208.03Z"/><path class="l" d="M252.14,205.33l4.33,12.58L267,224.07l-5.09-13.1Z"/><path class="k" d="M210.43,169.68V143.74h-6.06v25.93l-6.74,3.89,9.77,5.65,9.77-5.65Z"/><path class="i" d="M207.4,179.21l5.09,13.1V176.27Z"/><path class="l" d="M197.63,173.56l4.33,12.58,10.53,6.17-5.09-13.1Z"/><path class="a" d="M143.77,290.74,83.41,255.72,10.68,297.71l65.07,37.74,72.74-41.99v-5.44Z"/><path class="b" d="M151.43,286.02,83.41,246.75,15.39,286.02l-4.71-2.72v5.44l72.73,42,72.73-42V283.3Z"/><path class="m" d="M83.41,325.29,10.68,283.3l72.73-41.99,72.73,41.99Z"/><path class="b" d="M83.18,267.75l4.75-2.74V62.2l-4.75,2.74Z"/><path class="b" d="M83.56,147.69l33.21,52.56,4.75-1.94L87.93,145.23Z"/><path class="c" d="M83.36,157.04l33.23,52.82v-9.88L83.36,147.35Z"/><path class="c" d="M78.61,265.01l4.75,2.74V64.94L78.61,62.2Z"/><path class="c" d="M116.59,286.94l4.75,2.74V86.87l-4.75-2.74Z"/><path class="b" d="M121.16,289.68l4.75-2.74V84.13l-4.75,2.74Z"/><path class="c" d="M83.36,253.13l33.23-39.79V203.8L83.36,243.65Z"/><path class="b" d="M83.36,253.13l4.57-2.5,28.66-34.55V212.6Z"/><path class="c" d="M83.36,147.69l33.23-39.79V98.36L83.36,138.21Z"/><path class="b" d="M83.36,147.69l4.57-2.51,28.66-34.54v-3.48Z"/><path class="b" d="M45.48,289.65l4.75-2.74V84.1l-4.75,2.74Z"/><path class="b" d="M45.86,169.59l33.21,52.55,4.75-1.93L50.23,167.13Z"/><path class="c" d="M45.66,178.94l33.23,52.81v-9.87L45.66,169.24Z"/><path class="c" d="M40.92,286.91l4.74,2.74V86.84L40.92,84.1Z"/><path class="c" d="M78.89,308.83l4.75,2.74V108.77l-4.75-2.75Z"/><path class="b" d="M83.46,311.57l4.75-2.74V106.02l-4.75,2.75Z"/><path class="c" d="M45.66,275.03l33.23-39.79v-9.55L45.66,265.55Z"/><path class="b" d="M45.66,275.03l4.57-2.51,28.66-34.54v-3.49Z"/><path class="c" d="M45.66,169.59,78.89,129.8v-9.55L45.66,160.1Z"/><path class="b" d="M45.66,169.59l4.57-2.51,28.66-34.55v-3.48Z"/><path class="n" d="M83.64,119.04,34.61,90.73l49.03-28.3,49.03,28.3Z"/><path class="k" d="M79.99,37.91,21.86,71.47,5.22,61.86,63.35,28.3Z"/><path class="l" d="M5.22,75.32V61.86l16.64,9.61V84.93Z"/><path class="i" d="M21.86,84.93,79.99,51.37V37.91L21.86,71.47V83.62"/><path class="k" d="M79.99,22.81,21.86,56.37,5.22,46.76,63.35,13.2Z"/><path class="l" d="M5.22,60.23V46.76l16.64,9.61V69.84Z"/><path class="i" d="M21.86,69.84,79.99,36.28V22.81L21.86,56.37V68.53"/><path class="c" d="M36.05,64.55,0,43.87V36.33L36.05,56.88Z"/><path class="m" d="M88.21,86.82,0,36.33l6.53-3.77L94.74,83.05Z"/><path class="c" d="M75.71,52.63,30.42,26.43V18.88L75.71,43.15Z"/><path class="m" d="M110.06,64.09,30.42,18.89l6.53-3.77,79.64,45.2Z"/><path class="c" d="M54.55,32.8v7.54l3.1,21.71,4.6,2.86Z"/><path class="m" d="M68.18,68.13l-5.96-30.9L54.55,32.8,59.2,63.25Z"/><path class="b" d="M54.55,40.34,30.76,46.61,18.54,39.55l34.97-7.37,1.04.62Z"/><path class="m" d="M54.55,32.8,21.42,41.22,14.3,37.11l33.39-8.53Z"/><path class="m" d="M83.64,56.62,34.61,28.31,83.64,0l49.03,28.31Z"/><path class="c" d="M34.61,115.73V28.31L83.64,56.62v87.42Z"/><path class="b" d="M132.67,28.31v87.42L83.64,144.04V56.61Z"/><path class="j" d="M83.64,87.07,55.49,70.82l-9.05-28.8L83.64,63.5Z"/><path class="o" d="M132.67,35.19V58.76L83.64,87.08V63.51Z"/><path class="c" d="M302.27,219.27,90.12,96.78V89.24L302.27,211.73Z"/><path class="m" d="M302.27,211.73,90.12,89.25l6.53-3.77L308.8,207.96Z"/><path class="c" d="M332.69,201.83,120.54,79.34V71.8L332.69,194.29Z"/><path class="m" d="M332.69,194.29,120.54,71.8l6.53-3.77L339.22,190.52Z"/><path class="b" d="M339.22,198.08l-36.95,21.19v-7.55l36.95-21.18Z"/><path class="m" d="M339.22,190.54l-36.93,21.19-5.53-3.19,36.93-21.19Z"/><path class="b" d="M306.1,186.46l-23.8,6.27-12.22-7.06,34.97-7.37,1.05.62Z"/><path class="m" d="M306.1,178.92l-33.13,8.42-7.12-4.12,33.38-8.52Z"/><path class="c" d="M252.41,147.96v7.54l3.1,21.71,4.6,2.85Z"/><path class="m" d="M266.04,183.29l-5.96-30.9-7.67-4.43,4.66,30.45Z"/><path class="b" d="M252.41,155.5l-23.79,6.27-12.22-7.06,34.97-7.37,1.04.62Z"/><path class="m" d="M252.41,147.96l-33.12,8.42-7.12-4.11,33.38-8.53Z"/><path class="c" d="M198.54,116.83v7.54l3.09,21.71,4.61,2.86Z"/><path class="m" d="M212.17,152.16l-5.96-30.9-7.67-4.43,4.65,30.45Z"/><path class="b" d="M198.54,124.37l-23.79,6.27-12.22-7.06,34.97-7.37,1.04.62Z"/><path class="m" d="M198.54,116.83l-33.13,8.42-7.12-4.11,33.39-8.53Z"/><path class="c" d="M144.67,85.72v7.54l3.09,21.71,4.61,2.85Z"/><path class="m" d="M158.29,121.05l-5.95-30.9-7.67-4.43,4.65,30.45Z"/><path class="b" d="M144.67,93.26l-23.79,6.27-12.22-7.06,34.97-7.37,1.04.62Z"/><path class="m" d="M144.67,85.72l-33.13,8.42-7.12-4.11L137.8,81.5Z"/><path class="a" d="M94.17,500,66.35,484.08l41.64-23.83,27.82,15.91Z"/><path class="c" d="M94.75,467.91,71.71,454.6l23.04-13.3,23.04,13.31Z"/><path class="p" d="M94.75,494.52,71.71,481.21V454.6l23.04,13.31Z"/><path class="q" d="M117.79,481.21,94.75,494.52V467.91l23.04-13.31Z"/><path class="r" d="M125.72,472.84a7.83,7.83,0,0,0,5.93-.72c1.43,0,9.19-3.28,10.25-.49.92,2.45-2.44,4.71-4.24,5.14-3.92,1-6.82,2.91-8.39,3.24-1.17.25-2.69.41-3.63-.51C124.52,478.39,124.62,474.3,125.72,472.84Z"/><path class="s" d="M129.27,479.33c1.57-.33,4.47-2.28,8.39-3.23,1.51-.37,4.1-2,4.36-4,.35,2.25-2.68,4.25-4.36,4.65-3.92,1-6.82,2.91-8.39,3.24-1.17.25-2.69.41-3.63-.51a2.45,2.45,0,0,1-.51-.94,4.69,4.69,0,0,0,4.14.79Z"/><path class="r" d="M111.72,465.39a7.85,7.85,0,0,0,5.94-.72c1.43,0,9.19-3.28,10.24-.49.93,2.45-2.43,4.71-4.23,5.14-3.92.95-6.82,2.91-8.4,3.24-1.17.25-2.69.41-3.62-.51C110.53,470.94,110.62,466.85,111.72,465.39Z"/><path class="s" d="M115.27,471.88c1.58-.33,4.48-2.28,8.4-3.23,1.5-.37,4.1-2,4.36-4,.35,2.25-2.69,4.25-4.36,4.65-3.92.95-6.82,2.91-8.4,3.24-1.17.25-2.69.41-3.62-.51a2.34,2.34,0,0,1-.52-.94,4.7,4.7,0,0,0,4.14.79Z"/><path class="j" d="M89.93,455.73c6,2.66,11.76,3.08,16.43.57l4.82-2.78c.29,6.22.56,12.2.56,12.2s3.7,2.8,6.58.3c0,0,.6-8.73,1.21-17.32l5.06-2.92a6,6,0,0,0-.2,1.4c0,1.64,1.17,25.9,1.17,25.9s3.73,2.22,6.61-.28c0,0,1.94-28.12,2.38-32.61.5-5.05-5.11-7.54-8.65-6.24-.83.29-2.86,1.05-5.43,2,.11-1.41.2-2.5.26-3.12.51-5.06-5.1-7.55-8.65-6.25C108.84,427.76,87,436,87,436a54.552,54.552,0,0,0,.77,6.25l-8.62-.72C78.63,449.6,83.89,453.07,89.93,455.73Zm15.07-14,5.77-3.33a6.71,6.71,0,0,0-.19,1.24Z"/><path class="t" d="M74.42,416.87s.71,10.73,2.12,12.28,6.17,2.6,6.17,2.6l3.66,6S83,418.6,82.3,418.14,74.42,416.87,74.42,416.87Z"/><path class="u" d="M81.47,405a4,4,0,0,0-5.1,1.54c-1.35,2.24-2.75,9.9-2.88,11.21,0,0,1.89,2.62,4.73,2.18Z"/><path class="t" d="M82.76,405.09c1.86.09,3.24.57,3.47,0a23.857,23.857,0,0,0,.42-2.89c-.21-.54-.4-1.12-.4-1.12-2.32-1.43-3.06-4-3.37-6.88-.52-5,2.19-9.4,7.2-9.92,4.71-.49,8.17,2.82,9.1,7.36.49,2.25,1.49,6.49.15,10.18-.75,2.06-1.72,3.7-2.68,4a23.243,23.243,0,0,1-2.79-.25h0s-.25,1.39-.42,2.28-.1,1.37,1.67,2.46-2.69,3.35-5.6,3.13-6.2-2-7.11-3.87C81.4,407.51,81.49,405,82.76,405.09Z"/><path class="v" d="M129.74,437.91h0a1.5,1.5,0,0,1-.75,1.31l-14.13,8.16a1.51,1.51,0,0,1-1.51,0L93.53,435.94a1.5,1.5,0,0,1-.75-1.3v-.12Z"/><path class="v" d="M129,439.22l-14.13,8.16a1.49,1.49,0,0,1-.76.2v-9.67h15.64a1.5,1.5,0,0,1-.75,1.31Z"/><path class="w" d="M114.63,446.64a1.06,1.06,0,0,1-1.06,0L93,434.75c-.27-.15-.27-.4,0-.55l15.16-8.76,21.6,12.47Z"/><path class="x" d="M101.44,437.91l.1.06,6.6,3.81,3.62-2.09.11-.06-6.71-3.87Z"/><path class="v" d="M101.54,437.97l6.6,3.81,3.62-2.09-6.6-3.81Z"/><path class="y" d="M124.14,438.53l1,.55a.35.35,0,0,0,.3,0l.91-.53c.09-.05.1-.13,0-.17l-1-.55a.32.32,0,0,0-.3,0l-.91.52C124.08,438.41,124.07,438.48,124.14,438.53Z"/><path class="y" d="M122.8,437.75l1,.55a.32.32,0,0,0,.3,0l.91-.53c.09-.05.1-.13,0-.17l-1-.55a.32.32,0,0,0-.3,0l-.91.53C122.73,437.63,122.72,437.71,122.8,437.75Z"/><path class="y" d="M121.45,437l1,.55a.32.32,0,0,0,.3,0l.91-.52c.09-.06.1-.13,0-.18l-.95-.55a.35.35,0,0,0-.3,0l-.91.53C121.38,436.85,121.37,436.93,121.45,437Z"/><path class="y" d="M120.1,436.2l1,.55a.38.38,0,0,0,.31,0l.91-.52c.09,0,.1-.13,0-.18l-1-.55a.34.34,0,0,0-.31,0l-.91.52C120,436.07,120,436.15,120.1,436.2Z"/><path class="y" d="M118.75,435.42l1,.55a.32.32,0,0,0,.3,0l.91-.52c.09-.05.1-.13,0-.17l-1-.55a.34.34,0,0,0-.31,0l-.9.52A.1.1,0,0,0,118.75,435.42Z"/><path class="y" d="M117.41,434.64l1,.55a.35.35,0,0,0,.3,0l.91-.53c.09,0,.1-.13,0-.17l-1-.55a.32.32,0,0,0-.3,0l-.91.52C117.34,434.52,117.33,434.59,117.41,434.64Z"/><path class="y" d="M116.06,433.86l1,.55a.32.32,0,0,0,.3,0l.91-.53c.09-.05.1-.13,0-.17l-.95-.55a.32.32,0,0,0-.3,0l-.91.53C116,433.74,116,433.82,116.06,433.86Z"/><path class="y" d="M114.71,433.08l1,.55a.34.34,0,0,0,.31,0l.91-.52c.09-.06.09-.13,0-.18l-1-.55a.37.37,0,0,0-.31,0l-.91.53C114.64,433,114.63,433,114.71,433.08Z"/><path class="y" d="M113.36,432.31l1,.55a.36.36,0,0,0,.3,0l.91-.52c.09-.05.1-.13,0-.18l-1-.55a.34.34,0,0,0-.31,0l-.9.52A.107.107,0,0,0,113.36,432.31Z"/><path class="y" d="M112,431.53l1,.55a.32.32,0,0,0,.3,0l.91-.52c.09-.05.1-.13,0-.17l-1-.55a.32.32,0,0,0-.3,0l-.91.52C112,431.4,111.94,431.48,112,431.53Z"/><path class="y" d="M110.67,430.75l1,.55a.35.35,0,0,0,.3,0l.91-.53c.09-.05.1-.13,0-.17l-.95-.55a.32.32,0,0,0-.3,0l-.91.52C110.6,430.63,110.59,430.7,110.67,430.75Z"/><path class="y" d="M109.32,430l1,.55a.34.34,0,0,0,.31,0l.91-.53c.09-.05.09-.13,0-.17l-1-.55a.34.34,0,0,0-.31,0l-.91.53C109.25,429.85,109.24,429.93,109.32,430Z"/><path class="y" d="M108,429.19l1,.55a.32.32,0,0,0,.3,0l.91-.52c.09-.06.1-.13,0-.18l-1-.55a.37.37,0,0,0-.31,0l-.9.53C107.91,429.07,107.9,429.15,108,429.19Z"/><path class="y" d="M106,428l1.6.93a.35.35,0,0,0,.3,0l.91-.52c.09-.05.1-.13,0-.18l-1.6-.92a.32.32,0,0,0-.3,0l-.91.53C105.91,427.92,105.9,428,106,428Z"/><path class="y" d="M120.84,438.13l1,.55a.35.35,0,0,0,.3,0l.91-.53c.09-.05.1-.13,0-.17l-1-.55a.32.32,0,0,0-.3,0l-.91.52A.1.1,0,0,0,120.84,438.13Z"/><path class="y" d="M119.49,437.35l1,.55a.37.37,0,0,0,.31,0l.9-.53c.09-.05.1-.13,0-.17l-1-.55a.32.32,0,0,0-.3,0l-.91.53C119.42,437.23,119.41,437.31,119.49,437.35Z"/><path class="y" d="M118.14,436.57l1,.55a.34.34,0,0,0,.31,0l.9-.53c.09-.05.1-.13,0-.17l-1-.55a.32.32,0,0,0-.3,0l-.91.53C118.07,436.45,118.06,436.53,118.14,436.57Z"/><path class="y" d="M116.79,435.79l.95.55a.34.34,0,0,0,.31,0l.9-.53c.09-.05.1-.13,0-.17l-1-.55a.32.32,0,0,0-.3,0l-.91.53A.124.124,0,0,0,116.79,435.79Z"/><path class="y" d="M115.45,435l1,.55a.37.37,0,0,0,.31,0l.9-.53c.09,0,.1-.13,0-.17l-1-.55a.32.32,0,0,0-.3,0l-.91.52C115.38,434.9,115.37,435,115.45,435Z"/><path class="y" d="M114.1,434.24l1,.55a.37.37,0,0,0,.31,0l.9-.53c.09-.05.1-.13,0-.17l-1-.55a.32.32,0,0,0-.3,0l-.91.52C114,434.12,114,434.19,114.1,434.24Z"/><path class="y" d="M112.75,433.46l1,.55a.37.37,0,0,0,.31,0l.9-.53c.09-.05.1-.13,0-.17l-1-.55a.32.32,0,0,0-.3,0l-.91.52C112.68,433.34,112.67,433.41,112.75,433.46Z"/><path class="y" d="M111.4,432.68l.95.55a.37.37,0,0,0,.31,0l.91-.53c.08-.05.09-.13,0-.17l-1-.55a.32.32,0,0,0-.3,0l-.91.53A.113.113,0,0,0,111.4,432.68Z"/><path class="y" d="M110.05,431.9l1,.55a.34.34,0,0,0,.31,0l.91-.53c.08-.05.09-.13,0-.17l-.95-.55a.34.34,0,0,0-.31,0l-.91.53C110,431.78,110,431.86,110.05,431.9Z"/><path class="y" d="M108.7,431.12l1,.55a.34.34,0,0,0,.31,0l.91-.53c.09-.05.09-.13,0-.17l-1-.55a.37.37,0,0,0-.31,0l-.91.53C108.63,431,108.62,431.08,108.7,431.12Z"/><path class="y" d="M107.35,430.34l1,.55a.34.34,0,0,0,.31,0l.91-.52c.09-.06.09-.14,0-.18l-1-.55a.37.37,0,0,0-.31,0l-.91.53C107.28,430.22,107.27,430.3,107.35,430.34Z"/><path class="y" d="M106,429.56l1,.55a.34.34,0,0,0,.31,0l.91-.52c.09-.06.1-.13,0-.18l-1-.55a.37.37,0,0,0-.31,0l-.91.53C105.93,429.44,105.92,429.52,106,429.56Z"/><path class="y" d="M122.19,438.91l1.6.92a.32.32,0,0,0,.3,0l.91-.52c.09-.06.1-.13,0-.18l-1.6-.92a.32.32,0,0,0-.3,0l-.91.52C122.12,438.79,122.11,438.86,122.19,438.91Z"/><path class="y" d="M105.89,428.08l1,.55a.08.08,0,0,1,0,.16l-1,.56a.34.34,0,0,1-.28,0l-.08-.05a.3.3,0,0,0-.26,0l-1,.59a.34.34,0,0,1-.28,0l-.61-.35c-.08-.05-.08-.12,0-.16l1-.55.2-.11.14-.09.14-.08.82-.47a.28.28,0,0,1,.21,0Z"/><path class="y" d="M118.92,441.54l1,.55a.32.32,0,0,0,.3,0l.91-.52c.09-.06.1-.13,0-.18l-.95-.55a.35.35,0,0,0-.3,0l-.91.53C118.85,441.42,118.84,441.5,118.92,441.54Z"/><path class="y" d="M117.57,440.77l1,.55a.34.34,0,0,0,.31,0l.9-.52c.09,0,.1-.13,0-.18l-1-.54a.32.32,0,0,0-.3,0l-.91.52A.092.092,0,0,0,117.57,440.77Z"/><path class="y" d="M116.23,440l1,.55a.32.32,0,0,0,.3,0l.91-.53c.09-.05.1-.13,0-.17l-1-.55a.32.32,0,0,0-.3,0l-.91.53C116.16,439.87,116.15,440,116.23,440Z"/><path class="y" d="M104.78,433.38l1,.55a.32.32,0,0,0,.3,0l.91-.52c.09,0,.1-.13,0-.18l-1-.55a.34.34,0,0,0-.31,0l-.9.52C104.72,433.26,104.71,433.34,104.78,433.38Z"/><path class="y" d="M103.44,432.61l1,.55a.37.37,0,0,0,.31,0l.9-.53c.09-.05.1-.13,0-.17l-1-.55a.32.32,0,0,0-.3,0l-.91.52C103.37,432.49,103.36,432.56,103.44,432.61Z"/><path class="y" d="M102.1,431.83l1,.55a.32.32,0,0,0,.3,0l.91-.52c.09-.06.1-.13,0-.18l-1-.55a.35.35,0,0,0-.3,0l-.91.53C102,431.71,102,431.79,102.1,431.83Z"/><path class="y" d="M100.75,431.06l1,.55a.32.32,0,0,0,.3,0l.91-.52c.09-.05.1-.13,0-.18l-1-.54a.34.34,0,0,0-.31,0l-.9.52A.1.1,0,0,0,100.75,431.06Z"/><path class="y" d="M114.54,439l1.3.74a.32.32,0,0,0,.3,0l.91-.52c.09-.05.1-.13,0-.18l-1.3-.75a.32.32,0,0,0-.3,0l-.91.52C114.47,438.89,114.46,439,114.54,439Z"/><path class="y" d="M106.13,434.16l1.3.75a.35.35,0,0,0,.3,0l.91-.53c.09-.05.1-.13,0-.17l-1.3-.75a.32.32,0,0,0-.3,0l-.91.53C106.06,434,106.05,434.12,106.13,434.16Z"/><path class="y" d="M107.82,435.14l6.33,3.65a.35.35,0,0,0,.3,0l.91-.53c.09-.05.1-.13,0-.17l-6.33-3.66a.32.32,0,0,0-.3,0l-.91.52A.108.108,0,0,0,107.82,435.14Z"/><path class="y" d="M119.17,438.67l1,.55a.32.32,0,0,0,.3,0l.91-.53c.09-.05.1-.13,0-.17l-.95-.55a.35.35,0,0,0-.3,0l-.91.53C119.1,438.55,119.09,438.63,119.17,438.67Z"/><path class="y" d="M117.82,437.89l1,.55a.34.34,0,0,0,.31,0l.9-.52c.09-.05.1-.13,0-.18l-1-.55a.32.32,0,0,0-.3,0l-.91.52C117.75,437.77,117.74,437.85,117.82,437.89Z"/><path class="y" d="M116.48,437.12l1,.55a.32.32,0,0,0,.3,0l.91-.52c.09-.05.1-.13,0-.17l-1-.55a.32.32,0,0,0-.3,0l-.91.52C116.41,437,116.4,437.07,116.48,437.12Z"/><path class="y" d="M115.13,436.34l1,.55a.32.32,0,0,0,.3,0l.91-.53c.09-.05.1-.13,0-.17l-1-.55a.32.32,0,0,0-.3,0l-.91.53C115.06,436.22,115.05,436.3,115.13,436.34Z"/><path class="y" d="M113.78,435.56l1,.55a.32.32,0,0,0,.3,0l.91-.52c.09-.06.1-.13,0-.18l-1-.55a.37.37,0,0,0-.31,0l-.91.53A.1.1,0,0,0,113.78,435.56Z"/><path class="y" d="M112.44,434.79l1,.55a.32.32,0,0,0,.3,0l.91-.52c.09-.05.1-.13,0-.18l-1-.55a.35.35,0,0,0-.3,0l-.91.52A.1.1,0,0,0,112.44,434.79Z"/><path class="y" d="M111.09,434l1,.55a.37.37,0,0,0,.31,0l.9-.53c.09,0,.1-.13,0-.17l-1-.55a.32.32,0,0,0-.3,0l-.91.52C111,433.89,111,434,111.09,434Z"/><path class="y" d="M109.75,433.23l1,.55a.32.32,0,0,0,.3,0l.91-.53c.09-.05.1-.13,0-.17l-1-.55a.35.35,0,0,0-.3,0l-.91.53C109.68,433.11,109.67,433.19,109.75,433.23Z"/><path class="y" d="M108.4,432.45l.95.55a.32.32,0,0,0,.3,0l.91-.52c.09-.05.1-.13,0-.18l-1-.55a.32.32,0,0,0-.3,0l-.91.52C108.33,432.33,108.32,432.41,108.4,432.45Z"/><path class="y" d="M107.05,431.68l1,.55a.34.34,0,0,0,.31,0l.91-.52c.09-.05.1-.13,0-.17l-.95-.55a.34.34,0,0,0-.31,0l-.91.52C107,431.55,107,431.63,107.05,431.68Z"/><path class="y" d="M105.71,430.9l1,.55a.32.32,0,0,0,.3,0l.91-.53c.09-.05.1-.13,0-.17l-1-.55a.32.32,0,0,0-.3,0l-.91.53C105.64,430.78,105.63,430.86,105.71,430.9Z"/><path class="y" d="M104.36,430.12l1,.55a.34.34,0,0,0,.31,0l.9-.52c.09-.06.1-.13,0-.18l-1-.55a.35.35,0,0,0-.3,0l-.91.53C104.29,430,104.28,430.08,104.36,430.12Z"/><path class="y" d="M120.51,439.45l2,1.14a.35.35,0,0,0,.3,0l.91-.52c.09-.05.1-.13,0-.18l-2-1.13a.34.34,0,0,0-.31,0l-.9.52A.1.1,0,0,0,120.51,439.45Z"/><path class="y" d="M118.53,439.81l1,.55a.32.32,0,0,0,.3,0l.91-.53c.09-.05.1-.13,0-.17l-.95-.55a.35.35,0,0,0-.3,0l-.91.53C118.46,439.69,118.45,439.77,118.53,439.81Z"/><path class="y" d="M117.18,439l1,.55a.32.32,0,0,0,.3,0l.91-.52c.09-.05.1-.13,0-.18l-1-.55a.34.34,0,0,0-.31,0l-.9.52C117.12,438.91,117.11,439,117.18,439Z"/><path class="y" d="M115.84,438.26l1,.55a.32.32,0,0,0,.3,0l.91-.52c.09,0,.1-.13,0-.17l-1-.55a.32.32,0,0,0-.3,0l-.91.52A.092.092,0,0,0,115.84,438.26Z"/><path class="y" d="M114.49,437.48l1,.55a.34.34,0,0,0,.31,0l.91-.53c.08-.05.09-.13,0-.17l-1-.55a.34.34,0,0,0-.31,0l-.91.53C114.42,437.36,114.41,437.44,114.49,437.48Z"/><path class="y" d="M113.15,436.7l.95.55a.32.32,0,0,0,.3,0l.91-.52c.09-.06.1-.13,0-.18l-1-.55a.35.35,0,0,0-.3,0l-.91.53A.124.124,0,0,0,113.15,436.7Z"/><path class="y" d="M111.8,435.93l1,.55a.34.34,0,0,0,.31,0l.9-.52c.09-.05.1-.13,0-.18l-1-.55a.36.36,0,0,0-.3,0l-.91.52A.1.1,0,0,0,111.8,435.93Z"/><path class="y" d="M110.45,435.15l1,.55a.35.35,0,0,0,.3,0l.91-.53c.09-.05.1-.13,0-.17l-1-.55a.34.34,0,0,0-.31,0l-.9.52A.107.107,0,0,0,110.45,435.15Z"/><path class="y" d="M109.11,434.37l1,.55a.32.32,0,0,0,.3,0l.91-.52c.09-.06.1-.13,0-.18l-1-.55a.35.35,0,0,0-.3,0l-.91.53C109,434.25,109,434.33,109.11,434.37Z"/><path class="y" d="M107.76,433.6l.95.55a.38.38,0,0,0,.31,0l.91-.52c.09-.05.1-.13,0-.18l-1-.55a.34.34,0,0,0-.31,0l-.91.52A.164.164,0,0,0,107.76,433.6Z"/><path class="y" d="M106.42,432.82l1,.55a.35.35,0,0,0,.3,0l.91-.53c.09-.05.1-.13,0-.17l-.95-.55a.32.32,0,0,0-.3,0l-.91.52C106.35,432.7,106.34,432.77,106.42,432.82Z"/><path class="y" d="M105.07,432l1,.55a.34.34,0,0,0,.31,0l.9-.53c.09-.05.1-.13,0-.17l-1-.55a.35.35,0,0,0-.3,0l-.91.53C105,431.92,105,432,105.07,432Z"/><path class="y" d="M102.06,430.3l2.62,1.51a.32.32,0,0,0,.3,0l.91-.52c.09,0,.1-.13,0-.18l-2.62-1.51a.35.35,0,0,0-.3,0l-.91.53A.1.1,0,0,0,102.06,430.3Z"/><path class="y" d="M119.88,440.59l1.29.75a.37.37,0,0,0,.31,0l.9-.53c.09-.05.1-.13,0-.17l-1.3-.75a.32.32,0,0,0-.3,0l-.91.52C119.81,440.47,119.8,440.54,119.88,440.59Z"/><path class="v" d="M129.74,437.91h0l-21.6-12.47v-17l.17-.38.18-.09h0a1.52,1.52,0,0,1,1.49,0l19.76,11.42a1.48,1.48,0,0,1,.75,1.29v15.93C130.35,437.45,130.2,437.65,129.74,437.91Z"/><path class="v" d="M127.76,421.45,108.14,409v-.57l.17-.38.18-.09a1.52,1.52,0,0,1,1.49,0l19.76,11.42a1.44,1.44,0,0,1,.57.58Z"/><path class="z" d="M108.64,408.07l20.74,12a.71.71,0,0,1,.36.62v17.24l-21.6-12.47v-17.1a.33.33,0,0,1,.5-.29Z"/><path class="w" d="M108.64,408.07l20.74,12a.71.71,0,0,1,.36.62v17.24l-21.6-12.47v-17.1a.33.33,0,0,1,.5-.29Z"/><path class="aa" d="M129.74,437.91v-.61l-21.6-12.48v.62Z"/><path class="ab" d="M108.7,424.54V408.96l.27.15V424.4Z"/><path class="y" d="M108.97,409.11V424.4l20.08,11.57V420.71Z"/><path class="ac" d="M108.7,424.54l20.35,11.74v-.31L108.97,424.4Z"/><path class="w" d="M85.44,405.37c-.51,1.28.8,2.84,4.28,3.94s3.8-.31,3.8-.31a69.219,69.219,0,0,1,6.77,3.48c2.09,1.47,3,5.69,3.29,12.83.33,8.26.36,20.52.08,22.63,0,0-3.9,3.9-8.9,3.49s-13.41-4.84-15.45-8.25c0-7.25.9-8.43-.27-12.6-2.69-9.55-4.1-13.46-2.8-19.81,1.08-5.23,2.59-5.88,4.65-5.83a42.534,42.534,0,0,1,4.55.43Z"/><path class="t" d="M111.81,434.17c-4.11,1-5.07-1.55-5.61-3.7-1.3-5.18-2-9.87-3-12.81-1.15-3.47-2.35-4-4-4.7-2-.79-3.69.88-3,5.3a88.08,88.08,0,0,0,3.76,15.08c.51,1.62,1.66,4.49,3.37,5.87,2.12,1.71,5.3,1.64,10.13.44,2-.51,4.31-1.74,8.2-3.56,1-.48,1.86-.81,3.86-1.74a13.551,13.551,0,0,0,5.15-4c1.05-1.52,1.19-2.23,1-2.58s-.74-.34-1.3.3a11,11,0,0,1-3,2.73s1.3-1.33,2-2.2a10.5,10.5,0,0,0,1.55-2.54c.38-.89-.39-2.09-1-1.46s-.86,1.28-1.92,2.55a10.6,10.6,0,0,1-1.9,1.81,20.467,20.467,0,0,0,1.75-2.82,4.56,4.56,0,0,0,.64-2.54c0-.47-.68-1-1.3-.14a16.55,16.55,0,0,1-2.2,3.37c-.94,1-1.73,1.53-1.76,1.26s.57-.8.9-1.93,0-2.34-.62-2.47-.51-.09-1,1a29.891,29.891,0,0,0-1.86,3.39,7,7,0,0,1-1.69,2.9C117.94,432,115.71,433.19,111.81,434.17Z"/><path class="u" d="M97.67,412.25c2.74-.4,4.67.83,5.88,5s2.06,7.56,2.06,7.56a7.48,7.48,0,0,1-4.59,3c-3.28.79-4.46-.77-4.46-.77s-.91-4.36-1.47-7.32S94.28,412.75,97.67,412.25Z"/><path class="y" d="M99,391s4.33-6.58-5-7.92c-6.77-1-11.11,3.38-11.62,8.09-.48,4.51,2.3,9.19,4.3,11.05a8.25,8.25,0,0,0,5.85-.71,33,33,0,0,0,.13-3.69S89.33,390.88,99,391Z"/><path class="q" d="M117.79,474.26V454.5l-15.69,9.16,6.04,12.5Z"/><path class="c" d="M107.51,455.64l6.02-3.5,4.26,2.47-6.24,3.54Z"/><path class="a" d="M31.75,345.63,5,329.94c-3-1.78-2.66-4.89.85-6.94l13.6-8c3.51-2,8.81-2.27,11.85-.49L58.09,330.2c3,1.77,2.65,4.88-.85,6.94l-13.6,8C40.09,347.19,34.78,347.41,31.75,345.63Z"/><path class="c" d="M65,330.16V292.23L7.78,285.7v38.17h0a3.51,3.51,0,0,0,2,3.11L36.6,342.67c3,1.78,8.35,1.56,11.85-.5l13.6-8c2-1.16,3-2.65,2.9-4Z"/><path class="ad" d="M64.94,296.37v-4.14h-4.4L36.12,277.91c-3-1.78-8.35-1.55-11.85.5l-13.6,8a7.215,7.215,0,0,0-.71.46L7.78,285.7v4.52h0a3.53,3.53,0,0,0,2,3.1L36.6,309c3,1.78,8.35,1.55,11.85-.5l13.6-8c2-1.19,3-2.73,2.89-4.17Z"/><path class="ae" d="M36.6,304.5,9.82,288.81c-3-1.78-2.66-4.89.85-6.94l13.6-8c3.5-2,8.81-2.28,11.85-.5l26.79,15.69c3,1.78,2.65,4.89-.86,6.94l-13.6,8C45,306.05,39.64,306.28,36.6,304.5Z"/><path class="af" d="M30.57,283.08v-1.51h-.91l-.29-.18a6.3,6.3,0,0,0-5.79,0,2.93,2.93,0,0,0-.48.34l-.71-.16v1.51a2,2,0,0,0,1.19,1.7,6.36,6.36,0,0,0,5.79,0A2.08,2.08,0,0,0,30.57,283.08Z"/><ellipse class="j" cx="4.09" cy="2.4" rx="4.09" ry="2.4" transform="translate(22.39 279.17)"/><path class="af" d="M40.45,288.77v-1.51h-.91l-.28-.18a6.3,6.3,0,0,0-5.79,0,2.64,2.64,0,0,0-.49.34l-.71-.16v1.51a2.08,2.08,0,0,0,1.2,1.7,6.36,6.36,0,0,0,5.79,0A2,2,0,0,0,40.45,288.77Z"/><ellipse class="j" cx="4.09" cy="2.4" rx="4.09" ry="2.4" transform="translate(32.27 284.86)"/><path class="af" d="M50.35,294.85v-1.51h-.92l-.28-.18a6.3,6.3,0,0,0-5.79,0,3.228,3.228,0,0,0-.49.34l-.71-.16v1.51a2.06,2.06,0,0,0,1.2,1.7,6.3,6.3,0,0,0,5.79,0,2.06,2.06,0,0,0,1.2-1.7Z"/><ellipse class="j" cx="4.09" cy="2.4" rx="4.09" ry="2.4" transform="translate(42.16 290.94)"/></svg>