<svg xmlns="http://www.w3.org/2000/svg" width="130" height="255" viewBox="0 0 130 255"><defs><style>.a{fill:#fff;}</style></defs><g transform="translate(-1270 -150)"><g transform="translate(31 -292)"><rect class="a" width="5" height="1" transform="translate(1239 444)"/><rect class="a" width="1" height="5" transform="translate(1241 442)"/></g><g transform="translate(56 -292)"><rect class="a" width="5" height="1" transform="translate(1239 444)"/><rect class="a" width="1" height="5" transform="translate(1241 442)"/></g><g transform="translate(81 -292)"><rect class="a" width="5" height="1" transform="translate(1239 444)"/><rect class="a" width="1" height="5" transform="translate(1241 442)"/></g><g transform="translate(106 -292)"><rect class="a" width="5" height="1" transform="translate(1239 444)"/><rect class="a" width="1" height="5" transform="translate(1241 442)"/></g><g transform="translate(131 -292)"><rect class="a" width="5" height="1" transform="translate(1239 444)"/><rect class="a" width="1" height="5" transform="translate(1241 442)"/></g><g transform="translate(156 -292)"><rect class="a" width="5" height="1" transform="translate(1239 444)"/><rect class="a" width="1" height="5" transform="translate(1241 442)"/></g><g transform="translate(31 -267)"><rect class="a" width="5" height="1" transform="translate(1239 444)"/><rect class="a" width="1" height="5" transform="translate(1241 442)"/></g><g transform="translate(56 -267)"><rect class="a" width="5" height="1" transform="translate(1239 444)"/><rect class="a" width="1" height="5" transform="translate(1241 442)"/></g><g transform="translate(81 -267)"><rect class="a" width="5" height="1" transform="translate(1239 444)"/><rect class="a" width="1" height="5" transform="translate(1241 442)"/></g><g transform="translate(106 -267)"><rect class="a" width="5" height="1" transform="translate(1239 444)"/><rect class="a" width="1" height="5" transform="translate(1241 442)"/></g><g transform="translate(131 -267)"><rect class="a" width="5" height="1" transform="translate(1239 444)"/><rect class="a" width="1" height="5" transform="translate(1241 442)"/></g><g transform="translate(156 -267)"><rect class="a" width="5" height="1" transform="translate(1239 444)"/><rect class="a" width="1" height="5" transform="translate(1241 442)"/></g><g transform="translate(31 -242)"><rect class="a" width="5" height="1" transform="translate(1239 444)"/><rect class="a" width="1" height="5" transform="translate(1241 442)"/></g><g transform="translate(56 -242)"><rect class="a" width="5" height="1" transform="translate(1239 444)"/><rect class="a" width="1" height="5" transform="translate(1241 442)"/></g><g transform="translate(81 -242)"><rect class="a" width="5" height="1" transform="translate(1239 444)"/><rect class="a" width="1" height="5" transform="translate(1241 442)"/></g><g transform="translate(106 -242)"><rect class="a" width="5" height="1" transform="translate(1239 444)"/><rect class="a" width="1" height="5" transform="translate(1241 442)"/></g><g transform="translate(131 -242)"><rect class="a" width="5" height="1" transform="translate(1239 444)"/><rect class="a" width="1" height="5" transform="translate(1241 442)"/></g><g transform="translate(156 -242)"><rect class="a" width="5" height="1" transform="translate(1239 444)"/><rect class="a" width="1" height="5" transform="translate(1241 442)"/></g><g transform="translate(31 -217)"><rect class="a" width="5" height="1" transform="translate(1239 444)"/><rect class="a" width="1" height="5" transform="translate(1241 442)"/></g><g transform="translate(56 -217)"><rect class="a" width="5" height="1" transform="translate(1239 444)"/><rect class="a" width="1" height="5" transform="translate(1241 442)"/></g><g transform="translate(81 -217)"><rect class="a" width="5" height="1" transform="translate(1239 444)"/><rect class="a" width="1" height="5" transform="translate(1241 442)"/></g><g transform="translate(106 -217)"><rect class="a" width="5" height="1" transform="translate(1239 444)"/><rect class="a" width="1" height="5" transform="translate(1241 442)"/></g><g transform="translate(131 -217)"><rect class="a" width="5" height="1" transform="translate(1239 444)"/><rect class="a" width="1" height="5" transform="translate(1241 442)"/></g><g transform="translate(156 -217)"><rect class="a" width="5" height="1" transform="translate(1239 444)"/><rect class="a" width="1" height="5" transform="translate(1241 442)"/></g><g transform="translate(31 -192)"><rect class="a" width="5" height="1" transform="translate(1239 444)"/><rect class="a" width="1" height="5" transform="translate(1241 442)"/></g><g transform="translate(56 -192)"><rect class="a" width="5" height="1" transform="translate(1239 444)"/><rect class="a" width="1" height="5" transform="translate(1241 442)"/></g><g transform="translate(81 -192)"><rect class="a" width="5" height="1" transform="translate(1239 444)"/><rect class="a" width="1" height="5" transform="translate(1241 442)"/></g><g transform="translate(106 -192)"><rect class="a" width="5" height="1" transform="translate(1239 444)"/><rect class="a" width="1" height="5" transform="translate(1241 442)"/></g><g transform="translate(131 -192)"><rect class="a" width="5" height="1" transform="translate(1239 444)"/><rect class="a" width="1" height="5" transform="translate(1241 442)"/></g><g transform="translate(156 -192)"><rect class="a" width="5" height="1" transform="translate(1239 444)"/><rect class="a" width="1" height="5" transform="translate(1241 442)"/></g><g transform="translate(31 -167)"><rect class="a" width="5" height="1" transform="translate(1239 444)"/><rect class="a" width="1" height="5" transform="translate(1241 442)"/></g><g transform="translate(56 -167)"><rect class="a" width="5" height="1" transform="translate(1239 444)"/><rect class="a" width="1" height="5" transform="translate(1241 442)"/></g><g transform="translate(81 -167)"><rect class="a" width="5" height="1" transform="translate(1239 444)"/><rect class="a" width="1" height="5" transform="translate(1241 442)"/></g><g transform="translate(106 -167)"><rect class="a" width="5" height="1" transform="translate(1239 444)"/><rect class="a" width="1" height="5" transform="translate(1241 442)"/></g><g transform="translate(131 -167)"><rect class="a" width="5" height="1" transform="translate(1239 444)"/><rect class="a" width="1" height="5" transform="translate(1241 442)"/></g><g transform="translate(156 -167)"><rect class="a" width="5" height="1" transform="translate(1239 444)"/><rect class="a" width="1" height="5" transform="translate(1241 442)"/></g><g transform="translate(31 -142)"><rect class="a" width="5" height="1" transform="translate(1239 444)"/><rect class="a" width="1" height="5" transform="translate(1241 442)"/></g><g transform="translate(56 -142)"><rect class="a" width="5" height="1" transform="translate(1239 444)"/><rect class="a" width="1" height="5" transform="translate(1241 442)"/></g><g transform="translate(81 -142)"><rect class="a" width="5" height="1" transform="translate(1239 444)"/><rect class="a" width="1" height="5" transform="translate(1241 442)"/></g><g transform="translate(106 -142)"><rect class="a" width="5" height="1" transform="translate(1239 444)"/><rect class="a" width="1" height="5" transform="translate(1241 442)"/></g><g transform="translate(131 -142)"><rect class="a" width="5" height="1" transform="translate(1239 444)"/><rect class="a" width="1" height="5" transform="translate(1241 442)"/></g><g transform="translate(156 -142)"><rect class="a" width="5" height="1" transform="translate(1239 444)"/><rect class="a" width="1" height="5" transform="translate(1241 442)"/></g><g transform="translate(31 -117)"><rect class="a" width="5" height="1" transform="translate(1239 444)"/><rect class="a" width="1" height="5" transform="translate(1241 442)"/></g><g transform="translate(56 -117)"><rect class="a" width="5" height="1" transform="translate(1239 444)"/><rect class="a" width="1" height="5" transform="translate(1241 442)"/></g><g transform="translate(81 -117)"><rect class="a" width="5" height="1" transform="translate(1239 444)"/><rect class="a" width="1" height="5" transform="translate(1241 442)"/></g><g transform="translate(106 -117)"><rect class="a" width="5" height="1" transform="translate(1239 444)"/><rect class="a" width="1" height="5" transform="translate(1241 442)"/></g><g transform="translate(131 -117)"><rect class="a" width="5" height="1" transform="translate(1239 444)"/><rect class="a" width="1" height="5" transform="translate(1241 442)"/></g><g transform="translate(156 -117)"><rect class="a" width="5" height="1" transform="translate(1239 444)"/><rect class="a" width="1" height="5" transform="translate(1241 442)"/></g><g transform="translate(31 -92)"><rect class="a" width="5" height="1" transform="translate(1239 444)"/><rect class="a" width="1" height="5" transform="translate(1241 442)"/></g><g transform="translate(56 -92)"><rect class="a" width="5" height="1" transform="translate(1239 444)"/><rect class="a" width="1" height="5" transform="translate(1241 442)"/></g><g transform="translate(81 -92)"><rect class="a" width="5" height="1" transform="translate(1239 444)"/><rect class="a" width="1" height="5" transform="translate(1241 442)"/></g><g transform="translate(106 -92)"><rect class="a" width="5" height="1" transform="translate(1239 444)"/><rect class="a" width="1" height="5" transform="translate(1241 442)"/></g><g transform="translate(131 -92)"><rect class="a" width="5" height="1" transform="translate(1239 444)"/><rect class="a" width="1" height="5" transform="translate(1241 442)"/></g><g transform="translate(156 -92)"><rect class="a" width="5" height="1" transform="translate(1239 444)"/><rect class="a" width="1" height="5" transform="translate(1241 442)"/></g><g transform="translate(31 -67)"><rect class="a" width="5" height="1" transform="translate(1239 444)"/><rect class="a" width="1" height="5" transform="translate(1241 442)"/></g><g transform="translate(56 -67)"><rect class="a" width="5" height="1" transform="translate(1239 444)"/><rect class="a" width="1" height="5" transform="translate(1241 442)"/></g><g transform="translate(81 -67)"><rect class="a" width="5" height="1" transform="translate(1239 444)"/><rect class="a" width="1" height="5" transform="translate(1241 442)"/></g><g transform="translate(106 -67)"><rect class="a" width="5" height="1" transform="translate(1239 444)"/><rect class="a" width="1" height="5" transform="translate(1241 442)"/></g><g transform="translate(131 -67)"><rect class="a" width="5" height="1" transform="translate(1239 444)"/><rect class="a" width="1" height="5" transform="translate(1241 442)"/></g><g transform="translate(156 -67)"><rect class="a" width="5" height="1" transform="translate(1239 444)"/><rect class="a" width="1" height="5" transform="translate(1241 442)"/></g><g transform="translate(31 -42)"><rect class="a" width="5" height="1" transform="translate(1239 444)"/><rect class="a" width="1" height="5" transform="translate(1241 442)"/></g><g transform="translate(56 -42)"><rect class="a" width="5" height="1" transform="translate(1239 444)"/><rect class="a" width="1" height="5" transform="translate(1241 442)"/></g><g transform="translate(81 -42)"><rect class="a" width="5" height="1" transform="translate(1239 444)"/><rect class="a" width="1" height="5" transform="translate(1241 442)"/></g><g transform="translate(106 -42)"><rect class="a" width="5" height="1" transform="translate(1239 444)"/><rect class="a" width="1" height="5" transform="translate(1241 442)"/></g><g transform="translate(131 -42)"><rect class="a" width="5" height="1" transform="translate(1239 444)"/><rect class="a" width="1" height="5" transform="translate(1241 442)"/></g><g transform="translate(156 -42)"><rect class="a" width="5" height="1" transform="translate(1239 444)"/><rect class="a" width="1" height="5" transform="translate(1241 442)"/></g></g></svg>