<svg xmlns="http://www.w3.org/2000/svg" width="176" height="106" viewBox="0 0 176 106"><defs><style>.a,.b{fill:#fff;}.b{opacity:0.196;}</style></defs><g transform="translate(-886 419) rotate(-90)"><g transform="translate(59 196)"><g transform="translate(-987 246)"><rect class="a" width="3" height="1" transform="translate(1241 444)"/><rect class="a" width="1" height="3" transform="translate(1241 444)"/></g><g transform="translate(287 863)"><rect class="a" width="3" height="1" transform="translate(0 2)"/><rect class="a" width="1" height="3" transform="translate(2)"/></g><g transform="translate(-987 281)"><rect class="a" width="3" height="1" transform="translate(1241 444)"/><rect class="a" width="1" height="5" transform="translate(1241 442)"/></g><g transform="translate(-987 316)"><rect class="a" width="3" height="1" transform="translate(1241 444)"/><rect class="a" width="1" height="5" transform="translate(1241 442)"/></g><g transform="translate(-987 386)"><rect class="a" width="3" height="1" transform="translate(1241 444)"/><rect class="a" width="1" height="5" transform="translate(1241 442)"/></g><g transform="translate(287 690)"><rect class="a" width="3" height="1"/><rect class="a" width="1" height="3" transform="translate(2)"/></g><g transform="translate(254 863)"><rect class="a" width="3" height="1" transform="translate(0 2)"/><rect class="a" width="1" height="3"/></g><g transform="translate(287 725)"><rect class="a" width="3" height="1"/><rect class="a" width="1" height="5" transform="translate(2 -2)"/></g><g transform="translate(287 760)"><rect class="a" width="3" height="1"/><rect class="a" width="1" height="5" transform="translate(2 -2)"/></g><g transform="translate(287 830)"><rect class="a" width="3" height="1"/><rect class="a" width="1" height="5" transform="translate(2 -2)"/></g><g transform="translate(-987 351)"><rect class="a" width="3" height="1" transform="translate(1241 444)"/><rect class="a" width="1" height="5" transform="translate(1241 442)"/></g><g transform="translate(287 795)"><rect class="a" width="3" height="1"/><rect class="a" width="1" height="5" transform="translate(2 -2)"/></g><path class="b" d="M.354,35.354l-.707-.707,35-35,.707.707Z" transform="translate(254.5 760.5)"/><path class="b" d="M.354,35.354l-.707-.707,35-35,.707.707Z" transform="translate(254.5 795.5)"/><path class="b" d="M.354,35.354l-.707-.707,35-35,.707.707Z" transform="translate(254.5 830.5)"/><path class="b" d="M.354,35.354l-.707-.707,35-35,.707.707Z" transform="translate(254.5 725.5)"/><path class="b" d="M.354,35.354l-.707-.707,35-35,.707.707Z" transform="translate(254.5 690.5)"/><path class="b" d="M34.646,35.354l-35-35L.354-.354l35,35Z" transform="translate(254.5 760.5)"/><path class="b" d="M34.646,35.354l-35-35L.354-.354l35,35Z" transform="translate(254.5 795.5)"/><path class="b" d="M34.646,35.354l-35-35L.354-.354l35,35Z" transform="translate(254.5 830.5)"/><path class="b" d="M34.646,35.354l-35-35L.354-.354l35,35Z" transform="translate(254.5 725.5)"/><path class="b" d="M34.646,35.354l-35-35L.354-.354l35,35Z" transform="translate(254.5 690.5)"/></g><g transform="translate(94 196)"><g transform="translate(-987 246)"><rect class="a" width="3" height="1" transform="translate(1241 444)"/><rect class="a" width="1" height="3" transform="translate(1241 444)"/></g><g transform="translate(287 863)"><rect class="a" width="3" height="1" transform="translate(0 2)"/><rect class="a" width="1" height="3" transform="translate(2)"/></g><g transform="translate(-987 281)"><rect class="a" width="3" height="1" transform="translate(1241 444)"/><rect class="a" width="1" height="5" transform="translate(1241 442)"/></g><g transform="translate(-987 316)"><rect class="a" width="3" height="1" transform="translate(1241 444)"/><rect class="a" width="1" height="5" transform="translate(1241 442)"/></g><g transform="translate(-987 386)"><rect class="a" width="3" height="1" transform="translate(1241 444)"/><rect class="a" width="1" height="5" transform="translate(1241 442)"/></g><g transform="translate(287 690)"><rect class="a" width="3" height="1"/><rect class="a" width="1" height="3" transform="translate(2)"/></g><g transform="translate(254 863)"><rect class="a" width="3" height="1" transform="translate(0 2)"/><rect class="a" width="1" height="3"/></g><g transform="translate(287 725)"><rect class="a" width="3" height="1"/><rect class="a" width="1" height="5" transform="translate(2 -2)"/></g><g transform="translate(287 760)"><rect class="a" width="3" height="1"/><rect class="a" width="1" height="5" transform="translate(2 -2)"/></g><g transform="translate(287 830)"><rect class="a" width="3" height="1"/><rect class="a" width="1" height="5" transform="translate(2 -2)"/></g><g transform="translate(-987 351)"><rect class="a" width="3" height="1" transform="translate(1241 444)"/><rect class="a" width="1" height="5" transform="translate(1241 442)"/></g><g transform="translate(287 795)"><rect class="a" width="3" height="1"/><rect class="a" width="1" height="5" transform="translate(2 -2)"/></g><path class="b" d="M.354,35.354l-.707-.707,35-35,.707.707Z" transform="translate(254.5 760.5)"/><path class="b" d="M.354,35.354l-.707-.707,35-35,.707.707Z" transform="translate(254.5 795.5)"/><path class="b" d="M.354,35.354l-.707-.707,35-35,.707.707Z" transform="translate(254.5 830.5)"/><path class="b" d="M.354,35.354l-.707-.707,35-35,.707.707Z" transform="translate(254.5 725.5)"/><path class="b" d="M.354,35.354l-.707-.707,35-35,.707.707Z" transform="translate(254.5 690.5)"/><path class="b" d="M34.646,35.354l-35-35L.354-.354l35,35Z" transform="translate(254.5 760.5)"/><path class="b" d="M34.646,35.354l-35-35L.354-.354l35,35Z" transform="translate(254.5 795.5)"/><path class="b" d="M34.646,35.354l-35-35L.354-.354l35,35Z" transform="translate(254.5 830.5)"/><path class="b" d="M34.646,35.354l-35-35L.354-.354l35,35Z" transform="translate(254.5 725.5)"/><path class="b" d="M34.646,35.354l-35-35L.354-.354l35,35Z" transform="translate(254.5 690.5)"/></g><g transform="translate(129 196)"><g transform="translate(-987 246)"><rect class="a" width="3" height="1" transform="translate(1241 444)"/><rect class="a" width="1" height="3" transform="translate(1241 444)"/></g><g transform="translate(287 863)"><rect class="a" width="3" height="1" transform="translate(0 2)"/><rect class="a" width="1" height="3" transform="translate(2)"/></g><g transform="translate(-987 281)"><rect class="a" width="3" height="1" transform="translate(1241 444)"/><rect class="a" width="1" height="5" transform="translate(1241 442)"/></g><g transform="translate(-987 316)"><rect class="a" width="3" height="1" transform="translate(1241 444)"/><rect class="a" width="1" height="5" transform="translate(1241 442)"/></g><g transform="translate(-987 386)"><rect class="a" width="3" height="1" transform="translate(1241 444)"/><rect class="a" width="1" height="5" transform="translate(1241 442)"/></g><g transform="translate(287 690)"><rect class="a" width="3" height="1"/><rect class="a" width="1" height="3" transform="translate(2)"/></g><g transform="translate(254 863)"><rect class="a" width="3" height="1" transform="translate(0 2)"/><rect class="a" width="1" height="3"/></g><g transform="translate(287 725)"><rect class="a" width="3" height="1"/><rect class="a" width="1" height="5" transform="translate(2 -2)"/></g><g transform="translate(287 760)"><rect class="a" width="3" height="1"/><rect class="a" width="1" height="5" transform="translate(2 -2)"/></g><g transform="translate(287 830)"><rect class="a" width="3" height="1"/><rect class="a" width="1" height="5" transform="translate(2 -2)"/></g><g transform="translate(-987 351)"><rect class="a" width="3" height="1" transform="translate(1241 444)"/><rect class="a" width="1" height="5" transform="translate(1241 442)"/></g><g transform="translate(287 795)"><rect class="a" width="3" height="1"/><rect class="a" width="1" height="5" transform="translate(2 -2)"/></g><path class="b" d="M.354,35.354l-.707-.707,35-35,.707.707Z" transform="translate(254.5 760.5)"/><path class="b" d="M.354,35.354l-.707-.707,35-35,.707.707Z" transform="translate(254.5 795.5)"/><path class="b" d="M.354,35.354l-.707-.707,35-35,.707.707Z" transform="translate(254.5 830.5)"/><path class="b" d="M.354,35.354l-.707-.707,35-35,.707.707Z" transform="translate(254.5 725.5)"/><path class="b" d="M.354,35.354l-.707-.707,35-35,.707.707Z" transform="translate(254.5 690.5)"/><path class="b" d="M34.646,35.354l-35-35L.354-.354l35,35Z" transform="translate(254.5 760.5)"/><path class="b" d="M34.646,35.354l-35-35L.354-.354l35,35Z" transform="translate(254.5 795.5)"/><path class="b" d="M34.646,35.354l-35-35L.354-.354l35,35Z" transform="translate(254.5 830.5)"/><path class="b" d="M34.646,35.354l-35-35L.354-.354l35,35Z" transform="translate(254.5 725.5)"/><path class="b" d="M34.646,35.354l-35-35L.354-.354l35,35Z" transform="translate(254.5 690.5)"/></g></g></svg>