<svg xmlns="http://www.w3.org/2000/svg" width="280" height="105" viewBox="0 0 280 105"><defs><style>.a{fill:#fff;}</style></defs><g transform="translate(-1171 -2655)"><g transform="translate(-68 2213)"><rect class="a" width="5" height="1" transform="translate(1239 444)"/><rect class="a" width="1" height="5" transform="translate(1241 442)"/></g><g transform="translate(-43 2213)"><rect class="a" width="5" height="1" transform="translate(1239 444)"/><rect class="a" width="1" height="5" transform="translate(1241 442)"/></g><g transform="translate(-18 2213)"><rect class="a" width="5" height="1" transform="translate(1239 444)"/><rect class="a" width="1" height="5" transform="translate(1241 442)"/></g><g transform="translate(7 2213)"><rect class="a" width="5" height="1" transform="translate(1239 444)"/><rect class="a" width="1" height="5" transform="translate(1241 442)"/></g><g transform="translate(32 2213)"><rect class="a" width="5" height="1" transform="translate(1239 444)"/><rect class="a" width="1" height="5" transform="translate(1241 442)"/></g><g transform="translate(57 2213)"><rect class="a" width="5" height="1" transform="translate(1239 444)"/><rect class="a" width="1" height="5" transform="translate(1241 442)"/></g><g transform="translate(82 2213)"><rect class="a" width="5" height="1" transform="translate(1239 444)"/><rect class="a" width="1" height="5" transform="translate(1241 442)"/></g><g transform="translate(107 2213)"><rect class="a" width="5" height="1" transform="translate(1239 444)"/><rect class="a" width="1" height="5" transform="translate(1241 442)"/></g><g transform="translate(132 2213)"><rect class="a" width="5" height="1" transform="translate(1239 444)"/><rect class="a" width="1" height="5" transform="translate(1241 442)"/></g><g transform="translate(157 2213)"><rect class="a" width="5" height="1" transform="translate(1239 444)"/><rect class="a" width="1" height="5" transform="translate(1241 442)"/></g><g transform="translate(182 2213)"><rect class="a" width="5" height="1" transform="translate(1239 444)"/><rect class="a" width="1" height="5" transform="translate(1241 442)"/></g><g transform="translate(-68 2238)"><rect class="a" width="5" height="1" transform="translate(1239 444)"/><rect class="a" width="1" height="5" transform="translate(1241 442)"/></g><g transform="translate(-43 2238)"><rect class="a" width="5" height="1" transform="translate(1239 444)"/><rect class="a" width="1" height="5" transform="translate(1241 442)"/></g><g transform="translate(-18 2238)"><rect class="a" width="5" height="1" transform="translate(1239 444)"/><rect class="a" width="1" height="5" transform="translate(1241 442)"/></g><g transform="translate(7 2238)"><rect class="a" width="5" height="1" transform="translate(1239 444)"/><rect class="a" width="1" height="5" transform="translate(1241 442)"/></g><g transform="translate(32 2238)"><rect class="a" width="5" height="1" transform="translate(1239 444)"/><rect class="a" width="1" height="5" transform="translate(1241 442)"/></g><g transform="translate(57 2238)"><rect class="a" width="5" height="1" transform="translate(1239 444)"/><rect class="a" width="1" height="5" transform="translate(1241 442)"/></g><g transform="translate(82 2238)"><rect class="a" width="5" height="1" transform="translate(1239 444)"/><rect class="a" width="1" height="5" transform="translate(1241 442)"/></g><g transform="translate(107 2238)"><rect class="a" width="5" height="1" transform="translate(1239 444)"/><rect class="a" width="1" height="5" transform="translate(1241 442)"/></g><g transform="translate(132 2238)"><rect class="a" width="5" height="1" transform="translate(1239 444)"/><rect class="a" width="1" height="5" transform="translate(1241 442)"/></g><g transform="translate(157 2238)"><rect class="a" width="5" height="1" transform="translate(1239 444)"/><rect class="a" width="1" height="5" transform="translate(1241 442)"/></g><g transform="translate(182 2238)"><rect class="a" width="5" height="1" transform="translate(1239 444)"/><rect class="a" width="1" height="5" transform="translate(1241 442)"/></g><g transform="translate(-68 2263)"><rect class="a" width="5" height="1" transform="translate(1239 444)"/><rect class="a" width="1" height="5" transform="translate(1241 442)"/></g><g transform="translate(-43 2263)"><rect class="a" width="5" height="1" transform="translate(1239 444)"/><rect class="a" width="1" height="5" transform="translate(1241 442)"/></g><g transform="translate(-18 2263)"><rect class="a" width="5" height="1" transform="translate(1239 444)"/><rect class="a" width="1" height="5" transform="translate(1241 442)"/></g><g transform="translate(7 2263)"><rect class="a" width="5" height="1" transform="translate(1239 444)"/><rect class="a" width="1" height="5" transform="translate(1241 442)"/></g><g transform="translate(32 2263)"><rect class="a" width="5" height="1" transform="translate(1239 444)"/><rect class="a" width="1" height="5" transform="translate(1241 442)"/></g><g transform="translate(57 2263)"><rect class="a" width="5" height="1" transform="translate(1239 444)"/><rect class="a" width="1" height="5" transform="translate(1241 442)"/></g><g transform="translate(82 2263)"><rect class="a" width="5" height="1" transform="translate(1239 444)"/><rect class="a" width="1" height="5" transform="translate(1241 442)"/></g><g transform="translate(107 2263)"><rect class="a" width="5" height="1" transform="translate(1239 444)"/><rect class="a" width="1" height="5" transform="translate(1241 442)"/></g><g transform="translate(132 2263)"><rect class="a" width="5" height="1" transform="translate(1239 444)"/><rect class="a" width="1" height="5" transform="translate(1241 442)"/></g><g transform="translate(157 2263)"><rect class="a" width="5" height="1" transform="translate(1239 444)"/><rect class="a" width="1" height="5" transform="translate(1241 442)"/></g><g transform="translate(182 2263)"><rect class="a" width="5" height="1" transform="translate(1239 444)"/><rect class="a" width="1" height="5" transform="translate(1241 442)"/></g><g transform="translate(-68 2288)"><rect class="a" width="5" height="1" transform="translate(1239 444)"/><rect class="a" width="1" height="5" transform="translate(1241 442)"/></g><g transform="translate(-43 2288)"><rect class="a" width="5" height="1" transform="translate(1239 444)"/><rect class="a" width="1" height="5" transform="translate(1241 442)"/></g><g transform="translate(-18 2288)"><rect class="a" width="5" height="1" transform="translate(1239 444)"/><rect class="a" width="1" height="5" transform="translate(1241 442)"/></g><g transform="translate(7 2288)"><rect class="a" width="5" height="1" transform="translate(1239 444)"/><rect class="a" width="1" height="5" transform="translate(1241 442)"/></g><g transform="translate(32 2288)"><rect class="a" width="5" height="1" transform="translate(1239 444)"/><rect class="a" width="1" height="5" transform="translate(1241 442)"/></g><g transform="translate(57 2288)"><rect class="a" width="5" height="1" transform="translate(1239 444)"/><rect class="a" width="1" height="5" transform="translate(1241 442)"/></g><g transform="translate(82 2288)"><rect class="a" width="5" height="1" transform="translate(1239 444)"/><rect class="a" width="1" height="5" transform="translate(1241 442)"/></g><g transform="translate(107 2288)"><rect class="a" width="5" height="1" transform="translate(1239 444)"/><rect class="a" width="1" height="5" transform="translate(1241 442)"/></g><g transform="translate(132 2288)"><rect class="a" width="5" height="1" transform="translate(1239 444)"/><rect class="a" width="1" height="5" transform="translate(1241 442)"/></g><g transform="translate(157 2288)"><rect class="a" width="5" height="1" transform="translate(1239 444)"/><rect class="a" width="1" height="5" transform="translate(1241 442)"/></g><g transform="translate(182 2288)"><rect class="a" width="5" height="1" transform="translate(1239 444)"/><rect class="a" width="1" height="5" transform="translate(1241 442)"/></g><g transform="translate(-68 2313)"><rect class="a" width="5" height="1" transform="translate(1239 444)"/><rect class="a" width="1" height="5" transform="translate(1241 442)"/></g><g transform="translate(-43 2313)"><rect class="a" width="5" height="1" transform="translate(1239 444)"/><rect class="a" width="1" height="5" transform="translate(1241 442)"/></g><g transform="translate(-18 2313)"><rect class="a" width="5" height="1" transform="translate(1239 444)"/><rect class="a" width="1" height="5" transform="translate(1241 442)"/></g><g transform="translate(7 2313)"><rect class="a" width="5" height="1" transform="translate(1239 444)"/><rect class="a" width="1" height="5" transform="translate(1241 442)"/></g><g transform="translate(32 2313)"><rect class="a" width="5" height="1" transform="translate(1239 444)"/><rect class="a" width="1" height="5" transform="translate(1241 442)"/></g><g transform="translate(57 2313)"><rect class="a" width="5" height="1" transform="translate(1239 444)"/><rect class="a" width="1" height="5" transform="translate(1241 442)"/></g><g transform="translate(82 2313)"><rect class="a" width="5" height="1" transform="translate(1239 444)"/><rect class="a" width="1" height="5" transform="translate(1241 442)"/></g><g transform="translate(107 2313)"><rect class="a" width="5" height="1" transform="translate(1239 444)"/><rect class="a" width="1" height="5" transform="translate(1241 442)"/></g><g transform="translate(132 2313)"><rect class="a" width="5" height="1" transform="translate(1239 444)"/><rect class="a" width="1" height="5" transform="translate(1241 442)"/></g><g transform="translate(157 2313)"><rect class="a" width="5" height="1" transform="translate(1239 444)"/><rect class="a" width="1" height="5" transform="translate(1241 442)"/></g><g transform="translate(182 2313)"><rect class="a" width="5" height="1" transform="translate(1239 444)"/><rect class="a" width="1" height="5" transform="translate(1241 442)"/></g><g transform="translate(207 2213)"><rect class="a" width="5" height="1" transform="translate(1239 444)"/><rect class="a" width="1" height="5" transform="translate(1241 442)"/></g><g transform="translate(207 2238)"><rect class="a" width="5" height="1" transform="translate(1239 444)"/><rect class="a" width="1" height="5" transform="translate(1241 442)"/></g><g transform="translate(207 2263)"><rect class="a" width="5" height="1" transform="translate(1239 444)"/><rect class="a" width="1" height="5" transform="translate(1241 442)"/></g><g transform="translate(207 2288)"><rect class="a" width="5" height="1" transform="translate(1239 444)"/><rect class="a" width="1" height="5" transform="translate(1241 442)"/></g><g transform="translate(207 2313)"><rect class="a" width="5" height="1" transform="translate(1239 444)"/><rect class="a" width="1" height="5" transform="translate(1241 442)"/></g></g></svg>