<svg xmlns="http://www.w3.org/2000/svg" width="22" height="22" viewBox="0 0 22 22"><path d="M7.358,25.714c0,.091-.1.164-.231.164-.146.014-.248-.059-.248-.164s.1-.164.231-.164S7.358,25.61,7.358,25.714Zm-1.379-.2c-.031.091.058.2.191.223a.206.206,0,0,0,.275-.091c.027-.091-.058-.2-.191-.237a.225.225,0,0,0-.275.1Zm1.96-.077c-.129.032-.217.118-.2.223s.129.15.262.118.217-.118.2-.209S8.068,25.419,7.94,25.432ZM10.858,8A10.774,10.774,0,0,0,0,19.1,11.388,11.388,0,0,0,7.518,29.981c.568.1.767-.255.767-.55s-.013-1.838-.013-2.793c0,0-3.1.682-3.757-1.356,0,0-.506-1.324-1.233-1.665,0,0-1.016-.714.071-.7A2.332,2.332,0,0,1,5.065,24.09a2.312,2.312,0,0,0,3.233.951,2.554,2.554,0,0,1,.71-1.533c-2.479-.282-4.981-.651-4.981-5.027A3.493,3.493,0,0,1,5.074,15.8a4.4,4.4,0,0,1,.115-3.089c.927-.3,3.06,1.228,3.06,1.228a10.226,10.226,0,0,1,5.571,0s2.133-1.529,3.06-1.228A4.4,4.4,0,0,1,17,15.8a3.577,3.577,0,0,1,1.144,2.679c0,4.39-2.613,4.74-5.092,5.027a2.727,2.727,0,0,1,.754,2.111c0,1.533-.013,3.43-.013,3.8,0,.3.2.655.767.55A11.286,11.286,0,0,0,22,19.1,11.009,11.009,0,0,0,10.858,8ZM4.311,23.69c-.058.045-.044.15.031.237s.173.1.231.045.044-.15-.031-.237S4.369,23.631,4.311,23.69Zm-.479-.368c-.031.059.013.132.1.177a.13.13,0,0,0,.191-.032c.031-.059-.013-.132-.1-.177C3.934,23.262,3.863,23.276,3.832,23.322Zm1.437,1.619c-.071.059-.044.2.058.282.1.1.231.118.288.045s.031-.2-.058-.282C5.46,24.882,5.327,24.868,5.269,24.941Zm-.506-.669c-.071.045-.071.164,0,.268s.191.15.248.1a.211.211,0,0,0,0-.282c-.062-.1-.177-.15-.248-.091Z" transform="translate(0 -8)"/></svg>