<svg xmlns="http://www.w3.org/2000/svg" width="22" height="22" viewBox="0 0 22 22"><defs><style>.a{fill:none;}</style></defs><g transform="translate(-1501 325)"><path d="M9.938,36.7a5.132,5.132,0,1,0,5.132,5.132A5.124,5.124,0,0,0,9.938,36.7Zm0,8.468a3.336,3.336,0,1,1,3.336-3.336A3.342,3.342,0,0,1,9.938,45.17Zm6.539-8.678a1.2,1.2,0,1,1-1.2-1.2A1.194,1.194,0,0,1,16.476,36.491Zm3.4,1.215a5.924,5.924,0,0,0-1.617-4.194A5.963,5.963,0,0,0,14.065,31.9c-1.653-.094-6.606-.094-8.258,0a5.954,5.954,0,0,0-4.194,1.612A5.943,5.943,0,0,0,0,37.7C-.1,39.354-.1,44.308,0,45.96a5.924,5.924,0,0,0,1.617,4.194,5.97,5.97,0,0,0,4.194,1.617c1.653.094,6.606.094,8.258,0a5.924,5.924,0,0,0,4.194-1.617,5.963,5.963,0,0,0,1.617-4.194C19.969,44.308,19.969,39.359,19.875,37.706ZM17.74,47.733a3.378,3.378,0,0,1-1.9,1.9c-1.318.523-4.444.4-5.9.4s-4.587.116-5.9-.4a3.378,3.378,0,0,1-1.9-1.9c-.523-1.318-.4-4.444-.4-5.9s-.116-4.587.4-5.9a3.378,3.378,0,0,1,1.9-1.9c1.318-.523,4.444-.4,5.9-.4s4.587-.116,5.9.4a3.378,3.378,0,0,1,1.9,1.9c.523,1.318.4,4.444.4,5.9S18.263,46.42,17.74,47.733Z" transform="translate(1502.075 -355.825)"/><rect class="a" width="22" height="22" transform="translate(1501 -325)"/></g></svg>