<svg xmlns="http://www.w3.org/2000/svg" width="22" height="22" viewBox="0 0 22 22"><defs><style>.a{fill:none;}</style></defs><g transform="translate(-1541 325)"><path d="M18.027,52.149c.013.178.013.357.013.535A11.636,11.636,0,0,1,6.323,64.4,11.637,11.637,0,0,1,0,62.552a8.518,8.518,0,0,0,.994.051,8.247,8.247,0,0,0,5.112-1.759,4.125,4.125,0,0,1-3.85-2.856,5.193,5.193,0,0,0,.778.064,4.355,4.355,0,0,0,1.084-.14,4.118,4.118,0,0,1-3.3-4.041v-.051a4.147,4.147,0,0,0,1.861.523A4.124,4.124,0,0,1,1.4,48.834a11.7,11.7,0,0,0,8.491,4.309,4.649,4.649,0,0,1-.1-.943,4.122,4.122,0,0,1,7.127-2.817,8.107,8.107,0,0,0,2.613-.994,4.107,4.107,0,0,1-1.81,2.269,8.255,8.255,0,0,0,2.371-.637,8.852,8.852,0,0,1-2.065,2.129Z" transform="translate(1542 -370.082)"/><rect class="a" width="22" height="22" transform="translate(1541 -325)"/></g></svg>