<svg xmlns="http://www.w3.org/2000/svg" xmlns:xlink="http://www.w3.org/1999/xlink" width="400" height="428" viewBox="0 0 400 428"><defs><style>.a{fill:#b1b4c4;}.b{fill:#e4e7f2;}.c,.f{fill:#d6d8e5;}.d{fill:#fff;}.e{opacity:0.5;fill:url(#a);}.f{opacity:0.4;}.g{fill:#2b303f;}.h{fill:#c3c6d1;}.i{fill:#e9eaf2;}.j{fill:#8c50ff;}.k{fill:url(#b);}.l{fill:#cccedd;}.m{fill:#ffcea9;}.n{fill:#38226d;}.o{fill:#9c73ff;}.p{fill:#f4f4f4;}.q{fill:#3a2c6d;}.r{fill:#bfbfbf;}.s{fill:#e5e5e5;}.t{fill:#ededed;}.u{fill:#211b49;}.v{fill:#2e245b;}.w{fill:#a298e2;}.x{fill:#c33afc;}.y{fill:#f4ce2c;}.z{fill:#ff8657;}.aa{fill:#4d3bff;}</style><linearGradient id="a" x1="-1.604" y1="6.792" x2="-1.604" y2="6.3" gradientUnits="objectBoundingBox"><stop offset="0.21" stop-color="#fff" stop-opacity="0"/><stop offset="1" stop-color="#fff" stop-opacity="0.2"/></linearGradient><linearGradient id="b" x1="0.175" y1="1.691" x2="0.175" y2="2.041" gradientUnits="objectBoundingBox"><stop offset="0" stop-color="#e9eaf2" stop-opacity="0.8"/><stop offset="1" stop-color="#e9eaf2" stop-opacity="0"/></linearGradient></defs><g transform="translate(-0.04 -0.003)"><g transform="translate(0.04 0.003)"><g transform="translate(5.267 24.881)"><path class="a" d="M413.106,333.471,199.016,209.848c-3-1.712-5.436-6.387-5.436-10.385V33.829c0-4.007,2.431-5.847,5.436-4.109l214.09,123.624c3.005,1.712,5.436,6.387,5.436,10.385V329.362C418.577,333.369,416.146,335.209,413.106,333.471Z" transform="translate(-34.545 -29.065)"/><path class="a" d="M451.33,385.219l2.371-1.37-1.027-7.029Z" transform="translate(-71.63 -79.143)"/><path class="a" d="M193.13,30.773l2.337-1.353,3.356,1.918s-3.579.539-3.664.522S193.13,30.773,193.13,30.773Z" transform="translate(-33.675 -29.116)"/><path class="b" d="M410.849,334.842,196.725,211.183c-3-1.712-5.445-6.387-5.445-10.393V35.2c0-4.007,2.44-5.847,5.445-4.109L410.849,154.714c3.005,1.712,5.436,6.387,5.436,10.393V330.7C416.286,334.7,413.854,336.554,410.849,334.842Z" transform="translate(-34.214 -29.262)"/><path class="c" d="M410.409,335.051,196.285,211.427c-3-1.712-5.445-6.387-5.445-10.393V35.4c0-4,2.44-5.839,5.445-4.109L410.409,154.915c3,1.712,5.436,6.387,5.436,10.393V330.942C415.846,334.948,413.406,336.789,410.409,335.051Z" transform="translate(-34.151 -29.292)"/><path class="d" d="M413.355,325.576,194,198.948l.128-162.261c0-1.661,1.164-2.337,2.568-1.507L410.821,158.8a5.753,5.753,0,0,1,2.568,4.512Z" transform="translate(-34.606 -29.894)"/><path class="e" d="M413.287,325.585,194,198.956l.068-162.269c0-1.661,1.164-2.337,2.568-1.507L410.761,158.8a5.762,5.762,0,0,1,2.568,4.512Z" transform="translate(-34.606 -29.894)"/><path class="f" d="M221.539,462.521,8.212,338.9c-2.994-1.712-2.619-4.76.853-6.763l142.909-82.821c3.412-1.995,8.683-2.217,11.668-.479L376.978,372.457c2.985,1.712,2.61,4.76-.853,6.763L233.208,462.041C229.753,464.036,224.525,464.259,221.539,462.521Z" transform="translate(-6.192 -60.574)"/><path class="a" d="M227,459.248,13.652,335.667c-2.994-1.712-2.619-4.76.853-6.763l142.909-82.813c3.412-2,8.683-2.226,11.677-.488L382.418,369.227c2.994,1.712,2.618,4.76-.853,6.763L238.673,458.769C235.219,460.763,229.99,460.986,227,459.248Z" transform="translate(-6.975 -60.109)"/><path class="a" d="M11.65,347.011V342.97l4.537,1.9Z" transform="translate(-6.977 -74.268)"/><path class="a" d="M448.156,393.017V389.07l-3.356,1.156,2.226,3.27Z" transform="translate(-70.691 -80.907)"/><path class="b" d="M227,455.273,13.652,331.666c-2.994-1.712-2.619-4.76.853-6.763l142.909-82.821c3.412-2,8.683-2.217,11.677-.479L382.418,365.226c2.994,1.712,2.618,4.76-.853,6.763l-142.892,82.8C235.219,456.788,229.99,457.011,227,455.273Z" transform="translate(-6.975 -59.533)"/><path class="c" d="M227,454.66,13.652,331.036c-2.994-1.712-2.619-4.769.853-6.763l142.909-82.821c3.412-2,8.683-2.217,11.677-.488L382.418,364.6c2.994,1.712,2.618,4.76-.853,6.763L238.673,454.172C235.219,456.175,229.99,456.389,227,454.66Z" transform="translate(-6.975 -59.442)"/><path class="g" d="M176.14,272.087l-9.965-5.753c-.856-.471-.711-1.293.223-1.832l9.52-5.5a3.518,3.518,0,0,1,3.168-.128l9.974,5.753c.813.471.711,1.293-.231,1.832l-9.511,5.5a3.536,3.536,0,0,1-3.176.128Z" transform="translate(-29.654 -62.114)"/><path class="g" d="M192.632,281.607l-9.974-5.762c-.813-.462-.711-1.284.231-1.832l9.512-5.488a3.535,3.535,0,0,1,3.176-.128l9.965,5.753c.856.471.711,1.293-.223,1.832l-9.52,5.488a3.493,3.493,0,0,1-3.168.137Z" transform="translate(-32.083 -63.485)"/><path class="g" d="M209.3,291.236l-9.965-5.762c-.856-.471-.711-1.293.223-1.832l9.52-5.488a3.493,3.493,0,0,1,3.168-.137l9.974,5.762c.856.462.711,1.284-.231,1.832l-9.511,5.488A3.57,3.57,0,0,1,209.3,291.236Z" transform="translate(-34.535 -64.87)"/><path class="g" d="M225.6,300.637l-9.974-5.753c-.813-.471-.711-1.293.231-1.832l9.511-5.5a3.536,3.536,0,0,1,3.176-.128l9.974,5.753c.813.471.711,1.293-.231,1.832l-9.511,5.5a3.536,3.536,0,0,1-3.176.128Z" transform="translate(-36.935 -66.225)"/><path class="g" d="M242.089,310.157l-9.974-5.753c-.856-.471-.711-1.293.231-1.832l9.511-5.5a3.536,3.536,0,0,1,3.176-.128L255,302.7c.813.471.711,1.293-.231,1.832l-9.511,5.5A3.519,3.519,0,0,1,242.089,310.157Z" transform="translate(-39.359 -67.596)"/><path class="g" d="M258.572,319.727l-9.965-5.753c-.813-.471-.719-1.293.223-1.832l9.512-5.5a3.536,3.536,0,0,1,3.176-.128l9.974,5.753c.813.471.711,1.293-.231,1.832l-9.512,5.5A3.536,3.536,0,0,1,258.572,319.727Z" transform="translate(-41.789 -68.974)"/><path class="g" d="M275.062,329.2l-9.974-5.753c-.813-.471-.711-1.293.231-1.832l9.512-5.5a3.536,3.536,0,0,1,3.176-.128l9.965,5.753c.813.471.711,1.293-.223,1.832l-9.52,5.488A3.493,3.493,0,0,1,275.062,329.2Z" transform="translate(-44.215 -70.338)"/><path class="g" d="M291.543,338.726l-9.965-5.762c-.813-.471-.711-1.284.223-1.832l9.52-5.488a3.493,3.493,0,0,1,3.168-.137l9.974,5.762c.856.471.711,1.284-.231,1.832L294.7,338.58a3.51,3.51,0,0,1-3.159.146Z" transform="translate(-46.642 -71.709)"/><path class="g" d="M308.032,348.227l-9.974-5.753c-.813-.471-.711-1.293.231-1.832l9.511-5.488a3.51,3.51,0,0,1,3.176-.137l9.965,5.762c.813.462.711,1.284-.223,1.832l-9.511,5.488a3.536,3.536,0,0,1-3.176.128Z" transform="translate(-49.067 -73.078)"/><path class="g" d="M324.513,357.73l-9.965-5.753c-.813-.471-.711-1.293.223-1.832l9.5-5.479a3.519,3.519,0,0,1,3.168-.128l9.974,5.753c.813.471.711,1.293-.231,1.832l-9.486,5.5a3.536,3.536,0,0,1-3.185.111Z" transform="translate(-51.494 -74.449)"/><path class="g" d="M341,367.267l-9.974-5.753c-.813-.471-.711-1.293.231-1.832l9.512-5.5a3.536,3.536,0,0,1,3.176-.128l9.974,5.753c.813.471.711,1.293-.231,1.832l-9.511,5.5a3.536,3.536,0,0,1-3.176.128Z" transform="translate(-53.92 -75.82)"/><path class="g" d="M357.492,376.787l-9.974-5.753c-.813-.471-.711-1.293.231-1.832l9.52-5.5a3.536,3.536,0,0,1,3.176-.128l9.965,5.753c.856.471.711,1.293-.231,1.832l-9.486,5.5a3.518,3.518,0,0,1-3.2.128Z" transform="translate(-56.347 -77.191)"/><path class="g" d="M373.97,386.306,364,380.544c-.856-.471-.719-1.284.223-1.832l9.511-5.488a3.536,3.536,0,0,1,3.176-.137l9.974,5.762c.813.471.711,1.284-.231,1.832l-9.512,5.488a3.51,3.51,0,0,1-3.176.137Z" transform="translate(-58.984 -78.561)"/><path class="g" d="M397.259,399.747l-16.771-9.683c-.813-.471-.711-1.293.231-1.832l9.546-5.488a3.51,3.51,0,0,1,3.176-.137l16.729,9.708c.813.471.711,1.293-.223,1.832l-9.52,5.5A3.519,3.519,0,0,1,397.259,399.747Z" transform="translate(-61.359 -79.932)"/><path class="g" d="M184.619,295.43l-9.974-5.736c-.856-.471-.711-1.293.231-1.832l9.511-5.5a3.536,3.536,0,0,1,3.176-.128l9.965,5.745c.813.471.711,1.293-.223,1.832l-9.52,5.5a3.519,3.519,0,0,1-3.168.12Z" transform="translate(-30.901 -65.478)"/><path class="g" d="M201.133,304.973l-9.965-5.753c-.813-.471-.711-1.293.223-1.832l9.52-5.462a3.519,3.519,0,0,1,3.168-.128l9.982,5.719c.813.471.711,1.293-.231,1.832l-9.512,5.5a3.536,3.536,0,0,1-3.185.128Z" transform="translate(-33.335 -66.854)"/><path class="g" d="M217.649,314.5l-9.974-5.753c-.856-.471-.711-1.293.231-1.832l9.512-5.5a3.536,3.536,0,0,1,3.176-.128l9.965,5.753c.813.471.711,1.293-.223,1.832l-9.52,5.5a3.519,3.519,0,0,1-3.168.128Z" transform="translate(-35.762 -68.221)"/><path class="g" d="M234.162,324.032l-9.974-5.762c-.813-.462-.711-1.284.231-1.832l9.512-5.513a3.536,3.536,0,0,1,3.176-.137l9.957,5.787c.813.471.711,1.284-.231,1.832l-9.511,5.488A3.51,3.51,0,0,1,234.162,324.032Z" transform="translate(-38.195 -69.59)"/><path class="g" d="M250.543,333.49l-9.965-5.8c-.813-.471-.711-1.284.223-1.832l9.52-5.488a3.493,3.493,0,0,1,3.168-.137L263.462,326c.856.462.711,1.284-.231,1.832l-9.529,5.522a3.536,3.536,0,0,1-3.159.137Z" transform="translate(-40.607 -70.95)"/><path class="g" d="M267.062,343.024l-9.974-5.753c-.813-.471-.711-1.293.231-1.832l9.512-5.513a3.536,3.536,0,0,1,3.176-.128l9.965,5.753c.813.471.711,1.293-.223,1.832l-9.52,5.5A3.519,3.519,0,0,1,267.062,343.024Z" transform="translate(-43.037 -72.327)"/><path class="g" d="M283.572,352.557,273.6,346.8c-.813-.471-.711-1.293.231-1.832l9.511-5.488a3.51,3.51,0,0,1,3.176-.137l9.974,5.762c.813.462.711,1.284-.231,1.832l-9.512,5.488a3.536,3.536,0,0,1-3.176.128Z" transform="translate(-45.467 -73.702)"/><path class="g" d="M300.083,362.1l-9.965-5.753c-.813-.471-.711-1.293.231-1.832l9.511-5.5a3.519,3.519,0,0,1,3.168-.128L313,354.64c.813.471.711,1.293-.231,1.832l-9.512,5.5A3.536,3.536,0,0,1,300.083,362.1Z" transform="translate(-47.899 -75.076)"/><path class="g" d="M316.6,371.627l-9.974-5.753c-.856-.471-.711-1.293.231-1.832l9.512-5.5a3.536,3.536,0,0,1,3.176-.128l9.965,5.753c.813.471.719,1.293-.223,1.832l-9.512,5.5A3.536,3.536,0,0,1,316.6,371.627Z" transform="translate(-50.325 -76.448)"/><path class="g" d="M333.113,381.167l-9.965-5.762c-.813-.462-.711-1.284.223-1.832l9.52-5.488a3.545,3.545,0,0,1,3.168-.137l10,5.762c.813.471.711,1.293-.231,1.832l-9.512,5.488A3.51,3.51,0,0,1,333.113,381.167Z" transform="translate(-52.76 -77.822)"/><path class="g" d="M349.632,390.727l-9.974-5.753c-.813-.471-.711-1.293.231-1.832l9.511-5.5a3.536,3.536,0,0,1,3.176-.128l9.965,5.753c.813.471.711,1.293-.223,1.832l-9.52,5.5A3.519,3.519,0,0,1,349.632,390.727Z" transform="translate(-55.19 -79.199)"/><path class="g" d="M366.142,400.236l-9.965-5.762c-.813-.471-.719-1.284.223-1.832l9.512-5.488a3.536,3.536,0,0,1,3.176-.137l9.974,5.762c.813.471.711,1.284-.231,1.832l-9.512,5.488a3.51,3.51,0,0,1-3.176.137Z" transform="translate(-57.62 -80.567)"/><path class="g" d="M166.961,285.237,150.2,275.554c-.813-.471-.711-1.284.223-1.832l9.52-5.488a3.493,3.493,0,0,1,3.168-.137l16.806,9.683c.813.471.711,1.293-.231,1.832l-9.546,5.479A3.536,3.536,0,0,1,166.961,285.237Z" transform="translate(-27.315 -63.442)"/><path class="g" d="M393.741,402.263l-9.965-5.753a3.253,3.253,0,0,0-2.962,0l-10.051,5.8c-.856.471-.856,1.233,0,1.712l.8.462a.833.833,0,0,1,0,1.575l-10.667,6.13c-.856.479-.856,1.241,0,1.712l6.344,3.664a3.262,3.262,0,0,0,2.954,0l9.948-5.736,2.055-1.19,1.481-.856,1.49-.856,8.561-4.94C394.555,403.5,394.555,402.734,393.741,402.263Z" transform="translate(-58.526 -81.929)"/><path class="g" d="M112.29,309.024l-9.965-5.753c-.856-.471-.711-1.293.223-1.832l9.52-5.513a3.519,3.519,0,0,1,3.168-.128l9.974,5.753c.813.471.711,1.293-.231,1.832l-9.512,5.5A3.536,3.536,0,0,1,112.29,309.024Z" transform="translate(-20.257 -67.43)"/><path class="g" d="M128.73,318.517l-9.965-5.753c-.856-.471-.711-1.293.223-1.832l9.52-5.5a3.519,3.519,0,0,1,3.168-.128l9.974,5.753c.813.471.711,1.293-.231,1.832l-9.511,5.5a3.536,3.536,0,0,1-3.176.128Z" transform="translate(-22.677 -68.8)"/><path class="g" d="M145.17,328.007l-9.965-5.753c-.856-.471-.719-1.293.223-1.832l9.512-5.5a3.536,3.536,0,0,1,3.176-.128l9.948,5.753c.813.471.711,1.293-.231,1.832l-9.512,5.5a3.536,3.536,0,0,1-3.151.128Z" transform="translate(-25.096 -70.167)"/><path class="g" d="M285.169,408.836l-9.974-5.762c-.856-.462-.711-1.284.231-1.832l9.512-5.488a3.536,3.536,0,0,1,3.176-.137l9.948,5.762c.856.471.711,1.284-.231,1.832l-9.494,5.531A3.493,3.493,0,0,1,285.169,408.836Z" transform="translate(-45.7 -81.806)"/><path class="g" d="M301.6,418.327l-9.965-5.753c-.856-.471-.711-1.293.223-1.832l9.52-5.5a3.519,3.519,0,0,1,3.168-.128l9.974,5.753c.856.471.711,1.293-.231,1.832l-9.512,5.5a3.536,3.536,0,0,1-3.176.128Z" transform="translate(-48.119 -83.173)"/><path class="g" d="M318.043,427.817l-9.965-5.753c-.813-.471-.711-1.293.223-1.832l9.52-5.5a3.519,3.519,0,0,1,3.168-.128l9.974,5.753c.856.471.711,1.293-.231,1.832l-9.511,5.5a3.536,3.536,0,0,1-3.176.128Z" transform="translate(-50.542 -84.548)"/><path class="g" d="M334.483,437.307l-9.965-5.753c-.813-.471-.711-1.293.223-1.832l9.529-5.5a3.519,3.519,0,0,1,3.168-.128l9.974,5.753c.856.471.711,1.293-.231,1.832l-9.486,5.5A3.536,3.536,0,0,1,334.483,437.307Z" transform="translate(-52.961 -85.914)"/><path class="g" d="M165.233,339.594l-13.6-7.851c-.813-.471-.711-1.293.231-1.832l9.512-5.5a3.536,3.536,0,0,1,3.176-.128l13.6,7.851c.856.471.711,1.284-.231,1.832l-9.511,5.488a3.51,3.51,0,0,1-3.176.137Z" transform="translate(-27.522 -71.533)"/><path class="g" d="M268.12,398.994l-13.6-7.851c-.856-.471-.711-1.293.223-1.832l9.52-5.5a3.519,3.519,0,0,1,3.168-.128l13.6,7.851c.813.471.711,1.284-.223,1.832l-9.52,5.488a3.493,3.493,0,0,1-3.168.137Z" transform="translate(-42.666 -80.087)"/><path class="g" d="M238.59,381.945l-66.272-38.251c-.813-.471-.711-1.293.223-1.832l9.52-5.5a3.519,3.519,0,0,1,3.168-.128l66.281,38.277c.813.471.711,1.293-.231,1.832l-9.511,5.5a3.536,3.536,0,0,1-3.176.1Z" transform="translate(-30.662 -73.258)"/><path class="g" d="M173.123,307.247l-9.965-5.753c-.813-.471-.711-1.293.231-1.832l9.512-5.5a3.519,3.519,0,0,1,3.168-.128l9.991,5.753c.856.471.711,1.293-.231,1.832l-9.512,5.5A3.536,3.536,0,0,1,173.123,307.247Z" transform="translate(-29.213 -67.177)"/><path class="g" d="M189.593,316.726l-9.965-5.762c-.813-.471-.711-1.284.223-1.832l9.52-5.488a3.518,3.518,0,0,1,3.168-.137l9.974,5.762c.856.471.711,1.284-.231,1.832l-9.511,5.488a3.51,3.51,0,0,1-3.176.137Z" transform="translate(-31.637 -68.541)"/><path class="g" d="M206.059,326.257l-9.974-5.753c-.856-.471-.711-1.293.231-1.832l9.512-5.5a3.536,3.536,0,0,1,3.176-.128l9.965,5.753c.856.471.719,1.293-.223,1.832l-9.512,5.5A3.536,3.536,0,0,1,206.059,326.257Z" transform="translate(-34.057 -69.915)"/><path class="g" d="M222.529,335.733l-9.974-5.753c-.856-.471-.711-1.293.231-1.832l9.486-5.462a3.536,3.536,0,0,1,3.176-.128l9.965,5.753c.856.471.711,1.293-.223,1.832l-9.494,5.5a3.519,3.519,0,0,1-3.168.094Z" transform="translate(-36.48 -71.284)"/><path class="g" d="M238.99,345.277l-9.965-5.753c-.856-.471-.711-1.293.223-1.832l9.52-5.5a3.519,3.519,0,0,1,3.168-.128l9.974,5.753c.856.471.711,1.293-.231,1.832l-9.511,5.5A3.536,3.536,0,0,1,238.99,345.277Z" transform="translate(-38.904 -72.654)"/><path class="g" d="M255.46,354.786l-9.965-5.762c-.856-.471-.719-1.284.223-1.832l9.546-5.488a3.51,3.51,0,0,1,3.176-.137l9.974,5.762c.813.471.711,1.284-.231,1.832l-9.512,5.488A3.51,3.51,0,0,1,255.46,354.786Z" transform="translate(-41.328 -74.022)"/><path class="g" d="M271.932,364.287l-9.974-5.753c-.813-.471-.711-1.293.231-1.832l9.512-5.5a3.536,3.536,0,0,1,3.176-.128l9.965,5.753c.856.471.711,1.293-.223,1.832l-9.52,5.5A3.519,3.519,0,0,1,271.932,364.287Z" transform="translate(-43.754 -75.391)"/><path class="g" d="M288.4,373.8l-9.974-5.753c-.813-.471-.711-1.293.231-1.832l9.511-5.5a3.536,3.536,0,0,1,3.176-.128l9.965,5.753c.813.471.711,1.293-.231,1.832l-9.511,5.5A3.519,3.519,0,0,1,288.4,373.8Z" transform="translate(-46.178 -76.761)"/><path class="g" d="M304.864,383.307l-9.957-5.753c-.813-.471-.711-1.293.223-1.832l9.52-5.5a3.519,3.519,0,0,1,3.168-.128l9.974,5.753c.813.471.711,1.293-.231,1.832l-9.511,5.5a3.536,3.536,0,0,1-3.185.128Z" transform="translate(-48.603 -78.13)"/><path class="g" d="M321.332,392.816l-9.974-5.762c-.813-.471-.711-1.284.231-1.832l9.512-5.488a3.51,3.51,0,0,1,3.176-.137l9.974,5.762c.813.462.711,1.284-.231,1.832l-9.511,5.488A3.535,3.535,0,0,1,321.332,392.816Z" transform="translate(-51.025 -79.498)"/><path class="g" d="M337.8,402.317l-9.974-5.753c-.813-.471-.711-1.293.231-1.832l9.512-5.5a3.536,3.536,0,0,1,3.176-.128l9.965,5.753c.856.471.711,1.293-.223,1.832l-9.52,5.5a3.519,3.519,0,0,1-3.168.128Z" transform="translate(-53.449 -80.868)"/><path class="g" d="M354.233,411.827l-9.965-5.753c-.813-.471-.711-1.293.231-1.832l9.511-5.5a3.518,3.518,0,0,1,3.168-.128l9.974,5.753c.813.471.711,1.293-.231,1.832l-9.486,5.539A3.536,3.536,0,0,1,354.233,411.827Z" transform="translate(-55.868 -82.237)"/><path class="g" d="M154.869,296.694l-20.624-11.9c-.856-.471-.711-1.293.231-1.832l9.512-5.5a3.536,3.536,0,0,1,3.176-.128l20.615,11.9c.856.471.711,1.293-.223,1.832l-9.52,5.5a3.519,3.519,0,0,1-3.168.128Z" transform="translate(-24.968 -64.773)"/><path class="g" d="M148.972,311.73l-9.965-5.736c-.813-.471-.719-1.284.223-1.832l9.512-5.488a3.51,3.51,0,0,1,3.176-.137l9.974,5.762c.813.462.711,1.284-.231,1.832l-9.511,5.488A3.536,3.536,0,0,1,148.972,311.73Z" transform="translate(-25.658 -67.825)"/><path class="g" d="M165.442,321.257l-9.974-5.753c-.813-.471-.711-1.293.231-1.832l9.512-5.5a3.536,3.536,0,0,1,3.176-.128l9.965,5.753c.856.471.711,1.293-.223,1.832l-9.52,5.5a3.519,3.519,0,0,1-3.168.128Z" transform="translate(-28.081 -69.195)"/><path class="g" d="M181.9,330.732,171.9,325c-.856-.471-.711-1.284.231-1.832l9.512-5.488a3.536,3.536,0,0,1,3.176-.137l9.974,5.762c.856.471.711,1.284-.231,1.832l-9.511,5.488a3.51,3.51,0,0,1-3.159.1Z" transform="translate(-30.498 -70.563)"/><path class="g" d="M198.36,340.267l-9.965-5.753c-.856-.471-.711-1.293.231-1.832l9.511-5.5a3.519,3.519,0,0,1,3.168-.128l9.974,5.753c.813.471.711,1.293-.231,1.832l-9.512,5.5a3.536,3.536,0,0,1-3.176.128Z" transform="translate(-32.925 -71.932)"/><path class="g" d="M214.839,349.777l-9.931-5.753c-.813-.471-.711-1.293.231-1.832l9.511-5.5a3.536,3.536,0,0,1,3.176-.128l9.965,5.753c.813.471.719,1.293-.223,1.832l-9.512,5.488a3.51,3.51,0,0,1-3.219.137Z" transform="translate(-35.358 -73.302)"/><path class="g" d="M231.293,359.277l-9.965-5.753c-.813-.471-.711-1.293.223-1.832l9.52-5.5a3.519,3.519,0,0,1,3.168-.128l9.974,5.753c.813.471.711,1.293-.231,1.832l-9.512,5.5A3.536,3.536,0,0,1,231.293,359.277Z" transform="translate(-37.774 -74.67)"/><path class="g" d="M247.762,368.787l-9.974-5.753c-.813-.471-.711-1.293.231-1.832l9.512-5.5a3.536,3.536,0,0,1,3.176-.128l9.965,5.753c.813.471.711,1.293-.223,1.832l-9.512,5.5A3.536,3.536,0,0,1,247.762,368.787Z" transform="translate(-40.197 -76.039)"/><path class="g" d="M264.233,378.3l-9.965-5.762c-.813-.471-.711-1.284.223-1.832l9.52-5.488a3.493,3.493,0,0,1,3.168-.137l9.974,5.762c.813.462.711,1.284-.231,1.832l-9.511,5.488A3.536,3.536,0,0,1,264.233,378.3Z" transform="translate(-42.622 -77.407)"/><path class="g" d="M280.692,387.8l-9.974-5.753c-.813-.471-.711-1.293.231-1.832l9.511-5.5a3.536,3.536,0,0,1,3.176-.128l9.965,5.753c.813.471.711,1.293-.223,1.832l-9.52,5.5a3.519,3.519,0,0,1-3.168.128Z" transform="translate(-45.043 -78.777)"/><path class="g" d="M297.153,397.306l-9.965-5.762c-.813-.462-.711-1.284.223-1.832l9.52-5.488a3.519,3.519,0,0,1,3.168-.137l9.965,5.762c.813.471.711,1.284-.231,1.832l-9.512,5.488A3.51,3.51,0,0,1,297.153,397.306Z" transform="translate(-47.467 -80.145)"/><path class="g" d="M313.622,406.807l-9.974-5.753c-.813-.471-.711-1.293.231-1.832l9.512-5.5a3.536,3.536,0,0,1,3.176-.128l9.965,5.753c.813.471.711,1.293-.223,1.832l-9.52,5.5a3.519,3.519,0,0,1-3.168.128Z" transform="translate(-49.89 -81.514)"/><path class="g" d="M347.533,426.393l-27.4-15.83c-.813-.471-.719-1.293.223-1.832l9.512-5.5a3.536,3.536,0,0,1,3.176-.128l27.4,15.83c.813.462.711,1.284-.231,1.832l-9.512,5.488a3.536,3.536,0,0,1-3.168.137Z" transform="translate(-52.369 -82.894)"/><path class="g" d="M131.9,301.894l-13.6-7.851c-.856-.471-.711-1.293.223-1.832l9.52-5.488a3.493,3.493,0,0,1,3.168-.137l13.6,7.851c.813.471.711,1.293-.223,1.832l-9.5,5.5A3.519,3.519,0,0,1,131.9,301.894Z" transform="translate(-22.613 -66.104)"/><path class="g" d="M382.97,372.863l-200.2-115.576c-.856-.462-.711-1.284.231-1.832l4.76-2.74a3.519,3.519,0,0,1,3.168-.137l200.2,115.576c.813.471.711,1.284-.231,1.832l-4.751,2.765A3.536,3.536,0,0,1,382.97,372.863Z" transform="translate(-32.909 -61.218)"/><path class="a" d="M245.334,398.9a3.022,3.022,0,0,1-1.387,1.438l-55.083,31.8a6.789,6.789,0,0,1-6.1.248L88.587,378.036a2.106,2.106,0,0,1-.925-.95c-.342-.856.137-1.806,1.387-2.526l55.091-31.813a6.789,6.789,0,0,1,6.1-.248l94.173,54.355A1.661,1.661,0,0,1,245.334,398.9Z" transform="translate(-18.324 -74.132)"/><path class="h" d="M245.352,399.084a3.023,3.023,0,0,1-1.387,1.438l-55.083,31.8a6.789,6.789,0,0,1-6.1.248L88.6,378.221a2.106,2.106,0,0,1-.925-.95,3.09,3.09,0,0,1,1.387-1.43l55.091-31.8a6.8,6.8,0,0,1,6.1-.257l94.173,54.364A2.064,2.064,0,0,1,245.352,399.084Z" transform="translate(-18.343 -74.317)"/><path class="g" d="M400.625,362.38,200.43,246.8a3.527,3.527,0,0,1-1.43-2.817v-2.354c0-1.087.659-1.584,1.473-1.113L400.668,356.1a3.51,3.51,0,0,1,1.473,2.808v2.354C402.1,362.355,401.438,362.851,400.625,362.38Z" transform="translate(-35.325 -59.5)"/><path class="i" d="M231.922,226.98l-19.776-11.395c-2.474-1.43-4.486-5.274-4.486-8.561V185.817c0-3.3,2.012-4.82,4.486-3.424l19.776,11.429c2.483,1.43,4.486,5.274,4.486,8.561v21.206C236.374,226.894,234.371,228.409,231.922,226.98Z" transform="translate(-35.852 -51.072)"/><path class="i" d="M231.838,169.388,212.1,157.993c-2.474-1.43-4.486-7.277-4.486-10.136V123.1c0-3.3,2.012-4.82,4.486-3.424l19.742,11.395c2.483,1.43,4.486,5.274,4.486,8.561v24.759C236.324,167.3,234.321,170.818,231.838,169.388Z" transform="translate(-35.845 -42.04)"/><path class="j" d="M223.286,155.513A16.147,16.147,0,0,1,216,142.885c0-4.64,3.27-6.532,7.286-4.212A16.156,16.156,0,0,1,230.58,151.3C230.58,155.941,227.309,157.833,223.286,155.513Zm0-14.682c-2.988-1.712-5.419-.317-5.419,3.133a11.986,11.986,0,0,0,5.419,9.417c3,1.712,5.428.325,5.428-3.125A11.986,11.986,0,0,0,223.286,140.831Z" transform="translate(-37.053 -44.707)"/><path class="j" d="M226.295,152.881l-3.3-5.257V143.25l1.866,1.079v3.4l2.671,4.238Z" transform="translate(-38.063 -45.508)"/><path class="i" d="M231.808,108.572,212.066,97.177c-2.474-1.438-4.486-7.876-4.486-10.744V63.643c0-2.859,2.012-4.024,4.486-2.568l19.742,11.4a9.9,9.9,0,0,1,4.486,7.765v22.8C236.294,105.875,234.291,110,231.808,108.572Z" transform="translate(-35.84 -33.58)"/><path class="j" d="M223.149,83.67c-1.19-.685-2.149-.128-2.149,1.25a4.743,4.743,0,0,0,2.149,3.724c1.19.685,2.157.128,2.157-1.241a4.786,4.786,0,0,0-2.157-3.733Zm5.745.856-1.712-.993a1.4,1.4,0,0,1-.565-.8l-.445-1.806a1.455,1.455,0,0,0-.574-.8l-4.88-2.817c-.24-.137-.488-.077-.565.146l-.445,1.284a.368.368,0,0,1-.565.146L217.43,77.9c-.788-.462-1.43-.086-1.43.856v7.465a3.176,3.176,0,0,0,1.43,2.483l11.489,6.635c.788.454,1.438.086,1.438-.856V86.992a3.193,3.193,0,0,0-1.464-2.491Zm-5.745,5.8a7.953,7.953,0,0,1-3.587-6.215c0-2.294,1.61-3.219,3.587-2.072a7.911,7.911,0,0,1,3.587,6.215c0,2.26-1.6,3.193-3.587,2.046Zm5.239-3.279a1.1,1.1,0,0,1-.5-.856c0-.325.223-.454.5-.291a1.1,1.1,0,0,1,.505.856c0,.3-.223.428-.505.265Z" transform="translate(-37.053 -35.997)"/><path class="j" d="M229.594,208.447c0,3.861-6.053,8.878-6.053,8.878s-6.061-11.986-6.061-15.872,2.714-5.428,6.061-3.5A13.4,13.4,0,0,1,229.594,208.447Z" transform="translate(-37.267 -53.267)"/><ellipse class="i" cx="3.236" cy="5.599" rx="3.236" ry="5.599" transform="translate(180.673 148.19) rotate(-30)"/><path class="i" d="M378.43,244.2,258.907,175.184c-2.02-1.156-3.647-4.281-3.647-6.96V87.894c0-2.68,1.627-3.912,3.647-2.748l119.523,69c2.012,1.164,3.639,4.281,3.639,6.969V241.44C382.069,244.128,380.442,245.361,378.43,244.2Z" transform="translate(-43.42 -37.071)"/><path class="d" d="M366.747,190.881,274.107,137.4c-2.243-1.3-4.067-4.777-4.067-7.765v-6.053c0-3,1.824-4.366,4.067-3.073l92.641,53.482c2.243,1.293,4.058,4.769,4.058,7.765v6.053C370.805,190.8,368.99,192.174,366.747,190.881Z" transform="translate(-45.259 -42.165)"/><path class="j" d="M316.365,193.585l-42.258-24.4c-2.243-1.293-4.067-4.769-4.067-7.765V155.4c0-3,1.824-4.366,4.067-3.073l42.258,24.4c2.243,1.293,4.058,4.769,4.058,7.765v6.01C320.423,193.5,318.608,194.877,316.365,193.585Z" transform="translate(-45.093 -46.747)"/><path class="k" d="M403.049,280.545s-45.058,9.931-81.486-30.529-66.144-35.272-66.144-35.272V240l147.629,85.227Z" transform="translate(-43.443 -55.78)"/><path class="l" d="M390.355,282.149a90.367,90.367,0,0,1-40.932-9.822A97.8,97.8,0,0,1,321.17,250.37a134.444,134.444,0,0,0-25.547-22.457,84.32,84.32,0,0,0-20.87-10.175,55.673,55.673,0,0,0-14.077-2.64,26.9,26.9,0,0,0-5.166.168l-.182-1.044a27.136,27.136,0,0,1,5.326-.186A56.594,56.594,0,0,1,274.99,216.7a85.261,85.261,0,0,1,21.162,10.291,135.428,135.428,0,0,1,25.806,22.669,96.754,96.754,0,0,0,27.919,21.708,89.1,89.1,0,0,0,26.129,8.553,88.06,88.06,0,0,0,19.359,1.016,55.258,55.258,0,0,0,7.571-.911l.228,1.035a55,55,0,0,1-7.691.931C394.029,282.084,392.307,282.149,390.355,282.149Z" transform="translate(-43.443 -55.776)"/></g><g transform="translate(198.208)"><path class="m" d="M253.757,40.6a32.994,32.994,0,0,1-4.769,6.507c-.514.6-4.478-.916-3.647-1.344s3.424-4.041,4.726-6.455A82.352,82.352,0,0,0,252.84,30.5c.813-2.954,1.515-7.286,2.115-9.323a3.981,3.981,0,0,1,3.031-3.091c1.43-.334,2.354.06,2.089,1.789C259.587,22.885,257.249,34.648,253.757,40.6Z" transform="translate(-234.297 -2.588)"/><path class="n" d="M256.259,98.25c-1.224,1-3.039.086-3.133.18a56.273,56.273,0,0,1-4.529,3.775c-.77.6-1.96,1.4-1.712,2.568.385,2.063,3.7,1.43,4.948.8s2.277-1.712,3.424-2.414c.856-.531,1.712-.8,1.806-1.866A7.11,7.11,0,0,0,256.259,98.25Z" transform="translate(-234.531 -14.139)"/><path class="o" d="M257.049,101.3c-.163,1.019-.985,1.3-1.824,1.824-1.2.745-2.26,1.824-3.51,2.457s-4.032,1.164-4.846-.317c.437,1.995,3.7,1.37,4.931.745s2.277-1.712,3.424-2.414c.856-.531,1.712-.8,1.806-1.866a2.637,2.637,0,0,0,.017-.428Z" transform="translate(-234.533 -14.577)"/><path class="n" d="M241.723,89.859c-1.224,1-3.373-.086-3.467,0a45.377,45.377,0,0,1-4.049,3.656c-.771.608-1.961,1.413-1.712,2.568.385,2.072,3.7,1.438,4.957.8s2.269-1.712,3.424-2.423c.856-.522,1.712-.8,1.806-1.858A5.7,5.7,0,0,0,241.723,89.859Z" transform="translate(-232.46 -12.931)"/><path class="o" d="M242.639,92.74c-.163,1.019-.985,1.3-1.824,1.824-1.2.745-2.26,1.824-3.51,2.457s-4.041,1.164-4.846-.317c.437,1.995,3.69,1.37,4.931.745s2.269-1.712,3.424-2.423c.856-.522,1.712-.788,1.806-1.858a2.64,2.64,0,0,0,.017-.428Z" transform="translate(-232.46 -13.346)"/><path class="j" d="M271.018,51.739c1.361,8.51-2.414,11.686-7.328,13.492-3.527,1.3-8.561,3.3-8.561,3.3s.068,1.866.1,6.053c0,3.69-.445,17.122-.445,17.122a4.118,4.118,0,0,1-3.767,0s-1.978-10.316-2.4-14.974c-.574-6.31-1.541-10.445-1.216-11.806.283-1.2,7.183-4.589,9.375-6.4l-14.46,4.846a25.536,25.536,0,0,1,.42,4.751c-.128,5.008-.411,15.855-.411,15.855s-1.978,1.43-3.673,0c0,0-3.638-21.463-3.193-24.305.42-2.7,13.159-8.21,15.41-10.111A3.6,3.6,0,0,1,253.7,48.8Z" transform="translate(-232.887 -7.018)"/><g transform="translate(0.998 36.348)"><path class="p" d="M236.54,55.425l9.717-5.608a.539.539,0,0,1,.556,0l17.037,9.837-9.991,5.77Z" transform="translate(-234.046 -43.507)"/><path class="q" d="M257.135,65.646l.745.428c.06,0,.051.094,0,.137l-.711.411a.274.274,0,0,1-.231,0l-.745-.428c-.06,0-.051-.094,0-.137l.711-.411a.274.274,0,0,1,.231,0Z" transform="translate(-236.867 -45.792)"/><path class="q" d="M255.915,64.995l.736.419c.06,0,.051.1,0,.137l-.7.411a.265.265,0,0,1-.24,0l-.736-.428c-.06,0-.051-.094,0-.137l.7-.4A.24.24,0,0,1,255.915,64.995Z" transform="translate(-236.692 -45.698)"/><path class="q" d="M254.675,64.224l.736.428c.06,0,.06.094,0,.137l-.7.4a.265.265,0,0,1-.24,0l-.736-.428c-.06,0-.051-.094,0-.137l.7-.411A.265.265,0,0,1,254.675,64.224Z" transform="translate(-236.513 -45.587)"/><path class="q" d="M253.465,63.526l.736.428c.06,0,.06.094,0,.137l-.7.411a.291.291,0,0,1-.24,0l-.736-.428c-.06,0-.051-.094,0-.137l.7-.411a.291.291,0,0,1,.24,0Z" transform="translate(-236.339 -45.487)"/><path class="q" d="M252.235,62.816l.745.428c.06,0,.051.1,0,.137l-.711.411a.248.248,0,0,1-.231,0l-.745-.428c-.06,0-.051-.094,0-.137l.711-.4a.248.248,0,0,1,.231-.009Z" transform="translate(-236.162 -45.385)"/><path class="q" d="M251.015,62.115l.745.428c.06,0,.051.094,0,.137l-.711.4a.248.248,0,0,1-.231,0l-.745-.428c-.06,0-.051-.094,0-.128l.711-.411a.248.248,0,0,1,.231,0Z" transform="translate(-235.987 -45.284)"/><path class="q" d="M249.834,61.406l.736.428c.06,0,.051.094,0,.137l-.7.411a.291.291,0,0,1-.24,0l-.736-.428c-.06,0-.06-.094,0-.137l.7-.411A.291.291,0,0,1,249.834,61.406Z" transform="translate(-235.816 -45.182)"/><path class="q" d="M248.565,60.7l.745.428c.06,0,.051.1,0,.137l-.711.411a.248.248,0,0,1-.231,0l-.745-.428c-.06,0-.051-.094,0-.137l.711-.4a.248.248,0,0,1,.231-.009Z" transform="translate(-235.634 -45.08)"/><path class="q" d="M247.345,60l.736.428c.06,0,.051.094,0,.137l-.7.4a.265.265,0,0,1-.24,0l-.736-.428c-.06,0-.051-.094,0-.128l.7-.411A.265.265,0,0,1,247.345,60Z" transform="translate(-235.459 -44.979)"/><path class="q" d="M246.115,59.285l.745.428c.06,0,.051.094,0,.137l-.711.411a.274.274,0,0,1-.231,0l-.745-.428c-.06,0-.051-.094,0-.137l.711-.411a.248.248,0,0,1,.231,0Z" transform="translate(-235.282 -44.877)"/><path class="q" d="M244.895,58.576l.736.428c.06,0,.06.094,0,.137l-.7.411a.265.265,0,0,1-.24,0l-.736-.428c-.06,0-.051-.094,0-.137l.7-.4A.265.265,0,0,1,244.895,58.576Z" transform="translate(-235.106 -44.775)"/><path class="q" d="M243.673,57.875l.736.428c.06,0,.051.094,0,.137l-.711.4a.248.248,0,0,1-.231,0l-.745-.428c-.06,0-.051-.094,0-.137l.711-.4a.265.265,0,0,1,.24,0Z" transform="translate(-234.929 -44.674)"/><path class="q" d="M242.445,57.164l.745.428c.06,0,.051.094,0,.137l-.711.4a.248.248,0,0,1-.231,0L241.5,57.7c-.06,0-.051-.1,0-.137l.711-.411a.248.248,0,0,1,.231.009Z" transform="translate(-234.754 -44.571)"/><path class="q" d="M240.634,56.116l1.241.719c.06,0,.051.094,0,.137l-.7.411a.291.291,0,0,1-.24,0l-1.241-.719c-.06,0-.06-.094,0-.137l.7-.411a.291.291,0,0,1,.24,0Z" transform="translate(-234.493 -44.421)"/><path class="q" d="M256.5,63.915l.745.428c.06,0,.051.094,0,.137l-.711.4a.223.223,0,0,1-.231,0l-.745-.42c-.06,0-.051-.1,0-.137l.711-.411a.248.248,0,0,1,.231,0Z" transform="translate(-236.777 -45.543)"/><path class="q" d="M255.284,63.205l.736.428c.06,0,.051.094,0,.137l-.7.411a.291.291,0,0,1-.24,0l-.736-.428c-.06,0-.06-.094,0-.137l.7-.411a.265.265,0,0,1,.24,0Z" transform="translate(-236.6 -45.441)"/><path class="q" d="M254.055,62.5l.736.428c.069,0,.06.094,0,.137l-.7.411a.291.291,0,0,1-.24,0l-.736-.428c-.06,0-.051-.094,0-.137l.7-.411A.291.291,0,0,1,254.055,62.5Z" transform="translate(-236.424 -45.339)"/><path class="q" d="M252.835,61.786l.745.428c.06,0,.051.1,0,.137l-.711.411a.248.248,0,0,1-.231,0l-.745-.428c-.06,0-.051-.094,0-.137l.711-.4A.248.248,0,0,1,252.835,61.786Z" transform="translate(-236.248 -45.237)"/><path class="q" d="M251.614,61.086l.736.428c.06,0,.051.094,0,.137l-.7.411a.291.291,0,0,1-.24,0l-.736-.428c-.06,0-.06-.094,0-.137l.7-.411a.291.291,0,0,1,.24,0Z" transform="translate(-236.072 -45.136)"/><path class="q" d="M250.385,60.376l.745.428c.06,0,.051.1,0,.137l-.711.411a.248.248,0,0,1-.231,0l-.745-.428c-.06,0-.051-.094,0-.137l.711-.4a.248.248,0,0,1,.231-.009Z" transform="translate(-235.896 -45.034)"/><path class="q" d="M249.155,59.675l.745.428c.06,0,.051.094,0,.128l-.711.411a.248.248,0,0,1-.231,0l-.745-.428c-.06,0-.051-.094,0-.137l.711-.4a.248.248,0,0,1,.231,0Z" transform="translate(-235.719 -44.933)"/><path class="q" d="M247.935,59l.736.428c.06,0,.051.094,0,.137l-.7.4a.265.265,0,0,1-.24,0l-.736-.428c-.06,0-.051-.094,0-.128l.7-.411a.265.265,0,0,1,.24,0Z" transform="translate(-235.543 -44.835)"/><path class="q" d="M246.7,58.254l.745.428c.06,0,.051.094,0,.137l-.711.4a.248.248,0,0,1-.231,0l-.745-.428c-.06,0-.051-.1,0-.137l.711-.411a.248.248,0,0,1,.231.009Z" transform="translate(-235.367 -44.728)"/><path class="q" d="M245.483,57.546l.736.428c.06,0,.051.094,0,.137l-.711.411a.274.274,0,0,1-.231,0l-.745-.428c-.06,0-.051-.094,0-.137l.711-.411A.291.291,0,0,1,245.483,57.546Z" transform="translate(-235.19 -44.627)"/><path class="q" d="M244.255,56.836l.736.428c.06,0,.06.094,0,.137l-.7.411a.265.265,0,0,1-.24,0l-.736-.428c-.06,0-.051-.094,0-.137l.7-.411A.291.291,0,0,1,244.255,56.836Z" transform="translate(-235.014 -44.525)"/><path class="q" d="M243.025,56.135l.745.419c.06,0,.051.1,0,.137l-.711.411a.248.248,0,0,1-.231,0l-.745-.428c-.06,0-.051-.094,0-.137l.711-.4a.223.223,0,0,1,.231,0Z" transform="translate(-234.837 -44.423)"/><path class="q" d="M257.735,64.625l1.241.719c.06,0,.06.094,0,.137l-.7.4a.265.265,0,0,1-.24,0l-1.241-.719c-.06,0-.051-.094,0-.137l.7-.4A.265.265,0,0,1,257.735,64.625Z" transform="translate(-236.953 -45.645)"/><path class="q" d="M240.856,55.89l.736.428a.257.257,0,0,0,.223,0l.745-.437a.068.068,0,0,0,0-.128h-.06c-.051,0-.051-.077,0-.111l.788-.454c.068,0,.068-.094,0-.128l-.471-.274a.257.257,0,0,0-.223,0l-.736.428-.154.086-.111.068-.111.06-.634.368a.068.068,0,0,0,.009.094Z" transform="translate(-234.663 -44.23)"/><path class="q" d="M261.835,62.905l.745.428c.06,0,.051.094,0,.137l-.711.4a.223.223,0,0,1-.231,0l-.745-.42a.077.077,0,0,1,0-.137l.711-.411a.248.248,0,0,1,.231,0Z" transform="translate(-237.543 -45.398)"/><path class="q" d="M260.655,62.2l.745.428c.06,0,.051.1,0,.137l-.711.411a.248.248,0,0,1-.231,0l-.745-.428c-.06,0-.051-.094,0-.137l.711-.4A.248.248,0,0,1,260.655,62.2Z" transform="translate(-237.374 -45.296)"/><path class="q" d="M259.435,61.494l.745.428c.06,0,.051.094,0,.137l-.711.4a.248.248,0,0,1-.231,0l-.745-.428c-.06,0-.051-.1,0-.137l.711-.411a.248.248,0,0,1,.231.009Z" transform="translate(-237.198 -45.194)"/><path class="q" d="M249.044,55.5l.736.428c.06,0,.051.094,0,.137l-.7.4a.265.265,0,0,1-.24,0l-.736-.428c-.068,0-.06-.094,0-.137l.7-.4a.266.266,0,0,1,.24,0Z" transform="translate(-235.702 -44.331)"/><path class="q" d="M247.835,54.786l.745.428c.06,0,.051.094,0,.137l-.711.411a.274.274,0,0,1-.231,0l-.745-.428c-.06,0-.051-.094,0-.137l.711-.411a.274.274,0,0,1,.231,0Z" transform="translate(-235.529 -44.23)"/><path class="q" d="M246.595,54.085l.745.428c.06,0,.051.094,0,.137l-.711.4a.248.248,0,0,1-.231,0l-.745-.428c-.06,0-.051-.094,0-.128l.711-.411a.248.248,0,0,1,.231,0Z" transform="translate(-235.351 -44.129)"/><path class="q" d="M245.375,53.376l.745.428c.06,0,.051.094,0,.137l-.711.411a.274.274,0,0,1-.231,0l-.745-.428c-.06,0-.051-.094,0-.137l.711-.411a.274.274,0,0,1,.231,0Z" transform="translate(-235.175 -44.027)"/><path class="q" d="M257.909,60.607l1.01.582c.06,0,.051.1,0,.137l-.711.411a.248.248,0,0,1-.231,0l-.985-.574c-.06,0-.06-.094,0-.137l.7-.411A.291.291,0,0,1,257.909,60.607Z" transform="translate(-236.982 -45.069)"/><path class="q" d="M250.264,56.2l1.01.582c.06,0,.051.094,0,.137l-.711.411a.274.274,0,0,1-.231,0l-1.01-.582c-.06,0-.06-.094,0-.137l.7-.411A.291.291,0,0,1,250.264,56.2Z" transform="translate(-235.878 -44.433)"/><path class="q" d="M251.835,57.085l4.923,2.842c.06,0,.051.094,0,.137l-.7.4a.265.265,0,0,1-.24,0l-4.923-2.842c-.06,0-.051-.094,0-.128l.711-.411A.248.248,0,0,1,251.835,57.085Z" transform="translate(-236.105 -44.56)"/><path class="q" d="M257.364,63l.736.428c.06,0,.051.094,0,.137l-.7.411a.291.291,0,0,1-.24,0l-.736-.428c-.06,0-.06-.094,0-.137l.7-.411A.291.291,0,0,1,257.364,63Z" transform="translate(-236.9 -45.411)"/><path class="q" d="M256.135,62.326l.745.428c.06,0,.051.1,0,.137l-.711.411a.248.248,0,0,1-.231,0l-.745-.428c-.06,0-.051-.094,0-.137l.711-.4a.248.248,0,0,1,.231-.009Z" transform="translate(-236.723 -45.315)"/><path class="q" d="M254.915,61.624l.745.428c.06,0,.051.094,0,.137l-.711.4a.265.265,0,0,1-.24,0l-.736-.428a.077.077,0,0,1,0-.137l.711-.411a.248.248,0,0,1,.231.009Z" transform="translate(-236.548 -45.213)"/><path class="q" d="M253.695,60.916l.736.428c.06,0,.051.094,0,.137l-.7.411a.291.291,0,0,1-.24,0l-.736-.428c-.06,0-.051-.094,0-.137l.7-.411A.291.291,0,0,1,253.695,60.916Z" transform="translate(-236.372 -45.112)"/><path class="q" d="M252.465,60.215l.745.428c.06,0,.051.094,0,.137l-.711.4a.248.248,0,0,1-.231,0l-.745-.428c-.06,0-.051-.094,0-.137l.711-.4A.248.248,0,0,1,252.465,60.215Z" transform="translate(-236.195 -45.011)"/><path class="q" d="M251.245,59.506l.745.428c.06,0,.051.094,0,.137l-.711.411a.274.274,0,0,1-.231,0l-.745-.428c-.06,0-.051-.094,0-.137l.711-.411a.274.274,0,0,1,.231,0Z" transform="translate(-236.02 -44.909)"/><path class="q" d="M250.025,58.8l.736.428c.06,0,.06.1,0,.137l-.7.411a.266.266,0,0,1-.24,0l-.736-.428c-.06,0-.051-.094,0-.137l.7-.4A.265.265,0,0,1,250.025,58.8Z" transform="translate(-235.844 -44.807)"/><path class="q" d="M248.834,58.1l.736.428c.06,0,.051.094,0,.137l-.7.4a.24.24,0,0,1-.24,0l-.736-.419c-.06,0-.06-.1,0-.137l.7-.411a.265.265,0,0,1,.24,0Z" transform="translate(-235.672 -44.705)"/><path class="q" d="M247.575,57.386l.745.428c.06,0,.051.094,0,.137l-.711.411a.274.274,0,0,1-.231,0l-.745-.428c-.06,0-.051-.094,0-.137l.711-.411a.274.274,0,0,1,.231,0Z" transform="translate(-235.492 -44.604)"/><path class="q" d="M246.353,56.685l.736.428c.069,0,.06.094,0,.128l-.711.411a.265.265,0,0,1-.24,0l-.736-.428c-.06,0-.051-.094,0-.137l.7-.4a.265.265,0,0,1,.248,0Z" transform="translate(-235.315 -44.502)"/><path class="q" d="M245.135,55.994l.736.428c.06,0,.051.094,0,.137l-.7.411a.291.291,0,0,1-.24,0l-.736-.428c-.06,0-.051-.094,0-.137l.685-.411A.265.265,0,0,1,245.135,55.994Z" transform="translate(-235.141 -44.403)"/><path class="q" d="M243.9,55.266l.745.428c.06,0,.051.1,0,.137l-.711.411a.248.248,0,0,1-.231,0l-.745-.428c-.06,0-.051-.094,0-.137l.711-.4a.248.248,0,0,1,.231-.009Z" transform="translate(-234.964 -44.299)"/><path class="q" d="M258.585,63.746l1.532.856c.06,0,.051.094,0,.137l-.711.411a.274.274,0,0,1-.231,0l-1.532-.856c-.06,0-.051-.094,0-.137l.7-.4A.265.265,0,0,1,258.585,63.746Z" transform="translate(-237.076 -45.519)"/><path class="q" d="M259.155,62.705l.736.428c.068,0,.06.094,0,.128l-.7.411a.265.265,0,0,1-.24,0l-.736-.428c-.06,0-.051-.094,0-.137l.7-.4a.265.265,0,0,1,.24,0Z" transform="translate(-237.158 -45.369)"/><path class="q" d="M257.935,62l.736.428c.06,0,.051.094,0,.137l-.7.411a.291.291,0,0,1-.24,0l-.736-.428c-.06,0-.051-.094,0-.137l.7-.411a.265.265,0,0,1,.24,0Z" transform="translate(-236.982 -45.267)"/><path class="q" d="M256.7,61.286l.745.428c.06,0,.051.1,0,.137l-.711.411a.248.248,0,0,1-.231,0l-.745-.428c-.06,0-.051-.094,0-.137l.711-.4a.248.248,0,0,1,.231-.009Z" transform="translate(-236.805 -45.165)"/><path class="q" d="M255.485,60.585l.745.428c.06,0,.051.094,0,.137l-.711.4a.223.223,0,0,1-.231,0l-.745-.42a.077.077,0,0,1,0-.137l.711-.411a.248.248,0,0,1,.231,0Z" transform="translate(-236.63 -45.064)"/><path class="q" d="M254.265,59.876,255,60.3c.06,0,.06.094,0,.137l-.7.411a.291.291,0,0,1-.24,0l-.736-.428c-.06,0-.051-.094,0-.137l.7-.411a.291.291,0,0,1,.24,0Z" transform="translate(-236.454 -44.962)"/><path class="q" d="M253.044,59.175l.736.428c.06,0,.051.094,0,.128l-.7.411a.265.265,0,0,1-.24,0l-.736-.428c-.06,0-.06-.094,0-.137l.7-.4a.265.265,0,0,1,.24,0Z" transform="translate(-236.278 -44.861)"/><path class="q" d="M251.835,58.466l.745.428c.06,0,.051.094,0,.137l-.711.411a.274.274,0,0,1-.231,0l-.745-.428c-.06,0-.051-.094,0-.137l.711-.411a.274.274,0,0,1,.231,0Z" transform="translate(-236.105 -44.759)"/><path class="q" d="M250.595,57.756l.745.428c.06,0,.051.1,0,.137l-.711.411a.248.248,0,0,1-.231,0l-.745-.428c-.06,0-.051-.094,0-.137l.711-.4a.248.248,0,0,1,.231-.009Z" transform="translate(-235.926 -44.657)"/><path class="q" d="M249.375,57.054l.736.428c.06,0,.051.094,0,.137l-.7.4a.265.265,0,0,1-.24,0l-.736-.428c-.06,0-.051-.1,0-.137l.7-.411a.265.265,0,0,1,.24.009Z" transform="translate(-235.751 -44.555)"/><path class="q" d="M248.154,56.346l.736.428c.06,0,.051.094,0,.137l-.7.411a.291.291,0,0,1-.24,0l-.736-.428c-.068,0-.06-.094,0-.137l.7-.411a.291.291,0,0,1,.24,0Z" transform="translate(-235.574 -44.454)"/><path class="q" d="M246.925,55.645l.745.428c.06,0,.051.094,0,.137l-.711.4a.248.248,0,0,1-.231,0l-.745-.428c-.06,0-.051-.094,0-.128l.711-.411a.248.248,0,0,1,.231,0Z" transform="translate(-235.398 -44.353)"/><path class="q" d="M244.194,54.065l2.038,1.173c.06,0,.051.094,0,.137l-.711.411a.291.291,0,0,1-.24,0L243.252,54.6c-.06,0-.06-.094,0-.128l.7-.411a.265.265,0,0,1,.24,0Z" transform="translate(-235.005 -44.126)"/><path class="q" d="M260.375,63.406l1.01.582c.06,0,.051.1,0,.137l-.7.411a.265.265,0,0,1-.24,0l-1.01-.582c-.06,0-.051-.094,0-.137l.711-.411A.274.274,0,0,1,260.375,63.406Z" transform="translate(-237.333 -45.47)"/><path class="q" d="M239.464,56.825l14.862,8.561c.06,0,.06.094,0,.137l-.351.2a.248.248,0,0,1-.231,0l-14.871-8.561c-.06,0-.051-.094,0-.137l.351-.205a.291.291,0,0,1,.24.009Z" transform="translate(-234.375 -44.522)"/><path class="r" d="M258.658,56.828l-.1.051-2.568,1.49-4.563-2.637-.094-.06,2.663-1.532Z" transform="translate(-236.173 -44.141)"/><path class="s" d="M258.571,56.9,256,58.388l-4.563-2.637,2.568-1.481Z" transform="translate(-236.189 -44.159)"/><path class="s" d="M263.85,60.608v.231a.933.933,0,0,1-.462.813l-9.058,5.222a.916.916,0,0,1-.933,0l-16.386-9.417a.942.942,0,0,1-.471-.856V56.37l17.319,10Z" transform="translate(-234.045 -44.461)"/><path class="p" d="M253.183,64.542a1.113,1.113,0,0,1-.959-.068l-16.266-9.417a1.1,1.1,0,0,1-.539-.779l-1.789-10.65a1.281,1.281,0,0,1,0-.18,1.087,1.087,0,0,1,.334-.788l16.951,9.785a.856.856,0,0,1,.394.574Z" transform="translate(-233.626 -42.489)"/><path class="s" d="M253.494,64.377l-.111.068-.146.068L251.3,52.99a.856.856,0,0,0-.394-.574L234,42.631a.736.736,0,0,1,.223-.171l16.985,9.8a.856.856,0,0,1,.4.574Z" transform="translate(-233.68 -42.46)"/></g><path class="m" d="M269.645,14.83s-.214,4.049-.12,4.409,1.858,1.55,2.371,1.978-2.8,3.7-4.409,4.435-6.729-1.207-6.849-3.724.856-4.614,1.661-4.726S269.645,14.83,269.645,14.83Z" transform="translate(-236.513 -2.136)"/><path class="p" d="M269.418,20.2s-2.936,4.383-7.037,4.794c-1.293-1.276-1.413-5.813.377-7.26,0,0-1.644-1.336-2.774-1.07a5.779,5.779,0,0,0-2.568,3.228,26.368,26.368,0,0,0-1.447,9.417c.068,4.281,0,15.162,0,15.162a9.254,9.254,0,0,0,4.323,6.224,13.347,13.347,0,0,0,9.768,1.353,4.834,4.834,0,0,0,3.57-3.159c-.188-3-1.378-9.212-.856-13s1.3-6.618,1.507-9.674-.4-3-1.943-4.1a24.063,24.063,0,0,0-2.919-1.909Z" transform="translate(-235.841 -2.395)"/><path class="m" d="M266,56.117a19.7,19.7,0,0,1,2.3-1.318,4.889,4.889,0,0,0,1.969-1.2c.719-.7,1.9-3.373,2.748-5.993a26.712,26.712,0,0,0,.985-9.049c-.351-3.656-1.669-8.767-2-10.864s.342-2.945,1.327-3.716c1.147-.907,2.731-.505,3.579,2.44A56.5,56.5,0,0,1,278.8,38.891a28.407,28.407,0,0,1-1.43,9.22,33.288,33.288,0,0,1-3.51,7.243c-.4.676-.539,1.284-1.156,2.671a9.315,9.315,0,0,1-2.688,3.579c-1.027.736-1.515.856-1.764.7s-.24-.505.2-.856a7.773,7.773,0,0,0,1.832-2.063s-.9.907-1.49,1.4a7.7,7.7,0,0,1-1.712,1.1c-.6.265-1.438-.248-1.01-.651s.856-.608,1.712-1.353A7.4,7.4,0,0,0,269,58.556a14.312,14.312,0,0,1-1.909,1.241,3.262,3.262,0,0,1-1.712.471c-.317,0-.7-.462-.1-.856a11.736,11.736,0,0,0,2.286-1.618c.659-.651,1.027-1.207.856-1.216s-.548.394-1.318.642-1.6,0-1.712-.4S265.286,56.468,266,56.117Z" transform="translate(-237.136 -3.391)"/><path class="m" d="M260.4,6.871h0c.488-3.142,2.757-5.522,5.993-5.342a6.233,6.233,0,0,1,3.176,11.386,6.376,6.376,0,0,1-.505,1.378c-1.139,1.336-4.606,2.192-5.616,2.02a2.954,2.954,0,0,1-2.568-2.115C259.8,11.733,260.13,8.429,260.4,6.871Z" transform="translate(-236.441 -0.221)"/><path class="q" d="M269.652,12.7h0l-.3-2.748s2.243-5.8-3.056-4.692c-3.493.736-4.375,1.062-5.436-1.284S263.522-.488,268,.1a6.147,6.147,0,0,1,5.513,6.241C273.4,8.074,272.939,11.567,269.652,12.7Z" transform="translate(-236.52 -0.003)"/><path class="t" d="M280.409,31.778s-2.894,2.877-6.31,2.046c-.488-.334-1.669-7.054-1.669-7.054s0-3.724,2.859-3.63S280.409,31.778,280.409,31.778Z" transform="translate(-238.211 -3.332)"/><path class="t" d="M255.89,25.265a3.142,3.142,0,0,1-2.14-.95c.12-1.507,2.046-7.226,5.916-7.645a7.148,7.148,0,0,0-2.414,2.919,37.079,37.079,0,0,0-1.361,5.676Z" transform="translate(-235.523 -2.401)"/></g><path class="u" d="M446.016,281.5l-71.5-41.282c-4.495-2.568-8.133-9.546-8.133-15.53v-112.5c0-5.993,3.638-8.732,8.133-6.147l71.5,41.291c4.486,2.568,8.125,9.546,8.125,15.53v112.52C454.141,281.37,450.5,284.092,446.016,281.5Z" transform="translate(-54.141 -15.139)"/><path class="u" d="M462.74,312.322l2.448-1.207-1.652-3.245Z" transform="translate(-68.005 -44.334)"/><path class="u" d="M367.94,106.387a14.308,14.308,0,0,1,2.26-1.087l1.815,3.587Z" transform="translate(-54.077 -15.165)"/><path class="v" d="M443.826,282.6,372.315,241.29c-4.486-2.568-8.125-9.546-8.125-15.53V113.283c0-5.993,3.639-8.741,8.125-6.147l71.512,41.291c4.486,2.568,8.125,9.537,8.125,15.521v112.5C451.951,282.435,448.312,285.192,443.826,282.6Z" transform="translate(-53.826 -15.297)"/><path class="w" d="M386.684,132.65l-13-7.508V120.45l13,7.508Z" transform="translate(-54.946 -17.347)"/><path class="x" d="M446.974,167.461,391.72,135.553V130.87l55.254,31.9Z" transform="translate(-57.787 -18.848)"/><path class="w" d="M386.684,150.19l-13-7.508V137.99l13,7.508Z" transform="translate(-54.946 -19.873)"/><path class="y" d="M428.285,174.2,391.72,153.092V148.4l36.565,21.112Z" transform="translate(-57.787 -21.372)"/><path class="w" d="M386.684,158.951l-13-7.5V146.76l13,7.5Z" transform="translate(-54.946 -21.136)"/><path class="z" d="M437.223,188.136l-45.5-26.274V157.17l45.5,26.274Z" transform="translate(-57.787 -22.635)"/><path class="w" d="M386.684,167.72l-13-7.508V155.52l13,7.508Z" transform="translate(-54.946 -22.397)"/><path class="w" d="M423.414,188.927l-31.694-18.3V165.94l31.694,18.3Z" transform="translate(-57.787 -23.898)"/><path class="w" d="M386.684,141.42l-13-7.508V129.22l13,7.508Z" transform="translate(-54.946 -18.61)"/><path class="aa" d="M419.347,160.28,391.72,144.322V139.63l27.627,15.95Z" transform="translate(-57.787 -20.109)"/><path class="w" d="M386.684,176.49l-13-7.508V164.29l13,7.508Z" transform="translate(-54.946 -23.66)"/><path class="x" d="M407.969,188.775l-16.249-9.383V174.7l16.249,9.383Z" transform="translate(-57.787 -25.159)"/><path class="w" d="M386.684,194.021l-13-7.5V181.83l13,7.508Z" transform="translate(-54.946 -26.186)"/><path class="y" d="M442.916,226.485l-51.2-29.553V192.24l51.2,29.553Z" transform="translate(-57.787 -27.686)"/><path class="w" d="M386.684,202.79l-13-7.508V190.59l13,7.508Z" transform="translate(-54.946 -27.447)"/><path class="z" d="M407.156,214.614,391.72,205.7V201.01l15.436,8.912Z" transform="translate(-57.787 -28.947)"/><path class="w" d="M386.684,211.56l-13-7.508V199.36l13,7.508Z" transform="translate(-54.946 -28.71)"/><path class="w" d="M437.223,240.737l-45.5-26.274V209.78l45.5,26.266Z" transform="translate(-57.787 -30.211)"/><path class="w" d="M386.684,185.26l-13-7.508V173.06l13,7.508Z" transform="translate(-54.946 -24.923)"/><path class="aa" d="M434.783,213.032l-43.063-24.87V183.47l43.063,24.87Z" transform="translate(-57.787 -26.423)"/><path class="w" d="M386.684,220.33l-13-7.508V208.13l13,7.508Z" transform="translate(-54.946 -29.973)"/><path class="x" d="M397.4,226.519l-5.685-3.288V218.54l5.685,3.288Z" transform="translate(-57.787 -31.471)"/><path class="w" d="M386.684,237.861l-13-7.5V225.67l13,7.508Z" transform="translate(-54.946 -32.498)"/><path class="y" d="M402.285,246.867l-10.565-6.1V236.08l10.565,6.1Z" transform="translate(-57.787 -33.997)"/><path class="w" d="M386.684,246.63l-13-7.508V234.43l13,7.508Z" transform="translate(-54.946 -33.76)"/><path class="z" d="M419.347,265.491l-27.627-15.95V244.85l27.627,15.95Z" transform="translate(-57.787 -35.261)"/><path class="w" d="M386.684,255.4l-13-7.508V243.2l13,7.508Z" transform="translate(-54.946 -35.023)"/><path class="w" d="M435.6,283.643,391.72,258.3V253.61L435.6,278.951Z" transform="translate(-57.787 -36.523)"/><path class="w" d="M386.684,229.1l-13-7.508V216.9l13,7.508Z" transform="translate(-54.946 -31.236)"/><path class="aa" d="M446.974,263.909,391.72,232V227.31l55.254,31.9Z" transform="translate(-57.787 -32.736)"/><path class="a" d="M30.929,197.634l-7.808-4.007-16.36,9.417c-3.707,2.14-6.721.411-6.721-3.878V181.342A14.862,14.862,0,0,1,6.761,169.7L104.2,113.426c3.707-2.14,6.721-.4,6.721,3.878v17.884a14.862,14.862,0,0,1-6.721,11.643l-65.51,37.789" transform="translate(-0.04 -16.207)"/><path class="a" d="M126.424,112.77l3.681,1.49-3.116,3.2-2.209-3.536Z" transform="translate(-18.363 -16.241)"/><path class="a" d="M36.12,211.526,40,213.084l.009-3.339-3.433-.685Z" transform="translate(-5.231 -30.106)"/><path class="a" d="M6.877,220.137c.146.308-4.2-1.473-4.358-1.712S7.793,215,7.793,215Z" transform="translate(-0.396 -30.962)"/><path class="i" d="M43.21,186.434l65.51-37.815a14.888,14.888,0,0,0,6.721-11.643v-17.85c0-4.281-3.014-5.993-6.721-3.887L11.251,171.512A14.879,14.879,0,0,0,4.53,183.155v17.85c0,4.281,3.014,5.993,6.721,3.878l16.36-9.417,7.842,4.015Z" transform="translate(-0.686 -16.47)"/><path class="j" d="M108.168,132.485,14.74,186.421v-6.207l93.428-53.944Z" transform="translate(-2.155 -18.187)"/><path class="j" d="M75.91,166.935,14.74,202.25v-6.215L75.91,160.72Z" transform="translate(-2.155 -23.147)"/></g></g></svg>