<svg xmlns="http://www.w3.org/2000/svg" width="350" height="34" viewBox="0 0 350 34"><defs><style>.a{fill:#fff;}</style></defs><path class="a" d="M2.109.169V-30.14H9.2q6.084,0,9.471,3.259,4.45,4.26,4.45,11.916,0,7.538-3.761,11.641Q16.148.169,9.788.169ZM10.32-7.153q4.41-.216,4.41-7.577a12.253,12.253,0,0,0-1.122-5.732,3.385,3.385,0,0,0-3.032-2.12H10.32ZM45.328.169H37.413q.1-1.06.158-2.022T37.688-3.4q-2.048,4-5.493,4A5.319,5.319,0,0,1,27.45-2.383a16.313,16.313,0,0,1-1.733-8.206,15.136,15.136,0,0,1,1.792-7.97A5.486,5.486,0,0,1,32.392-21.5q3.17,0,5.119,3.808-.039-.393-.059-.687t-.039-.491l-.079-1.237-.059-.942h8.053ZM37.334-10.706a19.155,19.155,0,0,0-.089-2,5.552,5.552,0,0,0-.285-1.345,1.569,1.569,0,0,0-.512-.746,1.284,1.284,0,0,0-.768-.226q-2.008,0-2.008,5.32,0,3.808,1.792,3.808Q37.334-5.9,37.334-10.706ZM56.866.169H48.951V-21.051h7.915Zm.669-27.8a4.391,4.391,0,0,1-1.359,3.219,4.56,4.56,0,0,1-3.249,1.335,4.463,4.463,0,0,1-3.268-1.355,4.555,4.555,0,0,1-1.339-3.259,4.4,4.4,0,0,1,1.339-3.239,4.56,4.56,0,0,1,3.249-1.335A4.444,4.444,0,0,1,56.2-30.906,4.45,4.45,0,0,1,57.535-27.628ZM71.593-6.76V.483q-.709.079-1.24.108t-.886.029A8.589,8.589,0,0,1,63.541-1.5a10.265,10.265,0,0,1-2.619-3.926,13.6,13.6,0,0,1-1-5.124,11.207,11.207,0,0,1,2.875-7.833A9.347,9.347,0,0,1,70-21.5q.256,0,.65.02t.945.059v6.91q-3.5.236-3.5,3.808a4.749,4.749,0,0,0,.866,2.827,2.6,2.6,0,0,0,2.107,1.158q.118,0,.246-.01T71.593-6.76ZM94.059.169h-7.9V-11.059a4.973,4.973,0,0,0-.285-2.022,1.019,1.019,0,0,0-.994-.569q-1.654,0-1.654,3.121V.169h-7.9V-32.987h7.9V-21.13q0,.962-.01,1.61t-.03.982q-.02.334-.059.707t-.079.824q1.91-4.5,5.592-4.5a4.672,4.672,0,0,1,3.977,1.9,8.629,8.629,0,0,1,1.437,5.3Zm11.538,0H97.682V-21.051H105.6Zm.669-27.8a4.391,4.391,0,0,1-1.359,3.219,4.56,4.56,0,0,1-3.249,1.335,4.463,4.463,0,0,1-3.268-1.355,4.555,4.555,0,0,1-1.339-3.259,4.4,4.4,0,0,1,1.339-3.239,4.56,4.56,0,0,1,3.249-1.335,4.444,4.444,0,0,1,3.288,1.355A4.45,4.45,0,0,1,106.267-27.628ZM108.905-.577V-10.1q2.422,3.3,5.237,3.3a2.611,2.611,0,0,0,1.733-.559,1.754,1.754,0,0,0,.669-1.4,3.165,3.165,0,0,0-1.457-2.375l-1.339-1.04a18.252,18.252,0,0,1-2.284-1.992,10.271,10.271,0,0,1-1.536-2.042,8.615,8.615,0,0,1-.866-2.169,9.817,9.817,0,0,1-.276-2.356,11.334,11.334,0,0,1,.984-4.436,11.333,11.333,0,0,1,1.142-1.973,8.354,8.354,0,0,1,1.5-1.58,8.4,8.4,0,0,1,5.611-1.963,12.687,12.687,0,0,1,5.907,1.551v9.266a8.667,8.667,0,0,0-2.284-2.444,4.4,4.4,0,0,0-2.52-.893,2.236,2.236,0,0,0-1.555.55,1.614,1.614,0,0,0-.63,1.276,3.215,3.215,0,0,0,1.674,2.415l1.3.962a12.683,12.683,0,0,1,3.721,3.828,8.971,8.971,0,0,1,1.142,4.594,10.335,10.335,0,0,1-2.737,7.381A9.112,9.112,0,0,1,115.107.7,17.286,17.286,0,0,1,108.905-.577Zm37.784.746h-7.915q.1-1.06.158-2.022T139.05-3.4Q137,.6,133.556.6a5.319,5.319,0,0,1-4.745-2.984,16.313,16.313,0,0,1-1.733-8.206,15.136,15.136,0,0,1,1.792-7.97,5.486,5.486,0,0,1,4.883-2.945q3.17,0,5.119,3.808-.039-.393-.059-.687t-.039-.491l-.079-1.237-.059-.942h8.053ZM138.7-10.706a19.151,19.151,0,0,0-.089-2,5.551,5.551,0,0,0-.286-1.345,1.569,1.569,0,0,0-.512-.746,1.284,1.284,0,0,0-.768-.226q-2.008,0-2.008,5.32,0,3.808,1.792,3.808Q138.7-5.9,138.7-10.706ZM159.31.169h-7.915v-14.88H149.15v-6.341h2.245v-6.242h7.915v6.242h2.619v6.341H159.31Zm24.159-10.286A10.979,10.979,0,0,1,180.752-2.3,9.5,9.5,0,0,1,173.467.6a9.123,9.123,0,0,1-7.147-2.964,11.653,11.653,0,0,1-2.638-8.009,11.714,11.714,0,0,1,2.7-8.068,8.976,8.976,0,0,1,7.108-3.062,9.218,9.218,0,0,1,7.324,3.043Q183.469-15.417,183.469-10.117Zm-7.659-.255a13.114,13.114,0,0,0-.158-2.13,6.923,6.923,0,0,0-.453-1.629,3.011,3.011,0,0,0-.709-1.05,1.348,1.348,0,0,0-.925-.373q-1,0-1.615,1.413a8.712,8.712,0,0,0-.61,3.71,8.875,8.875,0,0,0,.61,3.71q.61,1.413,1.634,1.413.965,0,1.595-1.394A9.724,9.724,0,0,0,175.81-10.372ZM207.155.169h-8.21V-30.14H206.9q5.946,0,8.821,2.415a9.773,9.773,0,0,1,3.387,7.911q0,5.516-3.6,8.225-2.461,1.826-7.069,1.826h-1.28Zm0-16.745.374.02a3.167,3.167,0,0,0,2.382-.913,3.441,3.441,0,0,0,.886-2.5,3.714,3.714,0,0,0-.866-2.552,2.788,2.788,0,0,0-2.205-1h-.571Zm33.315,6.458A10.979,10.979,0,0,1,237.753-2.3,9.5,9.5,0,0,1,230.468.6a9.123,9.123,0,0,1-7.147-2.964,11.653,11.653,0,0,1-2.638-8.009,11.714,11.714,0,0,1,2.7-8.068,8.976,8.976,0,0,1,7.108-3.062,9.218,9.218,0,0,1,7.324,3.043Q240.47-15.417,240.47-10.117Zm-7.659-.255a13.113,13.113,0,0,0-.158-2.13,6.923,6.923,0,0,0-.453-1.629,3.011,3.011,0,0,0-.709-1.05,1.348,1.348,0,0,0-.925-.373q-1,0-1.615,1.413a8.712,8.712,0,0,0-.61,3.71,8.875,8.875,0,0,0,.61,3.71q.61,1.413,1.634,1.413.965,0,1.595-1.394A9.724,9.724,0,0,0,232.811-10.372ZM251.417.169h-7.9V-21.051h7.9L251-16.909q1.792-4.652,5.927-4.652v8.834a4.843,4.843,0,0,0-2.205-.707,2.874,2.874,0,0,0-2.451,1.148,5.54,5.54,0,0,0-.857,3.347Zm17.425,0h-7.915v-14.88h-2.245v-6.341h2.245v-6.242h7.915v6.242h2.619v6.341h-2.619Zm13.546,0h-7.9v-14.88H272.21v-6.341h2.284v-3.906q0-4.1,1.782-6.223A6.443,6.443,0,0,1,281.5-33.3a14.162,14.162,0,0,1,3.721.55v7.3a3.224,3.224,0,0,0-1.615-.746q-1.221,0-1.221,2.179v2.964h2.835v6.341h-2.835Zm24.376-10.286A10.979,10.979,0,0,1,304.047-2.3,9.5,9.5,0,0,1,296.762.6a9.123,9.123,0,0,1-7.147-2.964,11.653,11.653,0,0,1-2.638-8.009,11.714,11.714,0,0,1,2.7-8.068,8.976,8.976,0,0,1,7.108-3.062,9.217,9.217,0,0,1,7.324,3.043Q306.765-15.417,306.765-10.117Zm-7.659-.255a13.12,13.12,0,0,0-.158-2.13,6.92,6.92,0,0,0-.453-1.629,3.012,3.012,0,0,0-.709-1.05,1.348,1.348,0,0,0-.925-.373q-1,0-1.615,1.413a8.712,8.712,0,0,0-.61,3.71,8.875,8.875,0,0,0,.61,3.71q.61,1.413,1.634,1.413.965,0,1.595-1.394A9.724,9.724,0,0,0,299.105-10.372ZM317.712.169h-7.9V-32.987h7.9Zm11.558,0h-7.915V-21.051h7.915Zm.669-27.8a4.391,4.391,0,0,1-1.359,3.219,4.56,4.56,0,0,1-3.249,1.335,4.463,4.463,0,0,1-3.268-1.355,4.555,4.555,0,0,1-1.339-3.259,4.4,4.4,0,0,1,1.339-3.239,4.56,4.56,0,0,1,3.249-1.335,4.444,4.444,0,0,1,3.288,1.355A4.45,4.45,0,0,1,329.939-27.628Zm22.17,17.51A10.979,10.979,0,0,1,349.392-2.3,9.5,9.5,0,0,1,342.107.6a9.123,9.123,0,0,1-7.147-2.964,11.653,11.653,0,0,1-2.638-8.009,11.714,11.714,0,0,1,2.7-8.068,8.976,8.976,0,0,1,7.108-3.062,9.218,9.218,0,0,1,7.324,3.043Q352.109-15.417,352.109-10.117Zm-7.659-.255a13.116,13.116,0,0,0-.158-2.13,6.921,6.921,0,0,0-.453-1.629,3.01,3.01,0,0,0-.709-1.05,1.348,1.348,0,0,0-.925-.373q-1,0-1.615,1.413a8.712,8.712,0,0,0-.61,3.71,8.875,8.875,0,0,0,.61,3.71q.61,1.413,1.634,1.413.965,0,1.595-1.394A9.725,9.725,0,0,0,344.45-10.372Z" transform="translate(-2.109 33.301)"/></svg>