<svg xmlns="http://www.w3.org/2000/svg" width="380" height="374" viewBox="0 0 380 374"><defs><style>.a,.n,.o{fill:#d6d8e5;}.a{opacity:0.2;}.b{fill:#38226d;}.c{fill:#9c73ff;}.d{fill:#8c50ff;}.e{fill:#2b303f;}.f{fill:#ffcea9;}.g{fill:#f4f4f4;}.h{fill:#d3c4a9;}.i{fill:#efe3ca;}.j{fill:#3a2c6d;}.k{fill:#ededed;}.l{fill:#bfbfbf;}.m{fill:#e5e5e5;}.n{opacity:0.4;}.p{fill:#e4e6ef;}.q{fill:#28221c;}.r{fill:#99b524;}.s{fill:#a6ce28;}.t{fill:#fff;opacity:0.07;}.u{fill:#b0b4c1;}.v{fill:#bfc2d1;}</style></defs><g transform="translate(-2.389 -120.054)"><g transform="translate(2.389 120.054)"><path class="a" d="M246.5,507.389,2.75,366.518,139,288.77,382.75,429.641Z" transform="translate(-2.75 -133.389)"/><path class="b" d="M204.027,379.1c-3.633,2.96-9,.248-9.315.528-3.705,3.705-9.315,7.938-13.455,11.167-2.267,1.791-5.806,4.14-5.175,7.607,1.149,6.127,10.96,4.243,14.666,2.37s6.717-4.989,10.226-7.162c2.494-1.552,4.958-2.36,5.341-5.516C206.635,386.241,204.669,379,204.027,379.1Z" transform="translate(2.864 -130.202)"/><path class="c" d="M206.347,386.56c-.486,3.022-2.908,3.86-5.392,5.4-3.56,2.2-6.7,5.4-10.35,7.245-3.426,1.728-11.954,3.446-14.355-.931,1.3,5.91,10.94,4.057,14.614,2.2s6.717-4.989,10.226-7.162c2.494-1.552,4.958-2.36,5.34-5.516a5.546,5.546,0,0,0-.083-1.242Z" transform="translate(2.872 -129.941)"/><path class="b" d="M168.36,358.571c-3.633,2.96-10-.279-10.267,0a141.346,141.346,0,0,1-12,10.795c-2.267,1.78-5.8,4.14-5.175,7.6,1.138,6.127,10.95,4.243,14.655,2.37s6.727-4.989,10.226-7.162c2.5-1.552,4.958-2.36,5.351-5.506C171.4,364.78,169.012,358.488,168.36,358.571Z" transform="translate(1.725 -130.915)"/><path class="c" d="M171.019,365.6c-.476,3.022-2.908,3.861-5.382,5.4-3.56,2.2-6.7,5.4-10.4,7.245-3.415,1.728-11.954,3.446-14.355-.932,1.314,5.91,10.95,4.057,14.614,2.2s6.727-4.989,10.226-7.162c2.5-1.553,4.958-2.36,5.351-5.516A6.354,6.354,0,0,0,171.019,365.6Z" transform="translate(1.726 -130.669)"/><path class="d" d="M253.634,266.756c4.026,25.181-7.162,34.579-21.735,39.94-10.433,3.84-25.4,9.76-25.4,9.76s.207,5.527.321,17.936c.1,10.919-1.335,50.8-1.335,50.8s-6.024,3.1-11.136-.124c0,0-5.858-30.553-7.11-44.328-1.687-18.681-4.554-30.915-3.591-34.931.838-3.54,21.258-13.589,27.737-18.961L168.6,301.179a75.71,75.71,0,0,1,1.242,14.076c-.393,14.821-1.211,46.916-1.211,46.916s-5.868,4.233-10.878.083c0,0-10.764-63.537-9.46-71.952,1.242-7.98,38.946-24.291,45.591-29.911a10.65,10.65,0,0,1,8.373-2.256Z" transform="translate(1.859 -134.418)"/><path class="e" d="M234.869,178.79l24.891,12.182s13.517,4.813,9.729,27.655c-2.753,16.56-6.438,49.762-6.438,49.762l-46.8-4.74Z" transform="translate(4.128 -137.141)"/><path class="f" d="M236.578,174.86s-.621,12-.352,13.061,5.506,4.575,7.027,5.837-8.28,10.94-13.061,13.134-19.9-3.591-20.172-11.012,2.587-13.672,4.916-14S236.578,174.86,236.578,174.86Z" transform="translate(3.961 -137.279)"/><path class="f" d="M194.27,201.641l-8.621,14.366L174.16,228.944l8.621,5.744,11.488-10.06s18.185-21.559,16.984-22.987S194.27,201.641,194.27,201.641Z" transform="translate(2.796 -136.382)"/><path class="g" d="M238.343,189.838s-8.7,12.958-20.845,14.179c-3.829-3.767-4.14-17.2,1.118-21.5,0,0-4.864-3.923-8.2-3.167a17.211,17.211,0,0,0-7.493,9.574,78.162,78.162,0,0,0-4.285,27.758c.207,12.73,0,44.9,0,44.9s1.811,12.3,12.792,18.412a39.5,39.5,0,0,0,28.814,3.974c6.148-1.428,8.445-4.875,10.557-9.315-.548-8.922-4.078-27.282-2.587-38.491s3.85-19.592,4.461-28.659-1.19-8.88-5.734-12.12A70.163,70.163,0,0,0,238.343,189.838Z" transform="translate(3.56 -137.125)"/><ellipse class="e" cx="5.744" cy="3.322" rx="5.744" ry="3.322" transform="translate(230.668 352.98)"/><rect class="e" width="11.499" height="112.73" transform="translate(230.668 243.23)"/><ellipse class="e" cx="5.744" cy="3.322" rx="5.744" ry="3.322" transform="translate(19.571 226.779)"/><rect class="e" width="11.499" height="112.73" transform="translate(19.571 117.036)"/><ellipse class="e" cx="5.744" cy="3.322" rx="5.744" ry="3.322" transform="translate(348.661 286.182)"/><rect class="e" width="11.499" height="104.109" transform="translate(348.661 185.063)"/><path class="h" d="M371.369,333.81,125.358,191.48,8.955,258.837l-6.2-3.591V262.4l252.2,145.994,122.608-70.948V330.26Z" transform="translate(-2.75 -136.697)"/><path class="i" d="M254.977,401.451,2.75,255.488,125.358,184.54,377.585,330.5Z" transform="translate(-2.75 -136.94)"/><path class="f" d="M223.6,292.6c2.132-1.035,3.685-2.65,6.81-3.912a14.168,14.168,0,0,0,5.837-3.529c2.132-2.07,5.63-10,8.125-17.7,2.95-9.1,3.457-21.455,2.939-26.785-1.035-10.805-4.958-25.937-5.941-32.157s1.035-8.694,3.912-10.991c3.395-2.691,8.083-1.5,10.6,7.245a167.762,167.762,0,0,1,5.579,36.928,84.154,84.154,0,0,1-4.212,27.261c-2.619,8.176-6.034,14.055-10.4,21.445-1.2,2.008-1.584,3.8-3.405,7.9s-4.927,8.435-7.928,10.6-4.492,2.494-5.175,2.07c-.9-.528-.714-1.5.559-2.66a22.77,22.77,0,0,0,5.444-6.1s-2.67,2.681-4.409,4.14a22.976,22.976,0,0,1-5.092,3.25c-1.791.787-4.264-.724-3-1.925s2.556-1.791,5.1-3.995a22.5,22.5,0,0,0,3.612-3.923,43.045,43.045,0,0,1-5.651,3.654c-2.774,1.418-4.212,1.439-5.175,1.4s-2.07-1.356-.321-2.639c1.584-1.149,4.067-1.925,6.748-4.6,1.946-1.935,3.053-3.581,2.5-3.612s-1.615,1.18-3.9,1.9-4.73.062-5.02-1.19S221.463,293.652,223.6,292.6Z" transform="translate(4.288 -136.552)"/><path class="f" d="M209.477,158.126h0c1.428-9.315,8.135-16.373,17.74-15.835A18.464,18.464,0,0,1,236.624,176a18.516,18.516,0,0,1-1.49,4.067c-3.395,3.974-13.662,6.427-16.611,6-3.788-.538-5.848-2.122-7.648-6.262C207.686,172.5,208.69,162.69,209.477,158.126Z" transform="translate(3.914 -138.419)"/><path class="j" d="M236.578,176.13h0l-.88-8.125s6.634-17.181-9.046-13.879c-10.35,2.173-12.948,3.1-16.1-3.829s7.959-13.186,21.155-11.457a18.216,18.216,0,0,1,16.311,18.5C247.673,162.448,246.307,172.787,236.578,176.13Z" transform="translate(3.954 -138.549)"/><path class="k" d="M262.408,220.774s-8.559,8.508-18.681,6.055c-1.449-.983-4.926-20.876-4.926-20.876s0-11.023,8.456-10.733S262.408,220.774,262.408,220.774Z" transform="translate(4.91 -136.583)"/><g transform="translate(123.949 83.238)"><path class="g" d="M131.44,267.57l33.978-19.561a1.946,1.946,0,0,1,1.956,0l59.6,34.413-34.931,20.13Z" transform="translate(-122.59 -217.995)"/><path class="e" d="M191.628,293.733l2.587,1.49c.207.124.186.341-.062.476l-2.474,1.418a.88.88,0,0,1-.818,0l-2.6-1.49c-.207-.124-.176-.331.062-.476l2.474-1.428A.932.932,0,0,1,191.628,293.733Z" transform="translate(-120.607 -216.389)"/><path class="e" d="M188.12,291.683l2.6,1.5c.207.124.186.331-.062.476l-2.536,1.459a.931.931,0,0,1-.828,0l-2.587-1.5c-.207-.114-.186-.331.062-.476l2.474-1.418a.921.921,0,0,1,.88-.041Z" transform="translate(-120.731 -216.461)"/><path class="e" d="M184.5,289.613l2.587,1.5c.217.124.186.331,0,.476l-2.474,1.428a.931.931,0,0,1-.828,0l-2.587-1.49c-.217-.124-.186-.342.062-.476l2.463-1.428A.942.942,0,0,1,184.5,289.613Z" transform="translate(-120.854 -216.533)"/><path class="e" d="M181,287.593l2.587,1.5c.217.124.186.331-.062.476L181.06,291a.942.942,0,0,1-.828,0l-2.587-1.5c-.217-.114-.186-.331.052-.476l2.474-1.418A.911.911,0,0,1,181,287.593Z" transform="translate(-120.979 -216.604)"/><path class="e" d="M177.458,285.553l2.587,1.49c.207.124.186.342-.062.476l-2.474,1.428a.88.88,0,0,1-.818,0l-2.6-1.49c-.207-.124-.176-.341.062-.476l2.474-1.428a.9.9,0,0,1,.828,0Z" transform="translate(-121.102 -216.675)"/><path class="e" d="M173.908,283.5l2.6,1.552c.207.114.176.331-.062.476l-2.474,1.428a.932.932,0,0,1-.828,0l-2.587-1.5c-.207-.114-.186-.331.062-.476l2.474-1.428A.911.911,0,0,1,173.908,283.5Z" transform="translate(-121.226 -216.746)"/><path class="e" d="M170.368,281.463l2.587,1.49c.217.124.186.331-.052.476l-2.474,1.428a.9.9,0,0,1-.828,0l-2.587-1.49c-.217-.124-.186-.342.062-.476l2.463-1.428A.9.9,0,0,1,170.368,281.463Z" transform="translate(-121.35 -216.819)"/><path class="e" d="M166.828,279.413l2.587,1.5c.207.114.186.331-.062.476l-2.463,1.418a.91.91,0,0,1-.828,0l-2.587-1.5c-.217-.124-.186-.331.052-.476L166,279.4A.931.931,0,0,1,166.828,279.413Z" transform="translate(-121.474 -216.89)"/><path class="e" d="M163.288,277.373l2.587,1.49c.207.124.186.331-.062.476l-2.474,1.428a.88.88,0,0,1-.818,0l-2.6-1.49c-.207-.124-.176-.342.062-.476l2.474-1.428A.9.9,0,0,1,163.288,277.373Z" transform="translate(-121.598 -216.962)"/><path class="e" d="M159.738,275.323l2.6,1.5c.207.114.176.331-.062.466l-2.474,1.428a.942.942,0,0,1-.828,0l-2.587-1.5c-.207-.124-.186-.331.062-.476l2.474-1.428A.911.911,0,0,1,159.738,275.323Z" transform="translate(-121.722 -217.033)"/><path class="e" d="M156.2,273.273l2.587,1.5c.217.124.186.331-.052.476l-2.474,1.428a.932.932,0,0,1-.828,0l-2.587-1.49c-.217-.124-.186-.342.062-.476l2.463-1.428a.942.942,0,0,1,.828-.01Z" transform="translate(-121.846 -217.105)"/><path class="e" d="M152.658,271.234l2.587,1.49c.207.124.186.342-.062.476l-2.474,1.428a.922.922,0,0,1-.818,0l-2.587-1.5c-.217-.124-.186-.331,0-.476l2.474-1.428A.931.931,0,0,1,152.658,271.234Z" transform="translate(-121.97 -217.177)"/><path class="e" d="M149.118,269.183l2.6,1.5c.207.124.186.331-.062.476l-2.474,1.428a.911.911,0,0,1-.818,0l-2.6-1.49c-.207-.124-.186-.342.062-.476l2.474-1.428a.921.921,0,0,1,.818-.01Z" transform="translate(-122.094 -217.248)"/><path class="e" d="M143.868,266.153l4.347,2.515c.217.124.186.342,0,.476l-2.474,1.428a.942.942,0,0,1-.828,0l-4.409-2.5c-.207-.124-.176-.342.062-.476l2.474-1.428A.942.942,0,0,1,143.868,266.153Z" transform="translate(-122.277 -217.354)"/><path class="e" d="M189.808,288.713l2.587,1.5c.207.114.186.331-.062.476l-2.474,1.428a.911.911,0,0,1-.818,0l-2.6-1.5c-.207-.114-.176-.331.062-.476l2.474-1.428A.932.932,0,0,1,189.808,288.713Z" transform="translate(-120.67 -216.565)"/><path class="e" d="M186.258,286.662l2.587,1.5c.207.124.186.331-.062.476l-2.474,1.48a.911.911,0,0,1-.818,0l-2.6-1.5c-.207-.114-.176-.331.062-.476l2.474-1.418a.942.942,0,0,1,.828-.062Z" transform="translate(-120.795 -216.636)"/><path class="e" d="M182.708,284.613l2.587,1.5c.207.124.186.331-.062.476l-2.463,1.428a.942.942,0,0,1-.828,0l-2.587-1.49c-.217-.124-.186-.341.052-.476l2.474-1.428A.942.942,0,0,1,182.708,284.613Z" transform="translate(-120.919 -216.708)"/><path class="e" d="M179.118,282.574l2.587,1.49c.217.124.186.331-.062.476l-2.463,1.428a.942.942,0,0,1-.828,0l-2.587-1.49c-.217-.124-.186-.341,0-.476l2.474-1.428a.9.9,0,0,1,.88,0Z" transform="translate(-121.045 -216.78)"/><path class="e" d="M175.639,280.533l2.567,1.521c.217.124.186.331-.062.476l-2.463,1.428a.942.942,0,0,1-.828,0l-2.587-1.5c-.217-.114-.186-.331.052-.476l2.474-1.418a.911.911,0,0,1,.849-.031Z" transform="translate(-121.167 -216.851)"/><path class="e" d="M172.12,278.484l2.587,1.5c.217.124.186.331-.052.476l-2.536,1.428a.942.942,0,0,1-.828,0L168.7,280.4c-.217-.124-.186-.342.062-.476l2.463-1.428a.942.942,0,0,1,.89-.01Z" transform="translate(-121.291 -216.923)"/><path class="e" d="M168.536,276.443l2.587,1.49c.217.124.186.331,0,.476l-2.474,1.428a.931.931,0,0,1-.828,0l-2.587-1.49c-.207-.124-.186-.342.062-.476l2.463-1.428A.9.9,0,0,1,168.536,276.443Z" transform="translate(-121.413 -216.994)"/><path class="e" d="M164.988,274.393l2.6,1.49c.207.124.176.331-.062.476l-2.474,1.428a.9.9,0,0,1-.828,0l-2.587-1.49c-.207-.124-.186-.341.062-.476l2.474-1.428a.88.88,0,0,1,.818,0Z" transform="translate(-121.538 -217.066)"/><path class="e" d="M161.438,272.343l2.6,1.49c.207.124.176.342-.062.476l-2.474,1.428a.9.9,0,0,1-.828,0l-2.587-1.49c-.207-.124-.186-.331.062-.476l2.474-1.428a.88.88,0,0,1,.818,0Z" transform="translate(-121.663 -217.138)"/><path class="e" d="M157.9,270.293l2.587,1.49c.207.124.186.342-.062.476l-2.474,1.428a.88.88,0,0,1-.818,0l-2.6-1.49c-.207-.124-.186-.331.062-.476l2.474-1.428A.931.931,0,0,1,157.9,270.293Z" transform="translate(-121.787 -217.209)"/><path class="e" d="M154.348,268.243l2.587,1.49c.207.124.186.342-.062.476l-2.474,1.428a.921.921,0,0,1-.818,0L151,270.178c-.207-.124-.176-.331.062-.476l2.474-1.428A.932.932,0,0,1,154.348,268.243Z" transform="translate(-121.91 -217.28)"/><path class="e" d="M150.8,266.194l2.587,1.5c.207.114.186.331-.062.476l-2.474,1.418a.89.89,0,0,1-.818,0l-2.587-1.5c-.217-.124-.186-.331.052-.476l2.474-1.428A.931.931,0,0,1,150.8,266.194Z" transform="translate(-122.035 -217.353)"/><path class="e" d="M193.348,290.763l4.357,2.515c.217.124.186.331-.052.476l-2.474,1.4a.9.9,0,0,1-.828,0L190,292.7c-.207-.124-.186-.331.062-.476l2.474-1.428A.911.911,0,0,1,193.348,290.763Z" transform="translate(-120.546 -216.493)"/><path class="e" d="M143.926,266.137l2.587,1.5a.869.869,0,0,0,.766,0l2.618-1.511a.238.238,0,0,0,0-.445l-.207-.124c-.2-.1-.2-.29,0-.4l2.763-1.594c.217-.124.217-.321,0-.445l-1.646-.952a.838.838,0,0,0-.766,0l-2.587,1.49-.528.31-.393.228-.383.217-2.225,1.283C143.708,265.837,143.708,266.034,143.926,266.137Z" transform="translate(-122.159 -217.493)"/><path class="e" d="M205.348,285.794l2.587,1.5c.207.114.186.331-.062.476l-2.474,1.418a.921.921,0,0,1-.818,0l-2.587-1.5c-.217-.124-.186-.331,0-.476l2.474-1.428A.932.932,0,0,1,205.348,285.794Z" transform="translate(-120.127 -216.668)"/><path class="e" d="M201.808,283.754l2.6,1.5c.207.114.186.331-.062.476l-2.474,1.387a.89.89,0,0,1-.818,0l-2.6-1.5c-.207-.124-.186-.331.062-.476l2.474-1.428a.911.911,0,0,1,.818.041Z" transform="translate(-120.251 -216.739)"/><path class="e" d="M198.278,281.713l2.587,1.5c.217.114.186.331,0,.476l-2.525,1.428a.911.911,0,0,1-.828,0l-2.587-1.5c-.207-.114-.186-.331.062-.476l2.474-1.428A.911.911,0,0,1,198.278,281.713Z" transform="translate(-120.374 -216.81)"/><path class="e" d="M168.2,264.344l2.587,1.5c.217.124.186.331-.062.476l-2.463,1.428a.942.942,0,0,1-.828,0l-2.587-1.5c-.217-.114-.186-.331,0-.476l2.474-1.418A.911.911,0,0,1,168.2,264.344Z" transform="translate(-121.427 -217.418)"/><path class="e" d="M164.668,262.3l2.587,1.5c.207.124.186.331-.062.476l-2.474,1.428a.911.911,0,0,1-.818,0l-2.6-1.5c-.207-.114-.176-.331.062-.476l2.474-1.418A.942.942,0,0,1,164.668,262.3Z" transform="translate(-121.55 -217.488)"/><path class="e" d="M161.118,260.263l2.6,1.5c.207.124.176.331-.062.476l-2.474,1.428a.931.931,0,0,1-.828,0l-2.587-1.49c-.207-.124-.186-.342.062-.476l2.474-1.428a.921.921,0,0,1,.818-.01Z" transform="translate(-121.674 -217.56)"/><path class="e" d="M157.6,258.223l2.587,1.5c.217.124.186.331,0,.476l-2.474,1.428a.932.932,0,0,1-.828,0l-2.587-1.49c-.217-.124-.186-.341.062-.476l2.463-1.428A.942.942,0,0,1,157.6,258.223Z" transform="translate(-121.795 -217.631)"/><path class="e" d="M193.838,279.153l3.529,2.07c.217.114.186.331-.062.476l-2.463,1.439a.942.942,0,0,1-.828,0l-3.529-2.07c-.217-.124-.186-.342.062-.476l2.463-1.428a.9.9,0,0,1,.828-.01Z" transform="translate(-120.529 -216.899)"/><path class="e" d="M171.728,266.383l3.529,2.07c.217.124.186.342-.052.476l-2.474,1.428a.9.9,0,0,1-.828,0l-3.529-2.07c-.207-.114-.186-.331.062-.476l2.463-1.418A.911.911,0,0,1,171.728,266.383Z" transform="translate(-121.303 -217.346)"/><path class="e" d="M176.168,269l17.222,9.936c.207.124.186.341-.062.476l-2.474,1.428a.88.88,0,0,1-.818,0l-17.222-9.936c-.207-.124-.186-.342.062-.476L175.35,269A.88.88,0,0,1,176.168,269Z" transform="translate(-121.147 -217.254)"/><path class="e" d="M192.278,286.173l2.587,1.5c.207.124.186.331-.062.476l-2.474,1.428a.911.911,0,0,1-.818,0l-2.6-1.511c-.207-.114-.186-.331.062-.476l2.474-1.418A.942.942,0,0,1,192.278,286.173Z" transform="translate(-120.584 -216.654)"/><path class="e" d="M188.738,284.133l2.587,1.49c.207.124.186.342-.062.476l-2.474,1.428a.921.921,0,0,1-.818,0l-2.6-1.459c-.207-.124-.176-.331.062-.476l2.474-1.428A.932.932,0,0,1,188.738,284.133Z" transform="translate(-120.708 -216.725)"/><path class="e" d="M185.2,282.094l2.587,1.49c.207.124.186.342-.062.476l-2.463,1.428a.9.9,0,0,1-.828,0L181.845,284c-.217-.124-.186-.342,0-.476l2.474-1.428A.9.9,0,0,1,185.2,282.094Z" transform="translate(-120.832 -216.797)"/><path class="e" d="M181.658,280l2.587,1.5c.217.124.186.331-.062.476l-2.463,1.428a.942.942,0,0,1-.828,0l-2.587-1.49c-.217-.124-.186-.342,0-.476l2.474-1.428A.942.942,0,0,1,181.658,280Z" transform="translate(-120.956 -216.87)"/><path class="e" d="M178.118,278l2.587,1.5c.217.114.186.331-.052.476L178.18,281.4a.911.911,0,0,1-.828,0l-2.587-1.5c-.217-.124-.186-.331.062-.476L177.29,278a.942.942,0,0,1,.828,0Z" transform="translate(-121.079 -216.939)"/><path class="e" d="M174.578,276l2.587,1.49c.217.124.186.342-.052.476L174.64,279.4a.9.9,0,0,1-.828,0l-2.587-1.49c-.207-.124-.186-.331.062-.476L173.76,276A.88.88,0,0,1,174.578,276Z" transform="translate(-121.203 -217.01)"/><path class="e" d="M171.037,273.913l2.6,1.5c.207.124.176.331-.062.476l-2.453,1.428a.931.931,0,0,1-.828,0l-2.587-1.49c-.207-.124-.186-.342.062-.476l2.474-1.428a.921.921,0,0,1,.8-.01Z" transform="translate(-121.326 -217.082)"/><path class="e" d="M167.5,271.873l2.6,1.5c.207.114.186.331-.062.476l-2.474,1.418a.89.89,0,0,1-.818,0l-2.6-1.5c-.207-.114-.186-.331.062-.476l2.474-1.428a.911.911,0,0,1,.818.01Z" transform="translate(-121.451 -217.154)"/><path class="e" d="M163.968,269.833l2.587,1.49c.207.124.186.341-.062.476l-2.474,1.428a.88.88,0,0,1-.818,0l-2.6-1.49c-.207-.124-.176-.331.062-.476l2.474-1.428A.931.931,0,0,1,163.968,269.833Z" transform="translate(-121.574 -217.225)"/><path class="e" d="M160.428,267.793l2.587,1.49c.207.124.186.331-.062.476l-2.474,1.428a.911.911,0,0,1-.818,0l-2.587-1.49c-.217-.124-.186-.342.052-.476l2.474-1.428A.9.9,0,0,1,160.428,267.793Z" transform="translate(-121.698 -217.297)"/><path class="e" d="M156.888,265.744l2.587,1.5c.217.124.186.331-.062.476l-2.463,1.4a.942.942,0,0,1-.828,0l-2.587-1.5c-.217-.114-.186-.331.052-.476l2.474-1.418A.911.911,0,0,1,156.888,265.744Z" transform="translate(-121.822 -217.369)"/><path class="e" d="M153.348,263.7l2.587,1.49c.217.124.186.342-.062.476l-2.463,1.449a.942.942,0,0,1-.828,0l-2.587-1.5c-.217-.124-.186-.331.062-.476l2.463-1.428A.942.942,0,0,1,153.348,263.7Z" transform="translate(-121.946 -217.439)"/><path class="e" d="M195.808,288.225l5.361,3.1c.207.124.186.342-.062.476l-2.474,1.366a.921.921,0,0,1-.818,0l-5.361-3.1c-.207-.124-.186-.342.062-.476l2.474-1.428A.88.88,0,0,1,195.808,288.225Z" transform="translate(-120.46 -216.583)"/><path class="e" d="M197.468,285.2l2.587,1.5c.207.124.186.331-.062.476l-2.474,1.428a.911.911,0,0,1-.818,0l-2.6-1.49c-.207-.124-.176-.342.062-.476l2.474-1.428a.942.942,0,0,1,.828-.01Z" transform="translate(-120.403 -216.687)"/><path class="e" d="M193.928,283.163l2.587,1.5c.207.114.186.331-.062.476l-2.474,1.428a.911.911,0,0,1-.818,0l-2.587-1.5c-.217-.114-.186-.331.052-.476l2.463-1.387a.911.911,0,0,1,.838-.041Z" transform="translate(-120.526 -216.758)"/><path class="e" d="M190.389,281.123l2.587,1.49c.217.124.186.342-.062.476l-2.463,1.428a.942.942,0,0,1-.828,0L187,283.069c-.217-.124-.186-.331.052-.476l2.474-1.428A.942.942,0,0,1,190.389,281.123Z" transform="translate(-120.651 -216.83)"/><path class="e" d="M186.846,279.083l2.587,1.49c.217.124.186.342,0,.476l-2.474,1.428a.9.9,0,0,1-.828,0l-2.587-1.49c-.207-.124-.186-.342.062-.476l2.463-1.428A.9.9,0,0,1,186.846,279.083Z" transform="translate(-120.772 -216.901)"/><path class="e" d="M183.308,277l2.6,1.5c.207.124.176.331-.062.476l-2.474,1.428a.932.932,0,0,1-.828,0l-2.587-1.49c-.207-.124-.186-.342.062-.476l2.474-1.428a.921.921,0,0,1,.818-.01Z" transform="translate(-120.898 -216.974)"/><path class="e" d="M179.778,275l2.587,1.5c.207.114.186.331-.062.476L179.83,278.4a.89.89,0,0,1-.818,0l-2.6-1.5c-.207-.124-.186-.331.062-.476l2.474-1.428a.931.931,0,0,1,.828.01Z" transform="translate(-121.021 -217.045)"/><path class="e" d="M176.238,273l2.587,1.49c.207.124.186.341-.062.476L176.29,276.4a.88.88,0,0,1-.818,0l-2.587-1.49c-.217-.124-.186-.331.052-.476L175.41,273A.931.931,0,0,1,176.238,273Z" transform="translate(-121.145 -217.114)"/><path class="e" d="M172.7,270.914l2.587,1.49c.217.124.186.331-.062.476l-2.463,1.428a.9.9,0,0,1-.828,0l-2.587-1.49c-.217-.124-.186-.341,0-.476l2.474-1.428A.9.9,0,0,1,172.7,270.914Z" transform="translate(-121.269 -217.188)"/><path class="e" d="M169.116,268.863l2.587,1.5c.217.124.186.331,0,.476l-2.474,1.428a.932.932,0,0,1-.828,0l-2.587-1.5c-.217-.114-.186-.331.062-.476l2.463-1.418A.941.941,0,0,1,169.116,268.863Z" transform="translate(-121.392 -217.259)"/><path class="e" d="M165.618,266.823l2.6,1.5c.207.114.176.331-.062.466l-2.474,1.428a.942.942,0,0,1-.828,0l-2.587-1.5c-.207-.124-.186-.331.062-.476l2.474-1.428A.911.911,0,0,1,165.618,266.823Z" transform="translate(-121.516 -217.331)"/><path class="e" d="M162.12,264.784l2.6,1.49c.207.124.186.342-.062.476l-2.536,1.428a.88.88,0,0,1-.818,0l-2.6-1.49c-.207-.124-.186-.331.062-.476l2.474-1.428A.88.88,0,0,1,162.12,264.784Z" transform="translate(-121.641 -217.403)"/><path class="e" d="M154.168,260.214l7.121,4.14c.207.124.186.331-.062.476l-2.474,1.376a.91.91,0,0,1-.818,0l-7.121-4.14c-.217-.124-.186-.341.052-.476l2.474-1.428A.9.9,0,0,1,154.168,260.214Z" transform="translate(-121.917 -217.563)"/><path class="e" d="M201,287.253l3.54,2.07c.207.124.176.331-.062.476L202,291.228a.931.931,0,0,1-.828,0l-3.529-2.07c-.207-.124-.186-.331.062-.476l2.474-1.428a.88.88,0,0,1,.818,0Z" transform="translate(-120.279 -216.616)"/><path class="e" d="M140.266,268.213l52.008,30.014c.207.124.186.331-.062.476l-1.232.714a.931.931,0,0,1-.828,0L138.145,269.4c-.207-.124-.176-.342.062-.476l1.232-.714A.9.9,0,0,1,140.266,268.213Z" transform="translate(-122.36 -217.282)"/><path class="l" d="M199.856,269.818l-.342.2-8.984,5.185-15.98-9.222-.331-.186,9.325-5.382Z" transform="translate(-121.093 -217.551)"/><path class="m" d="M199.5,270l-8.984,5.185-15.98-9.222,8.994-5.185Z" transform="translate(-121.082 -217.539)"/><path class="m" d="M226.979,281.7v.828a3.291,3.291,0,0,1-1.635,2.846l-31.681,18.288a3.25,3.25,0,0,1-1.635.435,3.312,3.312,0,0,1-1.635-.435l-57.317-33.119a3.291,3.291,0,0,1-1.635-2.846v-.8l60.608,34.982Z" transform="translate(-122.59 -217.324)"/><path class="f" d="M193.952,225.013,183.323,219s-9.76,9.315-9.76,9.687h0A134.558,134.558,0,0,0,162.706,242.8c-1.335,1.894-2.774,3.033-5.723,6.386s-5.589,7.845-6.386,11.333-.528,4.8.114,5.175c.807.486,1.594-.114,2.142-1.677a23.577,23.577,0,0,1,3.353-7.245s-1.366,3.395-2.008,5.475a21.4,21.4,0,0,0-.963,5.63c0,1.811,2.225,3.1,2.815,1.552s.631-2.9,1.625-5.972a22.876,22.876,0,0,1,2.122-4.74,40.1,40.1,0,0,0-1.128,6.272c-.217,2.908.31,4.078.693,4.823s1.977,1.035,2.453-.942c.424-1.811.186-4.192,1.542-7.586,1.035-2.474,2.07-4.14,2.256-3.695s-.445,1.853-.228,4.036,1.708,3.881,2.929,3.54.973-.3,1.118-2.515.973-4.212.911-7.328a13.455,13.455,0,0,1,.942-6.365c.921-2.36,5.4-7.617,10.453-12.627Z" transform="translate(-121.937 -219)"/><path class="g" d="M191.406,303.758a3.881,3.881,0,0,1-3.343-.259l-57.069-32.943a3.881,3.881,0,0,1-1.884-2.712l-6.21-37.259a4.325,4.325,0,0,1,0-.631,3.891,3.891,0,0,1,1.149-2.763l59.3,34.237a2.908,2.908,0,0,1,1.387,2.07Z" transform="translate(-122.889 -218.714)"/><path class="m" d="M192.311,303.293l-.393.228a4.143,4.143,0,0,1-.528.259l-6.758-40.312a2.908,2.908,0,0,0-1.387-2.07l-59.3-34.237a3.922,3.922,0,0,1,.8-.6l59.418,34.3a2.877,2.877,0,0,1,1.387,2.008Z" transform="translate(-122.852 -218.736)"/></g><path class="k" d="M199.383,204.861s-4.471-.228-6.313-2.836c.342-4.45,6.044-21.372,17.512-22.635a21.331,21.331,0,0,0-7.172,8.652C201.329,193.1,199.383,204.861,199.383,204.861Z" transform="translate(3.434 -137.12)"/><ellipse class="n" cx="7.121" cy="4.109" rx="7.121" ry="4.109" transform="translate(65.947 109.942)"/><ellipse class="o" cx="7.121" cy="4.109" rx="7.121" ry="4.109" transform="translate(66.959 109.176)"/><path class="o" d="M65.27,234.72l2.494,14.345H81.9l2.432-14.241Z" transform="translate(-0.719 -135.496)"/><ellipse class="p" cx="9.543" cy="5.506" rx="9.543" ry="5.506" transform="translate(64.541 93.536)"/><path class="q" d="M74.761,238.99a12.544,12.544,0,0,1-6.137-1.449c-1.387-.807-2.184-1.842-2.184-2.846a3.637,3.637,0,0,1,2.184-2.846,13.724,13.724,0,0,1,12.275,0c1.4.807,2.194,1.842,2.194,2.846a3.63,3.63,0,0,1-2.194,2.846A12.513,12.513,0,0,1,74.761,238.99Z" transform="translate(-0.68 -135.653)"/><path class="r" d="M78.908,230.7a12.068,12.068,0,0,0-4.047-9.925h0a12.068,12.068,0,0,0-4.047,9.925l-5.454-.517c2.308,8.673,9.543,7.928,9.543,7.928h0c.538,0,7.245.393,9.491-7.928Z" transform="translate(-0.716 -135.995)"/><path class="s" d="M74.868,237.922s-.486-6.758-9.563-11.3C65.305,226.62,63.163,237.839,74.868,237.922Z" transform="translate(-0.567 -135.788)"/><path class="s" d="M74.48,237.922s.538-6.769,9.563-11.3C84.043,226.62,86.186,237.839,74.48,237.922Z" transform="translate(-0.415 -135.788)"/><ellipse class="n" cx="9.294" cy="5.361" rx="9.294" ry="5.361" transform="translate(252.971 202.682)"/><path class="o" d="M267.319,339.482V325.21l-18.547.466v13.2c-.352,1.594.528,3.25,2.639,4.471a14.563,14.563,0,0,0,13.144,0C266.429,342.287,267.33,340.911,267.319,339.482Z" transform="translate(5.148 -132.25)"/><ellipse class="p" cx="9.294" cy="5.361" rx="9.294" ry="5.361" transform="translate(253.879 187.589)"/><path class="q" d="M265.8,325.342c0,.88-.724,1.79-1.987,2.525a11.851,11.851,0,0,1-5.237,1.356h-.6a12.129,12.129,0,0,1-5.837-1.377c-1.263-.735-1.987-1.646-1.987-2.525s.724-1.791,1.987-2.515a12.016,12.016,0,0,1,5.837-1.376h.6a11.716,11.716,0,0,1,5.237,1.366C265.074,323.552,265.8,324.473,265.8,325.342Z" transform="translate(5.201 -132.392)"/><path class="t" d="M265.759,325.341c0,.88-.724,1.791-1.987,2.525a10.816,10.816,0,0,1-10.484,0c-1.263-.735-1.987-1.646-1.987-2.525s.724-1.791,1.987-2.515a10.743,10.743,0,0,1,10.484,0C265.034,323.551,265.759,324.472,265.759,325.341Z" transform="translate(5.24 -132.391)"/><path class="u" d="M265.479,331.659,263.5,330.51l-.952.559.952.559v.362l1.853,1.035-.052.342a16.315,16.315,0,0,1,1.221,2l.072-.062v4.606c0,1.211-.714.8-1.035.621l-2.07-1.19-.952.549.952.559v.362l2.07,1.2a3.3,3.3,0,0,0,.673.3l-.124.58,1.035-.611h0a1.832,1.832,0,0,0,.631-1.625V335.84a5.548,5.548,0,0,0-2.3-4.181Z" transform="translate(5.619 -132.064)"/><path class="v" d="M264.62,342.579l-2.07-1.2V339.9l2.07,1.2c.31.176,1.035.59,1.035-.621v-4.813a2.825,2.825,0,0,0-1.2-2.07l-1.884-1.035v-1.48l1.966,1.138a5.589,5.589,0,0,1,2.391,4.212v4.813C266.907,342.517,266.307,343.552,264.62,342.579Z" transform="translate(5.621 -132.044)"/></g></g></svg>